<svg width="258" height="60" viewBox="0 0 258 60" fill="none" xmlns="http://www.w3.org/2000/svg">
<rect width="258" height="60" rx="4" fill="white"/>
<g clip-path="url(#clip0)">
<path fill-rule="evenodd" clip-rule="evenodd" d="M39.554 36.378H30.893L26.26 39.525L26.261 36.378H23.535V25.525H39.554V36.378Z" stroke="black"/>
<path fill-rule="evenodd" clip-rule="evenodd" d="M28.595 30.951C28.595 31.651 28.025 32.22 27.321 32.22C26.617 32.22 26.047 31.651 26.047 30.951C26.047 30.25 26.617 29.682 27.321 29.682C28.025 29.682 28.595 30.25 28.595 30.951ZM32.954 30.951C32.954 31.651 32.384 32.22 31.681 32.22C30.975 32.22 30.406 31.651 30.406 30.951C30.406 30.25 30.975 29.682 31.681 29.682C32.384 29.682 32.954 30.25 32.954 30.951ZM37.312 30.951C37.312 31.651 36.742 32.22 36.039 32.22C35.334 32.22 34.764 31.651 34.764 30.951C34.764 30.25 35.334 29.682 36.039 29.682C36.742 29.682 37.312 30.25 37.312 30.951Z" stroke="black"/>
<mask id="mask0" mask-type="alpha" maskUnits="userSpaceOnUse" x="20" y="20" width="10" height="10">
<path d="M20.429 24.93C20.429 27.415 22.443 29.43 24.929 29.43C27.414 29.43 29.429 27.415 29.429 24.93C29.429 22.444 27.414 20.43 24.929 20.43C22.443 20.43 20.429 22.444 20.429 24.93Z" fill="white"/>
</mask>
<g mask="url(#mask0)">
<path fill-rule="evenodd" clip-rule="evenodd" d="M14 35.858H35.857V14.001H14V35.858Z" fill="#00830D"/>
</g>
<path d="M22.518 25.399L24.188 26.95L27.172 22.535" stroke="white"/>
</g>
<path d="M66.4 30H67.576V24.316C67.576 23.434 67.478 22.188 67.422 21.292H67.478L68.29 23.63L70.236 28.964H71.104L73.05 23.63L73.862 21.292H73.918C73.848 22.188 73.75 23.434 73.75 24.316V30H74.968V19.724H73.4L71.44 25.226C71.202 25.94 70.978 26.654 70.74 27.368H70.67C70.418 26.654 70.18 25.94 69.942 25.226L67.968 19.724H66.4V30ZM81.6393 30.182C82.9693 30.182 83.9773 29.65 84.7893 28.712L84.0753 27.9C83.4173 28.614 82.6753 29.048 81.6953 29.048C79.7353 29.048 78.5033 27.424 78.5033 24.834C78.5033 22.272 79.7913 20.676 81.7373 20.676C82.6193 20.676 83.3053 21.082 83.8373 21.656L84.5373 20.816C83.9493 20.158 82.9693 19.542 81.7233 19.542C79.1193 19.542 77.1733 21.558 77.1733 24.876C77.1733 28.208 79.0913 30.182 81.6393 30.182ZM86.6891 30H87.8651V24.316C87.8651 23.434 87.7671 22.188 87.7111 21.292H87.7671L88.5791 23.63L90.5251 28.964H91.3931L93.3391 23.63L94.1511 21.292H94.2071C94.1371 22.188 94.0391 23.434 94.0391 24.316V30H95.2571V19.724H93.6891L91.7291 25.226C91.4911 25.94 91.2671 26.654 91.0291 27.368H90.9591C90.7071 26.654 90.4691 25.94 90.2311 25.226L88.2571 19.724H86.6891V30ZM100.234 27.214C99.2264 27.214 98.5964 25.94 98.5964 23.882C98.5964 21.866 99.2264 20.592 100.234 20.592C101.214 20.592 101.858 21.866 101.858 23.882C101.858 25.94 101.214 27.214 100.234 27.214ZM104.476 23.364H102.894C102.754 20.998 101.746 19.528 100.234 19.528C98.5964 19.528 97.5464 21.208 97.5464 23.882C97.5464 26.598 98.5964 28.278 100.234 28.278C101.774 28.278 102.796 26.766 102.894 24.302H104.476V30.42H105.568V18.758H104.476V23.364ZM106.968 18.478V31.036H108.06V18.478H106.968ZM116.407 22.594C116.407 21.152 117.877 20.214 119.879 20.214C121.881 20.214 123.337 21.152 123.337 22.594C123.337 24.036 121.881 24.974 119.879 24.974C117.877 24.974 116.407 24.036 116.407 22.594ZM120.453 28.474V25.856C122.791 25.688 124.429 24.442 124.429 22.594C124.429 20.592 122.525 19.304 119.879 19.304C117.219 19.304 115.301 20.592 115.301 22.594C115.301 24.442 116.953 25.688 119.291 25.856V28.474H114.181V29.426H125.591V28.474H120.453ZM137.378 18.478H136.23V27.69H137.378V18.478ZM134.634 24.736C132.772 24.05 131.498 22.342 131.498 20.452V19.178H130.35V20.452C130.35 22.412 129.09 24.232 127.2 24.96L127.802 25.898C129.272 25.282 130.406 24.064 130.938 22.538C131.498 23.966 132.604 25.1 134.032 25.646L134.634 24.736ZM130.448 29.818V26.836H129.3V30.756H137.756V29.818H130.448ZM153.061 26.976H154.223V18.492H153.061V22.02H150.359V22.958H153.061V26.976ZM144.689 19.472V20.41H149.085C148.861 22.622 147.055 24.33 144.087 25.268L144.591 26.178C148.175 25.016 150.317 22.706 150.317 19.472H144.689ZM150.737 25.884H149.589V26.458C149.589 28.292 147.629 29.692 145.389 30.084L145.851 30.994C147.727 30.63 149.421 29.636 150.163 28.166C150.905 29.608 152.585 30.602 154.433 30.966L154.895 30.07C152.683 29.65 150.737 28.264 150.737 26.458V25.884ZM162.426 19.556C164.484 19.556 165.66 20.032 165.66 20.872C165.66 21.712 164.484 22.188 162.426 22.188C160.368 22.188 159.192 21.712 159.192 20.872C159.192 20.032 160.368 19.556 162.426 19.556ZM162.426 23.042C165.184 23.042 166.836 22.286 166.836 20.872C166.836 19.458 165.184 18.688 162.426 18.688C159.668 18.688 158.016 19.458 158.016 20.872C158.016 22.286 159.668 23.042 162.426 23.042ZM159.276 28.726H166.654V25.898H158.114V26.766H165.52V27.886H158.156V30.896H167.032V30H159.276V28.726ZM156.742 23.896V24.82H168.11V23.896H156.742ZM181.02 19.71H177.996V18.436H176.848V19.71H173.81V20.564H181.02V19.71ZM175.574 23.014C175.574 22.342 176.288 21.908 177.422 21.908C178.528 21.908 179.256 22.342 179.256 23.014C179.256 23.714 178.528 24.134 177.422 24.134C176.288 24.134 175.574 23.714 175.574 23.014ZM181.398 25.492C180.32 25.674 179.144 25.772 177.996 25.828V24.932C179.438 24.778 180.348 24.092 180.348 23.014C180.348 21.824 179.172 21.096 177.422 21.096C175.658 21.096 174.482 21.824 174.482 23.014C174.482 24.092 175.406 24.792 176.848 24.932V25.884C175.644 25.926 174.482 25.94 173.502 25.94L173.628 26.864C175.812 26.85 178.822 26.808 181.482 26.318L181.398 25.492ZM176.498 27.648H175.35V30.756H183.736V29.818H176.498V27.648ZM183.288 22.86V18.478H182.14V28.306H183.288V23.812H185.122V22.86H183.288ZM187.725 22.202C187.725 21.04 188.649 20.2 189.867 20.2C191.099 20.2 191.995 21.04 191.995 22.202C191.995 23.378 191.099 24.218 189.867 24.218C188.649 24.218 187.725 23.378 187.725 22.202ZM195.621 21.222V23.182H192.919C193.031 22.874 193.087 22.552 193.087 22.202C193.087 21.838 193.031 21.516 192.933 21.222H195.621ZM195.621 24.12V25.912H196.783V18.478H195.621V20.284H192.401C191.827 19.64 190.931 19.234 189.867 19.234C188.005 19.234 186.633 20.452 186.633 22.202C186.633 23.966 188.005 25.198 189.867 25.198C190.931 25.198 191.827 24.792 192.401 24.12H195.621ZM192.625 30.112C190.735 30.112 189.587 29.552 189.587 28.614C189.587 27.662 190.735 27.102 192.625 27.102C194.543 27.102 195.691 27.662 195.691 28.614C195.691 29.552 194.543 30.112 192.625 30.112ZM192.625 26.206C190.049 26.206 188.453 27.088 188.453 28.614C188.453 30.14 190.049 31.022 192.625 31.022C195.215 31.022 196.825 30.14 196.825 28.614C196.825 27.088 195.215 26.206 192.625 26.206ZM206.764 19.766H203.628V18.352H202.48V19.766H199.358V20.69H206.764V19.766ZM201.15 23.476C201.15 22.664 201.906 22.146 203.054 22.146C204.202 22.146 204.972 22.664 204.972 23.476C204.972 24.302 204.202 24.806 203.054 24.806C201.906 24.806 201.15 24.302 201.15 23.476ZM206.064 23.476C206.064 22.146 204.846 21.292 203.054 21.292C201.262 21.292 200.058 22.146 200.058 23.476C200.058 24.82 201.262 25.674 203.054 25.674C204.846 25.674 206.064 24.82 206.064 23.476ZM207.926 29.944H202.298V28.558H207.926V29.944ZM207.926 27.662H202.298V26.332H201.164V30.868H209.06V26.332H207.926V27.662ZM210.922 21.67H209.06V18.478H207.912V25.772H209.06V22.636H210.922V21.67ZM214.127 19.696H212.979V27.788H214.015C216.017 27.788 217.991 27.648 220.175 27.2L220.049 26.22C217.963 26.64 216.017 26.808 214.127 26.808V19.696ZM221.337 18.478V31.022H222.485V18.478H221.337ZM226.754 20.634H231.444V19.682H225.606V27.928H226.6C228.966 27.928 230.618 27.844 232.536 27.48L232.41 26.528C230.59 26.85 228.98 26.948 226.754 26.948V20.634ZM236.806 23.434H234.734V18.478H233.586V31.064H234.734V24.386H236.806V23.434ZM239.157 30.182C239.661 30.182 240.081 29.79 240.081 29.216C240.081 28.628 239.661 28.222 239.157 28.222C238.653 28.222 238.233 28.628 238.233 29.216C238.233 29.79 238.653 30.182 239.157 30.182ZM74.534 42.154H68.304V39.102H74.534V42.154ZM75.668 38.178H67.184V43.064H75.668V38.178ZM77.124 44.772H65.728V45.696H70.824V50.022H71.972V45.696H77.124V44.772ZM79.9089 41.384C79.9089 40.166 80.8189 39.298 82.0509 39.298C83.2689 39.298 84.1789 40.166 84.1789 41.384C84.1789 42.574 83.2689 43.428 82.0509 43.428C80.8189 43.428 79.9089 42.574 79.9089 41.384ZM87.8049 41.86V46.088H88.9669V37.478H87.8049V40.922H85.2569C85.0329 39.368 83.7449 38.332 82.0509 38.332C80.1889 38.332 78.8169 39.578 78.8169 41.384C78.8169 43.148 80.1889 44.408 82.0509 44.408C83.7309 44.408 85.0189 43.372 85.2429 41.86H87.8049ZM85.5089 45.108H84.3329V45.598C84.3329 47.292 82.3309 48.678 80.1049 49.07L80.5669 49.98C82.4569 49.644 84.1649 48.636 84.9209 47.208C85.6629 48.65 87.3709 49.644 89.2749 49.98L89.7229 49.07C87.4829 48.692 85.5089 47.334 85.5089 45.598V45.108ZM97.1698 38.556C99.2278 38.556 100.404 39.032 100.404 39.872C100.404 40.712 99.2278 41.188 97.1698 41.188C95.1118 41.188 93.9358 40.712 93.9358 39.872C93.9358 39.032 95.1118 38.556 97.1698 38.556ZM97.1698 42.042C99.9278 42.042 101.58 41.286 101.58 39.872C101.58 38.458 99.9278 37.688 97.1698 37.688C94.4118 37.688 92.7598 38.458 92.7598 39.872C92.7598 41.286 94.4118 42.042 97.1698 42.042ZM94.0198 47.726H101.398V44.898H92.8578V45.766H100.264V46.886H92.8998V49.896H101.776V49H94.0198V47.726ZM91.4858 42.896V43.82H102.854V42.896H91.4858ZM111.663 46.186C110.459 46.186 109.619 44.87 109.619 42.826C109.619 40.796 110.459 39.48 111.663 39.48C112.853 39.48 113.693 40.796 113.693 42.826C113.693 44.87 112.853 46.186 111.663 46.186ZM117.501 37.478V42.266H114.771C114.589 39.914 113.357 38.444 111.663 38.444C109.829 38.444 108.527 40.152 108.527 42.826C108.527 45.5 109.829 47.208 111.663 47.208C113.413 47.208 114.659 45.668 114.771 43.204H117.501V50.064H118.649V37.478H117.501ZM128.251 40.096V40.978H130.491V44.156H131.653V37.492H130.491V40.096H128.251ZM129.301 42.07C128.377 42.28 127.551 42.336 126.487 42.35V39.004H128.825V38.094H125.353V43.26H125.969C127.369 43.26 128.279 43.218 129.399 42.966L129.301 42.07ZM124.821 42.084C123.995 42.266 123.267 42.322 122.651 42.336V39.004H124.653V38.094H121.517V43.26H122.077C122.847 43.26 123.771 43.246 124.919 42.994L124.821 42.084ZM127.383 49.21C125.899 49.21 125.031 48.86 125.031 48.244C125.031 47.6 125.899 47.25 127.383 47.25C128.853 47.25 129.735 47.6 129.735 48.244C129.735 48.86 128.853 49.21 127.383 49.21ZM127.383 46.438C125.143 46.438 123.841 47.068 123.841 48.244C123.841 49.406 125.143 50.036 127.383 50.036C129.623 50.036 130.925 49.406 130.925 48.244C130.925 47.068 129.623 46.438 127.383 46.438ZM127.971 44.968V43.764H126.823V44.968H122.917V45.85H131.863V44.968H127.971ZM141.018 42.616H138.848C139.268 41.496 139.45 40.306 139.45 39.074H134.606V40.012H138.316C138.106 42.644 136.762 44.898 134.074 46.508L134.746 47.334C136.482 46.298 137.686 44.996 138.442 43.54H141.018V49.406H142.11V37.814H141.018V42.616ZM143.636 37.478V50.036H144.728V37.478H143.636ZM157.121 47.502V44.282H160.943V43.358H153.453V39.424H160.817V38.486H152.305V44.282H155.959V47.502H150.849V48.454H162.259V47.502H157.121ZM165.282 41.244C165.282 40.068 166.206 39.256 167.494 39.256C168.768 39.256 169.692 40.068 169.692 41.244C169.692 42.434 168.768 43.218 167.494 43.218C166.206 43.218 165.282 42.434 165.282 41.244ZM168.068 44.156C169.678 43.946 170.812 42.812 170.812 41.244C170.812 39.48 169.412 38.29 167.494 38.29C165.548 38.29 164.162 39.48 164.162 41.244C164.162 42.812 165.282 43.96 166.92 44.156V46.326C165.744 46.354 164.596 46.368 163.602 46.368L163.756 47.334C165.968 47.334 168.894 47.292 171.554 46.844L171.456 46.004C170.378 46.158 169.216 46.228 168.068 46.284V44.156ZM175.39 42.658H173.402V37.464H172.254V50.036H173.402V43.624H175.39V42.658ZM186.687 43.498H179.197V39.578H186.561V38.626H178.063V44.436H186.687V43.498ZM176.607 47.39V48.342H188.003V47.39H176.607ZM199.804 37.492H198.656V44.072H199.804V37.492ZM197.13 42.322C195.212 42.644 193.63 42.7 191.264 42.7V41.188H195.856V38.066H190.102V38.962H194.722V40.334H190.13V43.596H191.138C193.63 43.596 195.254 43.54 197.242 43.218L197.13 42.322ZM192.86 49V47.614H199.804V44.66H191.67V45.542H198.642V46.76H191.698V49.896H200.224V49H192.86ZM202.743 38.836V39.788H205.053C204.927 42.308 204.199 44.632 202.337 46.564L203.233 47.208C205.515 44.8 206.145 41.86 206.145 38.836H202.743ZM206.565 38.836V39.788H208.497C208.399 42.448 207.839 45.192 205.907 47.418L206.831 48.048C209.141 45.318 209.575 41.86 209.575 38.836H206.565ZM214.111 42.658H212.249V37.478H211.101V50.036H212.249V43.61H214.111V42.658ZM219.192 44.52C219.71 44.646 220.312 44.716 220.928 44.716C221.558 44.716 222.16 44.646 222.692 44.52V47.474H219.192V44.52ZM220.928 39.172C222.944 39.172 224.4 40.096 224.4 41.496C224.4 42.896 222.944 43.82 220.928 43.82C218.912 43.82 217.47 42.896 217.47 41.496C217.47 40.096 218.912 39.172 220.928 39.172ZM223.84 47.474V44.072C224.876 43.526 225.492 42.63 225.492 41.496C225.492 39.536 223.602 38.276 220.928 38.276C218.268 38.276 216.364 39.536 216.364 41.496C216.364 42.63 216.994 43.54 218.044 44.086V47.474H215.244V48.426H226.654V47.474H223.84ZM229.887 45.906H231.021C230.769 43.708 233.289 42.882 233.289 40.824C233.289 39.298 232.253 38.332 230.671 38.332C229.537 38.332 228.641 38.878 227.997 39.62L228.725 40.292C229.215 39.732 229.831 39.396 230.531 39.396C231.525 39.396 232.043 40.068 232.043 40.908C232.043 42.574 229.565 43.47 229.887 45.906ZM230.489 49.182C231.007 49.182 231.427 48.79 231.427 48.216C231.427 47.628 231.007 47.222 230.489 47.222C229.985 47.222 229.565 47.628 229.565 48.216C229.565 48.79 229.985 49.182 230.489 49.182Z" fill="black"/>
<defs>
<clipPath id="clip0">
<rect width="20" height="20" fill="white" transform="translate(20 20)"/>
</clipPath>
</defs>
</svg>
