<!-- Generated by IcoMoon.io -->
<svg version="1.1" xmlns="http://www.w3.org/2000/svg" width="53" height="32" viewBox="0 0 53 32">
<title>All_Bags_Women</title>
<path d="M42.574 16.485c0.083 0 0.156-0.027 0.209-0.082 0.145-0.151 0.083-0.461-0.138-0.691-0.14-0.146-0.311-0.226-0.454-0.226-0.083 0-0.156 0.027-0.209 0.082-0.145 0.151-0.083 0.461 0.138 0.691 0.14 0.146 0.311 0.226 0.454 0.226z"></path>
<path d="M39.448 16.259c0.221-0.23 0.283-0.54 0.138-0.691-0.053-0.055-0.126-0.082-0.209-0.082-0.143 0-0.314 0.079-0.454 0.226-0.221 0.23-0.283 0.54-0.138 0.691 0.053 0.055 0.126 0.082 0.209 0.082 0.143 0 0.314-0.079 0.454-0.226z"></path>
<path d="M45.271 20.942c-0.845-0.682-1.29-1.216-1.458-1.44 0.569-0.603 0.912-1.376 0.912-2.218 0-0.982-0.468-1.869-1.217-2.503 0.419-0.7 0.847-2.675 0.878-2.874 0.322-2.055-0.365-2.729-0.998-2.932-0.524-0.168-1.004-0.084-1.388 0.242-1.049 0.892-1.139 3.334-1.014 4.594-0.079-0.004-0.157-0.011-0.237-0.011-0.019 0-0.037 0.002-0.055 0.003 0.124-1.261 0.032-3.695-1.015-4.586-0.383-0.326-0.862-0.41-1.388-0.242-0.633 0.203-1.319 0.877-0.998 2.932 0.030 0.19 0.423 2.003 0.823 2.773-0.764 0.594-1.263 1.439-1.331 2.387h-3.042c0.139-1.545 0.086-3.778-1.060-5.227-0.634-0.802-1.526-1.261-2.653-1.376v-0.464h-1.067v0.454c-1.171 0.099-2.085 0.563-2.723 1.383-1.129 1.453-1.133 3.697-0.964 5.229h-5.208l-0.041 0.533h-1.466l0.131 2.667h-7.851v1.639c-0.464 0.442-2.576 2.658-2.738 6.361h-1.042l-1.28 3.2h2.885l1.28-3.2h-1.309c0.134-2.811 1.485-4.745 2.204-5.579v5.89c0 1.674 1.126 2.889 2.677 2.889h26.451l-0.094-1.223c0.407-0.196 0.689-0.376 0.846-0.488 0.256 0.182 0.835 0.546 1.753 0.859 0.298 0.101 0.598 0.141 0.884 0.141 0.984 0 1.81-0.467 1.854-0.492v-0.001c0.847-0.256 1.287-1.507 0.999-2.915-0.052-0.257-0.127-0.499-0.219-0.727 0.089 0.044 0.179 0.074 0.274 0.084 0.028 0.003 0.055 0.005 0.083 0.005 0.287 0 0.552-0.167 0.789-0.499 1.278-1.784-0.749-4.366-1.87-5.269zM8.308 30.933h-1.737l0.853-2.133h1.737l-0.853 2.133zM42.347 9.622c0.243-0.206 0.531-0.252 0.879-0.14 0.274 0.088 0.463 0.279 0.579 0.584 0.465 1.226-0.426 3.761-0.715 4.407-0.457-0.293-0.985-0.505-1.559-0.606-0.148-1.235-0.010-3.543 0.817-4.245zM37.876 10.066c0.116-0.305 0.305-0.496 0.579-0.584 0.348-0.111 0.636-0.066 0.879 0.14 0.82 0.698 0.962 2.98 0.82 4.221-0.585 0.078-1.13 0.264-1.603 0.54-0.323-0.772-1.119-3.146-0.675-4.317zM40.749 14.333c1.898 0 3.442 1.324 3.442 2.951s-1.544 2.951-3.442 2.951c-0.147 0-0.292-0.011-0.437-0.026l0.103-1.829c0.13 0.060 0.276 0.097 0.434 0.097 0.508 0 0.922-0.354 0.922-0.788s-0.413-0.788-0.922-0.788c-0.473 0-0.859 0.307-0.911 0.699h-1.033l-0.041-0.533h-1.543c0.13-1.526 1.616-2.734 3.428-2.734zM42.959 26.633c-0.701 2.777-2.106 2.553-2.163 2.543-0.038-0.008-0.076-0.005-0.113 0.004-0.011 0.001-0.020-0.006-0.030-0.004-0.017 0.004-0.385 0.063-0.835-0.226l0.463-8.207c0.155 0.016 0.311 0.026 0.467 0.026 0.734 0 1.421-0.179 2.012-0.484 0.758 0.844 0.902 1.549 1.024 2.174 0.085 0.436 0.165 0.847 0.435 1.229 0.060 0.084 0.178 0.362 0.292 0.63 0.142 0.334 0.285 0.655 0.432 0.953-0.286-0.166-0.586-0.226-0.871-0.163-0.584 0.129-0.983 0.726-1.113 1.524zM39.493 25.251l-0.547-7.117h0.949l-0.402 7.117zM40.461 17.689c0-0.121 0.159-0.254 0.388-0.254s0.389 0.134 0.389 0.254-0.159 0.254-0.389 0.254-0.388-0.134-0.388-0.254zM26.664 12.164c0.533-0.685 1.306-1.078 2.301-1.173v0.609h1.067v-0.597c0.953 0.11 1.705 0.499 2.234 1.167 1.040 1.314 1.071 3.436 0.937 4.897h-7.382c-0.164-1.447-0.182-3.584 0.843-4.902zM19.124 18.133h0.864l-0.164 2.133h-0.595l-0.105-2.133zM23.644 20.8v2.457l-4.27 2.562v-0.752h-3.733v0.775l-4.263-2.558v-2.484h12.267zM16.174 27.156h0.527v-0.533h-0.527v-1.022h2.667v1.022h-0.54v0.533h0.54v1.644h-2.667v-1.644zM19.251 30.933h-5.73c-1.262 0-2.143-0.969-2.143-2.356v-4.673l4.263 2.558v2.87h3.733v-2.892l4.27-2.562v4.699c0 1.388-1.4 2.356-2.657 2.356h-1.737zM22.78 30.933c0.831-0.533 1.397-1.408 1.397-2.356v-8.311h-3.819l0.205-2.667h4.783c0.055 0.371 0.114 0.676 0.157 0.875h-0.167c-0.253 0-0.474 0.099-0.623 0.278-0.156 0.187-0.22 0.451-0.171 0.714l0.535 2.374c0.113 0.438 0.413 0.711 0.784 0.711 0.171 0 0.588-0.071 0.768-0.745l0.532-2.419c0.054-0.222 0.008-0.447-0.126-0.619-0.149-0.19-0.386-0.294-0.666-0.294h-0.319c-0.036-0.158-0.099-0.465-0.161-0.875h7.254c-0.050 0.385-0.104 0.69-0.14 0.875h-0.332c-0.253 0-0.474 0.099-0.623 0.278-0.156 0.187-0.22 0.451-0.171 0.714l0.535 2.374c0.113 0.438 0.413 0.711 0.784 0.711 0.212 0 0.594-0.095 0.768-0.745l0.532-2.419c0.054-0.222 0.008-0.447-0.126-0.619-0.149-0.19-0.386-0.294-0.666-0.294h-0.157c0.013-0.070 0.028-0.148 0.044-0.239 0.525 0.044 0.899 0.231 1.118 0.586 0.74 1.201-0.317 3.989-0.884 5.178h-0.711l-0.644 2.482 0.229 0.093-0.329 0.909 1.672 0.669 1.679-0.672-0.362-0.911 0.233-0.098-0.643-2.472h-0.537c0.49-1.087 1.65-3.998 0.751-5.457-0.305-0.495-0.814-0.765-1.493-0.831 0.005-0.038 0.011-0.072 0.015-0.112h4.683l0.897 11.662-0.001 0.011h0.002l0.127 1.66h-16.616zM26.371 19.008c0.113 0 0.201 0.033 0.247 0.091 0.042 0.054 0.038 0.118 0.026 0.169l-0.531 2.413c-0.034 0.126-0.111 0.338-0.25 0.338-0.169 0-0.244-0.217-0.266-0.302l-0.531-2.357c-0.019-0.098 0.004-0.2 0.058-0.265 0.047-0.057 0.119-0.086 0.213-0.086h1.034zM33.706 19.008c0.113 0 0.201 0.033 0.246 0.091 0.043 0.054 0.038 0.118 0.026 0.169l-0.531 2.413c-0.034 0.126-0.111 0.338-0.25 0.338-0.169 0-0.244-0.217-0.266-0.302l-0.531-2.357c-0.019-0.098 0.004-0.2 0.058-0.265 0.047-0.057 0.119-0.086 0.213-0.086h1.034zM35.031 27.185l-0.987 0.395-0.995-0.398 0.146-0.404 0.85 0.347 0.824-0.347 0.162 0.407zM34.042 26.547l-0.937-0.382 0.423-1.631h1.010l0.423 1.627-0.919 0.387zM39.834 29.669l-0.009-0.12c0.042 0.018 0.087 0.044 0.127 0.058-0.036 0.020-0.078 0.041-0.118 0.062zM42.649 30.11c-0.484-0.165-0.867-0.346-1.148-0.5 0.461-0.164 1.036-0.575 1.504-1.53 0.189 0.898 0.634 1.649 1.194 2.012 0.003 0.002 0.005 0.002 0.008 0.004-0.438 0.124-1.012 0.201-1.557 0.014zM45.024 29.772c-0.167 0.038-0.348-0.005-0.535-0.127-0.442-0.287-0.813-0.938-0.968-1.7-0.085-0.414-0.095-0.82-0.047-1.173 0.004-0.014 0.009-0.026 0.012-0.041l-0.005-0.002c0.089-0.585 0.343-1.021 0.708-1.101 0.039-0.009 0.079-0.013 0.12-0.013 0.133 0 0.272 0.047 0.415 0.14 0.442 0.286 0.813 0.938 0.969 1.7 0.23 1.125-0.076 2.186-0.667 2.317zM46.707 25.901c-0.096 0.133-0.24 0.289-0.38 0.274-0.468-0.051-1.047-1.412-1.325-2.067-0.148-0.347-0.255-0.598-0.347-0.729-0.204-0.289-0.27-0.629-0.347-1.023-0.125-0.642-0.286-1.431-1.083-2.351 0.066-0.046 0.129-0.095 0.19-0.145 0.207 0.27 0.671 0.812 1.52 1.497 1.077 0.868 2.759 3.165 1.772 4.545z"></path>
<path d="M40.18 23.569l0.539 0.517 0.539-0.517-0.539-0.518z"></path>
<path d="M41.78 21.969l0.539 0.517 0.539-0.517-0.539-0.518z"></path>
<path d="M41.78 25.169l0.539 0.517 0.539-0.517-0.539-0.518z"></path>
<path d="M17.767 26.622h0.533v-0.533h-1.6v0.533h0.533z"></path>
</svg>
