<!-- Generated by IcoMoon.io -->
<svg version="1.1" xmlns="http://www.w3.org/2000/svg" width="53" height="32" viewBox="0 0 53 32">
<title>All_Bags_Men</title>
<path d="M43.089 12.726c-0.119-1.005-0.711-2.626-2.282-2.626-1.654 0-2.265 1.823-2.362 2.814-1.558 0.761-2.911 2.211-3.811 4.153h-2.214c0.139-1.545 0.086-3.778-1.060-5.227-0.634-0.802-1.526-1.261-2.653-1.376v-0.464h-1.067v0.454c-1.171 0.099-2.085 0.563-2.723 1.383-1.129 1.453-1.133 3.697-0.964 5.229h-5.22l-0.041 0.533h-1.465l0.131 2.667h-9.527v0.211l-2.938 1.985 1.403 1.403 1.534-2.271v9.873h40.61v-9.116c-0.001-4.548-2.262-8.394-5.352-9.625zM6.216 23.031l-0.489-0.489 1.506-1.017-1.017 1.506zM40.807 10.634c1.182 0 1.579 1.223 1.708 1.894-0.498-0.141-1.013-0.218-1.541-0.218-0.666 0-1.32 0.122-1.948 0.352 0.13-0.648 0.55-2.028 1.781-2.028zM25.339 12.164c0.533-0.685 1.306-1.078 2.301-1.173v0.609h1.067v-0.597c0.953 0.11 1.705 0.499 2.234 1.167 1.040 1.314 1.071 3.436 0.937 4.897h-7.382c-0.164-1.447-0.181-3.584 0.843-4.902zM17.787 18.133h0.864l-0.164 2.133h-0.595l-0.105-2.133zM22.307 20.8v0.99h-13.942v-0.99h13.942zM17.914 30.933h-9.549v-8.61h13.943v8.61h-4.394zM33.773 30.933h-10.933v-10.667h-3.818l0.205-2.667h4.796c0.059 0.397 0.122 0.713 0.165 0.91h-0.171c-0.253 0-0.474 0.099-0.623 0.278-0.155 0.187-0.22 0.451-0.17 0.713l0.535 2.374c0.113 0.438 0.413 0.711 0.784 0.711 0.171 0 0.587-0.071 0.768-0.745l0.532-2.419c0.054-0.222 0.008-0.447-0.126-0.619-0.149-0.19-0.386-0.294-0.666-0.294h-0.315c-0.033-0.146-0.102-0.469-0.169-0.91h7.254c-0.053 0.415-0.112 0.732-0.148 0.91h-0.313c-0.253 0-0.474 0.099-0.623 0.278-0.156 0.187-0.22 0.451-0.171 0.714l0.535 2.374c0.113 0.438 0.413 0.711 0.784 0.711 0.212 0 0.594-0.095 0.768-0.745l0.532-2.419c0.054-0.222 0.008-0.447-0.126-0.619-0.149-0.19-0.386-0.294-0.666-0.294h-0.176c0.015-0.077 0.032-0.17 0.050-0.274 0.523 0.045 0.895 0.232 1.114 0.586 0.74 1.201-0.317 3.989-0.884 5.178h-0.711l-0.644 2.482 0.229 0.093-0.329 0.909 1.672 0.669 1.679-0.672-0.363-0.91 0.233-0.098-0.643-2.473h-0.537c0.49-1.087 1.65-3.998 0.751-5.457-0.304-0.494-0.812-0.764-1.489-0.83 0.005-0.038 0.011-0.073 0.015-0.113h4.67l0.897 11.664-0.001 0.010h0.001l0.128 1.66h-4.285zM25.050 19.043c0.113 0 0.201 0.033 0.246 0.091 0.043 0.054 0.038 0.118 0.026 0.169l-0.531 2.413c-0.034 0.126-0.111 0.338-0.25 0.338-0.17 0-0.244-0.217-0.266-0.302l-0.532-2.357c-0.018-0.098 0.004-0.199 0.058-0.265 0.047-0.057 0.119-0.086 0.213-0.086h1.035zM32.394 19.043c0.113 0 0.201 0.033 0.246 0.091 0.043 0.054 0.038 0.118 0.026 0.169l-0.531 2.413c-0.034 0.126-0.111 0.338-0.25 0.338-0.169 0-0.244-0.217-0.266-0.302l-0.531-2.357c-0.019-0.098 0.004-0.2 0.058-0.265 0.047-0.057 0.119-0.086 0.213-0.086h1.034zM33.702 27.185l-0.987 0.395-0.995-0.398 0.146-0.404 0.851 0.347 0.824-0.347 0.161 0.407zM32.714 26.547l-0.937-0.382 0.422-1.631h1.010l0.423 1.627-0.918 0.387zM38.465 29.257l0.237-4.19h7.073v4.8h-7.262l-0.047-0.61zM45.773 24.533h-7.042l0.090-1.6h6.952v1.6zM38.157 25.252l-0.548-7.119h0.949l-0.402 7.119zM47.907 30.933h-9.313l-0.041-0.533h7.754v-8h-7.455l0.271-4.8h-1.555l-0.041-0.533h-2.306c1.289-2.619 3.454-4.224 5.753-4.224 3.823 0 6.933 4.265 6.933 9.508v8.583z"></path>
<path d="M39.907 17.067h2.133v-2.133h-2.133v2.133zM40.44 15.467h1.067v1.067h-1.067v-1.067z"></path>
<path d="M13.926 26.133h2.819v-2.819h-2.819v2.819zM14.459 23.847h1.753v1.753h-1.753v-1.753z"></path>
</svg>
