<!-- Generated by IcoMoon.io -->
<svg version="1.1" xmlns="http://www.w3.org/2000/svg" width="53" height="32" viewBox="0 0 53 32">
<title>All_Accessories_Women</title>
<path d="M40.017 19.187c0.508 0 0.922-0.354 0.922-0.788s-0.413-0.788-0.922-0.788c-0.508 0-0.922 0.354-0.922 0.788s0.414 0.788 0.922 0.788zM40.017 18.145c0.229 0 0.388 0.134 0.388 0.254s-0.159 0.254-0.388 0.254c-0.229 0-0.389-0.134-0.389-0.254s0.159-0.254 0.389-0.254z"></path>
<path d="M41.741 17.196c0.083 0 0.156-0.027 0.209-0.082 0.145-0.151 0.083-0.461-0.138-0.691-0.14-0.146-0.311-0.226-0.454-0.226-0.083 0-0.156 0.027-0.209 0.082-0.145 0.151-0.083 0.461 0.138 0.691 0.14 0.146 0.311 0.226 0.454 0.226z"></path>
<path d="M38.161 17.196c0.143 0 0.314-0.079 0.454-0.226 0.221-0.23 0.283-0.54 0.138-0.691-0.053-0.055-0.126-0.082-0.209-0.082-0.143 0-0.314 0.079-0.454 0.226-0.221 0.23-0.283 0.54-0.138 0.691 0.053 0.055 0.126 0.082 0.209 0.082z"></path>
<path d="M39.347 24.813l0.539 0.517 0.539-0.517-0.539-0.518z"></path>
<path d="M42.025 23.213l-0.539-0.518-0.539 0.518 0.539 0.517z"></path>
<path d="M42.025 26.413l-0.539-0.518-0.539 0.518 0.539 0.517z"></path>
<path d="M37.747 23.213l0.539 0.517 0.539-0.517-0.539-0.518z"></path>
<path d="M44.705 25.622c0.115 0.031 0.228 0.047 0.337 0.047 0.285 0 0.546-0.107 0.754-0.315 0.25-0.25 0.373-0.531 0.366-0.837-0.013-0.533-0.435-0.928-0.438-0.928l-2.819-3.303c0.613-0.613 0.987-1.413 0.987-2.291 0-0.982-0.468-1.869-1.217-2.503 0.419-0.7 0.847-2.676 0.878-2.875 0.322-2.055-0.366-2.729-0.998-2.932-0.524-0.167-1.003-0.084-1.388 0.242-1.049 0.892-1.139 3.334-1.014 4.594-0.079-0.004-0.157-0.011-0.237-0.011-0.019 0-0.037 0.002-0.055 0.003 0.124-1.261 0.032-3.695-1.014-4.586-0.385-0.326-0.865-0.41-1.388-0.242-0.633 0.203-1.32 0.876-0.998 2.932 0.030 0.19 0.423 2.003 0.824 2.774-0.729 0.566-1.219 1.362-1.321 2.257-0.808-1.747-1.962-3.157-3.363-4.009-1.882-1.142-4.036-1.14-5.903 0-2.443 1.482-4.133 4.659-4.547 8.364-1.141 0.212-1.79 0.415-2.485 1.322-0.709 0.925-0.767 0.923-1.242 0.919l-0.145-0.001-0.441 0.001c-0.473 0.003-0.533 0.005-1.243-0.92-0.81-1.056-1.529-1.188-3.106-1.478-0.225-0.041-0.468-0.086-0.734-0.137-2.15-0.415-5.044 0.257-5.166 0.285l-0.181 0.043-0.234 1.96 0.235 0.053c0.059 0.013 0.578 0.153 0.606 0.944 0.004 0.117 0.002 0.269 0.001 0.449-0.014 1.399-0.049 4.676 2.635 5.559 2.869 0.943 4.2 0.228 5.417-1.233 0.849-1.019 1.155-2.186 1.338-2.883 0.048-0.183 0.102-0.39 0.132-0.439 0.076-0.122 0.094-0.128 0.391-0.122l0.163 0.002 0.236-0.002c0.298-0.005 0.316 0 0.393 0.122 0.030 0.051 0.085 0.264 0.133 0.452 0.183 0.717 0.49 1.916 1.338 2.934 0.37 0.444 0.754 0.812 1.188 1.090v0.546h16.533v-0.086c0.075-0.018 0.149-0.029 0.224-0.055 0.919-0.314 1.497-0.677 1.754-0.859 0.256 0.182 0.834 0.546 1.754 0.859 0.298 0.101 0.597 0.141 0.884 0.141 0.984 0 1.81-0.467 1.854-0.492v0c0.847-0.255 1.287-1.507 0.999-2.915-0.186-0.91-0.634-1.673-1.201-2.041-0.307-0.199-0.631-0.269-0.941-0.2-0.040 0.009-0.075 0.031-0.113 0.044 0.1-0.528 0.117-1.009 0.093-1.423 0.476 0.623 0.988 1.046 1.487 1.182zM41.514 10.333c0.243-0.206 0.531-0.252 0.879-0.14 0.274 0.088 0.463 0.279 0.579 0.584 0.464 1.225-0.426 3.76-0.716 4.407-0.457-0.293-0.985-0.505-1.56-0.605-0.147-1.235-0.009-3.543 0.818-4.245zM37.043 10.777c0.116-0.305 0.305-0.496 0.579-0.584 0.348-0.112 0.636-0.066 0.879 0.14 0.82 0.698 0.962 2.98 0.82 4.221-0.585 0.078-1.13 0.264-1.603 0.54-0.323-0.772-1.12-3.146-0.676-4.317zM39.916 15.044c1.898 0 3.442 1.324 3.442 2.951s-1.544 2.951-3.442 2.951-3.442-1.324-3.442-2.951 1.544-2.951 3.442-2.951zM37.652 20.854c-0.14 0.516-0.303 0.983-0.48 1.411-0.041-0.436-0.102-0.864-0.178-1.284l0.312-0.365c0.11 0.085 0.225 0.165 0.346 0.239zM36.906 20.263l-0.046 0.054c-0.011-0.050-0.023-0.1-0.036-0.149 0.029 0.031 0.053 0.065 0.082 0.095zM26.974 14.094c1.699-1.037 3.637-1.039 5.349 0.001 2.666 1.62 4.389 5.42 4.389 9.681v2.358h-4.563c0.576-0.702 1.937-2.458 2.315-3.81 0.467-1.662 0.55-3.663 0.554-3.758v-0.14c0-0.103-0.060-0.197-0.154-0.242-0.093-0.043-0.204-0.030-0.284 0.037-0.015 0.013-1.58 1.319-2.73 2.592-1.358 1.506-2.030 4.745-2.141 5.32h-0.131c-0.053-0.273-0.228-1.122-0.538-2.104l0.047-0.010-0.238-1.959-0.183-0.042c-0.028-0.006-0.207-0.046-0.483-0.098-0.221-0.417-0.468-0.8-0.746-1.108-1.149-1.273-2.714-2.579-2.73-2.592-0.079-0.067-0.19-0.080-0.284-0.037-0.093 0.044-0.154 0.138-0.154 0.242v0.15c0.003 0.073 0.067 1.574 0.384 3.053-0.394 0.017-0.785 0.055-1.152 0.126-0.297 0.057-0.563 0.105-0.809 0.148 0.423-3.475 2.006-6.432 4.278-7.809zM31.488 26.093c-0.011 0.012-0.015 0.027-0.023 0.041h-1.209c0.153-0.75 0.807-3.649 1.993-4.963 0.741-0.821 1.662-1.659 2.208-2.138-0.053 0.694-0.188 2.020-0.505 3.147-0.442 1.575-2.444 3.89-2.464 3.913zM28.244 25.462c-0.002-0.18-0.004-0.332 0.001-0.448 0.014-0.406 0.158-0.64 0.302-0.774 0.259 0.832 0.421 1.566 0.489 1.893h-0.793c0.004-0.251 0.003-0.48 0.001-0.671zM27.501 21.807c-0.634-0.094-1.456-0.185-2.298-0.19-0.219-0.982-0.324-2.007-0.367-2.585 0.545 0.478 1.467 1.317 2.208 2.138 0.164 0.181 0.314 0.402 0.457 0.636zM20.601 29.489c-0.772-0.925-1.059-2.052-1.231-2.725-0.077-0.302-0.124-0.485-0.197-0.602-0.211-0.338-0.467-0.374-0.74-0.374-0.038 0-0.076 0.001-0.115 0.001l-0.151 0.002-0.228-0.002c-0.314-0.006-0.613-0.012-0.854 0.372-0.072 0.115-0.122 0.303-0.196 0.587-0.172 0.654-0.459 1.75-1.233 2.677-1.129 1.354-2.234 1.925-4.841 1.068-2.314-0.761-2.283-3.655-2.269-5.046 0.002-0.189 0.003-0.35-0.001-0.474-0.028-0.789-0.451-1.197-0.794-1.364l0.138-1.136c0.665-0.139 3.019-0.578 4.762-0.242 0.268 0.052 0.513 0.097 0.74 0.138 1.524 0.28 2.094 0.385 2.779 1.278 0.808 1.053 0.997 1.138 1.673 1.129l0.138-0.001 0.436 0.001c0.67 0.004 0.869-0.082 1.671-1.128 0.657-0.857 1.189-0.951 2.612-1.203 0.271-0.048 0.571-0.101 0.907-0.166 1.741-0.335 4.096 0.088 4.763 0.222l0.137 1.128c-0.343 0.167-0.766 0.577-0.794 1.366-0.004 0.123-0.003 0.283-0.001 0.473 0.015 1.395 0.045 4.299-2.269 5.060-2.624 0.862-3.726 0.3-4.842-1.039zM28.076 29.581l-0.344-0.186c-0.039-0.021-0.083-0.032-0.126-0.032-0.017 0-0.032 0.009-0.049 0.012 0.135-0.252 0.245-0.516 0.333-0.787 0.030 0.019 0.063 0.036 0.099 0.042l0.386 0.060-0.283 0.27c-0.063 0.060-0.093 0.148-0.079 0.235l0.062 0.387zM37.379 30.933h-11.524c0.394-0.163 0.731-0.375 1.006-0.633 0.012-0.004 0.026-0.002 0.038-0.007l0.703-0.362 0.697 0.375c0.039 0.021 0.083 0.032 0.126 0.032 0.054 0 0.109-0.017 0.155-0.050 0.083-0.059 0.125-0.159 0.109-0.259l-0.126-0.781 0.572-0.546c0.073-0.070 0.1-0.175 0.070-0.273s-0.113-0.168-0.213-0.184l-0.781-0.122-0.131-0.273c0.079-0.409 0.123-0.811 0.145-1.186h9.156v4.267zM37.965 30.821c-0.018 0.006-0.035 0.007-0.052 0.012v-1.524c0.399 0.589 0.835 0.881 1.2 1.011-0.281 0.155-0.664 0.335-1.148 0.5zM39.963 29.886c-0.033-0.007-0.066-0.006-0.098-0.001-0.015 0-0.030-0.002-0.046 0.001-0.051 0.011-1.167 0.178-1.908-1.736v-1.578l0.373 0.358 0.539-0.517-0.539-0.517-0.373 0.358v-0.121h-0.639c-0.010-0.039-0.019-0.078-0.028-0.117v-2.241c0-0.067-0.004-0.133-0.005-0.2 0.069-0.282 0.137-0.446 0.139-0.451l-0.006-0.003c0.297-0.602 0.557-1.284 0.763-2.017 0.537 0.237 1.14 0.373 1.78 0.373 0.626 0 1.215-0.131 1.742-0.357 0.205 0.727 0.465 1.403 0.759 2.001l-0.006 0.003c0.006 0.015 0.623 1.478 0.008 3.345-0.142 0.243-0.239 0.541-0.293 0.874-0.701 2.775-2.108 2.554-2.162 2.543zM41.815 30.821c-0.484-0.165-0.867-0.346-1.148-0.5 0.461-0.164 1.035-0.575 1.504-1.529 0.189 0.898 0.634 1.649 1.194 2.012 0.003 0.002 0.007 0.003 0.010 0.005-0.437 0.124-1.011 0.201-1.561 0.013zM43.355 26.34c0.039-0.009 0.079-0.013 0.12-0.013 0.133 0 0.273 0.047 0.415 0.14 0.442 0.287 0.812 0.938 0.967 1.7v0c0.23 1.125-0.076 2.186-0.667 2.317-0.167 0.038-0.348-0.005-0.535-0.127-0.442-0.287-0.813-0.938-0.968-1.699-0.085-0.415-0.095-0.82-0.047-1.174 0.004-0.014 0.008-0.026 0.012-0.040l-0.005-0.001c0.089-0.586 0.343-1.021 0.708-1.102zM42.145 20.878c0.125-0.075 0.243-0.157 0.357-0.243l2.839 3.324c0.003 0.002 0.279 0.267 0.286 0.57 0.004 0.156-0.065 0.303-0.21 0.447-0.151 0.152-0.339 0.195-0.572 0.131-0.844-0.231-2.026-1.755-2.701-4.229z"></path>
<path d="M30.715 29.23l-0.141 0.778c-0.018 0.1 0.022 0.202 0.103 0.262s0.19 0.069 0.281 0.023l0.703-0.362 0.697 0.375c0.039 0.021 0.083 0.032 0.126 0.032 0.054 0 0.109-0.017 0.155-0.050 0.083-0.059 0.125-0.159 0.109-0.259l-0.126-0.781 0.572-0.546c0.073-0.070 0.1-0.175 0.070-0.273s-0.113-0.168-0.213-0.184l-0.781-0.122-0.343-0.712c-0.044-0.092-0.136-0.15-0.238-0.151-0.113 0.009-0.195 0.055-0.241 0.146l-0.357 0.706-0.783 0.106c-0.1 0.013-0.185 0.083-0.217 0.179s-0.007 0.203 0.065 0.274l0.561 0.558zM31.3 28.623c0.087-0.011 0.163-0.065 0.202-0.144l0.177-0.349 0.17 0.352c0.038 0.079 0.113 0.134 0.199 0.148l0.386 0.060-0.283 0.27c-0.063 0.060-0.093 0.148-0.079 0.235l0.062 0.386-0.344-0.186c-0.039-0.021-0.083-0.032-0.126-0.032-0.042 0-0.084 0.010-0.122 0.029l-0.347 0.179 0.069-0.384c0.016-0.086-0.012-0.175-0.074-0.237l-0.277-0.276 0.387-0.052z"></path>
<path d="M12.697 23.247c-1.94 0-3.519 1.578-3.519 3.519s1.578 3.519 3.519 3.519c1.94 0 3.518-1.578 3.518-3.519s-1.578-3.519-3.518-3.519zM12.697 29.751c-1.646 0-2.986-1.339-2.986-2.986s1.339-2.986 2.986-2.986 2.985 1.339 2.985 2.986-1.339 2.986-2.985 2.986z"></path>
<path d="M23.562 23.247c-1.94 0-3.519 1.578-3.519 3.519s1.578 3.519 3.519 3.519c1.94 0 3.518-1.578 3.518-3.519s-1.578-3.519-3.518-3.519zM23.562 29.751c-1.646 0-2.986-1.339-2.986-2.986s1.339-2.986 2.986-2.986 2.985 1.339 2.985 2.986-1.339 2.986-2.985 2.986z"></path>
<path d="M27.095 23.488l0.421-0.421 0.421 0.421-0.421 0.421-0.421-0.421z"></path>
<path d="M25.908 23.49l0.421-0.421 0.421 0.421-0.421 0.421-0.421-0.421z"></path>
<path d="M26.5 24.085l0.421-0.421 0.421 0.421-0.421 0.421-0.421-0.421z"></path>
<path d="M26.503 22.895l0.421-0.421 0.421 0.421-0.421 0.421-0.421-0.421z"></path>
<path d="M9.256 23.488l0.421-0.421 0.421 0.421-0.421 0.421-0.421-0.421z"></path>
<path d="M8.066 23.488l0.421-0.421 0.421 0.421-0.421 0.421-0.421-0.421z"></path>
<path d="M8.66 24.085l0.421-0.421 0.421 0.421-0.421 0.421-0.421-0.421z"></path>
<path d="M8.66 22.895l0.421-0.421 0.421 0.421-0.421 0.421-0.421-0.421z"></path>
</svg>
