<!-- Generated by IcoMoon.io -->
<svg version="1.1" xmlns="http://www.w3.org/2000/svg" width="53" height="32" viewBox="0 0 53 32">
<title>All_Travel_G1</title>
<path d="M16.92 15.197h1.458v-1.459h-1.458v1.459zM17.406 14.225h0.486v0.486h-0.486v-0.486z"></path>
<path d="M34.663 14.933c-0.666-1.481-2.128-2.436-3.758-2.436-1.639 0-3.087 0.954-3.754 2.436h-3.365v-3.088h-3.31v-1.492c0-0.394-0.321-0.715-0.715-0.715h-4.226c-0.394 0-0.715 0.321-0.715 0.715v1.492h-3.31v2.007h0.014c-0.006 0.046-0.014 0.091-0.014 0.139v13.718c0 0.401 0.222 0.747 0.548 0.933v1.141h0.454c-0.005 0.030-0.018 0.057-0.018 0.087v1.013c0 0.322 0.262 0.583 0.583 0.583h0.067c0.322 0 0.583-0.262 0.583-0.583v-1.013c0-0.031-0.013-0.058-0.018-0.087h0.454v-0.996h5.791v2.679h21.866v-16.533h-7.158zM13.224 30.883c0 0.044-0.035 0.079-0.079 0.079h-0.067c-0.044 0-0.079-0.035-0.079-0.079v-1.013c0-0.043 0.035-0.078 0.079-0.078h0.067c0.044 0 0.079 0.035 0.079 0.078v1.013zM41.289 17.299c-0.955-0.123-1.707-0.876-1.828-1.832h1.828v1.832zM21.63 28.787h1.080c0.018 0 0.036-0.004 0.054-0.005v0.515h-0.49c-0.015-0.001-0.028-0.009-0.044-0.009h-0.067c-0.015 0-0.028 0.007-0.044 0.009h-0.49v-0.51zM22.084 30.883v-1.013c0-0.043 0.035-0.078 0.079-0.078h0.067c0.044 0 0.079 0.035 0.079 0.078v1.013c0 0.044-0.035 0.079-0.079 0.079h-0.067c-0.043 0.001-0.079-0.035-0.079-0.079zM22.813 30.883v-0.879h16.385c-0.145 0.285-0.237 0.597-0.27 0.93h-16.125c0.002-0.017 0.010-0.033 0.010-0.050zM39.557 29.47h-16.308v-0.834c0.32-0.187 0.538-0.531 0.538-0.927v-10.779h15.77c0.084 0.097 0.173 0.186 0.269 0.27v12c-0.097 0.084-0.186 0.173-0.269 0.27zM40.36 17.56c0.285 0.146 0.597 0.238 0.93 0.272v10.736c-0.332 0.034-0.645 0.127-0.93 0.272v-11.28zM30.906 13.030c1.337 0 2.539 0.741 3.16 1.903h-6.322c0.62-1.165 1.817-1.903 3.162-1.903zM38.928 15.467c0.034 0.332 0.125 0.645 0.27 0.93h-15.411v-0.93h15.141zM23.301 15.594h-11.305v-1.604c0-0.326 0.266-0.591 0.591-0.591h10.122c0.326 0 0.591 0.265 0.591 0.591v1.604zM15.307 10.353c0-0.126 0.102-0.229 0.229-0.229h4.226c0.126 0 0.229 0.102 0.229 0.229v1.492h-4.684v-1.492zM23.301 12.331v0.761c-0.17-0.112-0.373-0.179-0.591-0.179h-10.122c-0.219 0-0.421 0.066-0.591 0.179v-0.761h11.305zM11.997 16.081h11.305v11.628c0 0.326-0.265 0.591-0.591 0.591h-10.122c-0.326 0-0.591-0.265-0.591-0.591v-11.628zM13.678 29.297h-0.49c-0.015-0.001-0.028-0.009-0.044-0.009h-0.067c-0.015 0-0.028 0.007-0.044 0.009h-0.49v-0.514c0.015 0.001 0.028 0.004 0.043 0.004h1.090v0.51zM20.489 28.787h0.655v0.996h0.454c-0.005 0.030-0.018 0.057-0.018 0.087v1.013c0 0.018 0.009 0.033 0.010 0.050h-1.101v-2.147zM39.461 30.933c0.122-0.956 0.873-1.709 1.828-1.832v1.832h-1.828z"></path>
<path d="M29.822 21.111h2.133v-2.133h-2.133v2.133zM30.356 19.511h1.067v1.067h-1.067v-1.067z"></path>
<path d="M24.129 25.867h0.533v0.533h-0.533v-0.533z"></path>
<path d="M25.196 26.933h0.533v0.533h-0.533v-0.533z"></path>
<path d="M26.262 28h0.533v0.533h-0.533v-0.533z"></path>
<path d="M24.129 28h0.533v0.533h-0.533v-0.533z"></path>
<path d="M26.262 18.081h0.533v0.533h-0.533v-0.533z"></path>
<path d="M25.196 19.148h0.533v0.533h-0.533v-0.533z"></path>
<path d="M24.129 20.214h0.533v0.533h-0.533v-0.533z"></path>
<path d="M24.129 18.081h0.533v0.533h-0.533v-0.533z"></path>
<path d="M34.99 28h0.533v0.533h-0.533v-0.533z"></path>
<path d="M36.057 26.933h0.533v0.533h-0.533v-0.533z"></path>
<path d="M37.123 25.867h0.533v0.533h-0.533v-0.533z"></path>
<path d="M38.19 24.8h0.533v0.533h-0.533v-0.533z"></path>
<path d="M37.123 28h0.533v0.533h-0.533v-0.533z"></path>
<path d="M38.19 26.933h0.533v0.533h-0.533v-0.533z"></path>
<path d="M38.19 21.281h0.533v0.533h-0.533v-0.533z"></path>
<path d="M37.123 20.214h0.533v0.533h-0.533v-0.533z"></path>
<path d="M36.057 19.148h0.533v0.533h-0.533v-0.533z"></path>
<path d="M34.99 18.081h0.533v0.533h-0.533v-0.533z"></path>
<path d="M38.19 19.148h0.533v0.533h-0.533v-0.533z"></path>
<path d="M37.123 18.081h0.533v0.533h-0.533v-0.533z"></path>
</svg>
