<!-- Generated by IcoMoon.io -->
<svg version="1.1" xmlns="http://www.w3.org/2000/svg" width="53" height="32" viewBox="0 0 53 32">
<title>All_Accessories_Men</title>
<path d="M12.381 19.187c0.508 0 0.922-0.354 0.922-0.788s-0.413-0.788-0.922-0.788c-0.508 0-0.922 0.354-0.922 0.788s0.414 0.788 0.922 0.788zM12.381 18.145c0.229 0 0.388 0.134 0.388 0.254s-0.159 0.254-0.388 0.254c-0.229 0-0.389-0.134-0.389-0.254s0.159-0.254 0.389-0.254z"></path>
<path d="M14.106 17.196c0.083 0 0.156-0.027 0.209-0.082 0.145-0.151 0.083-0.461-0.138-0.691-0.14-0.146-0.311-0.226-0.454-0.226-0.083 0-0.156 0.027-0.209 0.082-0.145 0.151-0.083 0.461 0.138 0.691 0.14 0.146 0.311 0.226 0.454 0.226z"></path>
<path d="M10.525 17.196c0.143 0 0.314-0.079 0.454-0.226 0.221-0.23 0.283-0.54 0.138-0.691-0.053-0.055-0.126-0.082-0.209-0.082-0.143 0-0.314 0.079-0.454 0.226-0.221 0.23-0.283 0.54-0.138 0.691 0.053 0.055 0.126 0.082 0.209 0.082z"></path>
<path d="M11.711 24.813l0.539 0.517 0.539-0.517-0.539-0.518z"></path>
<path d="M14.389 23.213l-0.539-0.518-0.539 0.518 0.539 0.517z"></path>
<path d="M14.389 26.413l-0.539-0.518-0.539 0.518 0.539 0.517z"></path>
<path d="M10.111 26.413l0.539 0.517 0.539-0.517-0.539-0.518z"></path>
<path d="M10.111 23.213l0.539 0.517 0.539-0.517-0.539-0.518z"></path>
<path d="M37.188 25.956l-0.491-0.471-0.491 0.471 0.491 0.472z"></path>
<path d="M37.188 28.859l-0.491-0.472-0.491 0.472 0.491 0.471z"></path>
<path d="M38.646 24.499l-0.491-0.472-0.491 0.472 0.491 0.471z"></path>
<path d="M38.646 27.414l-0.491-0.471-0.491 0.471 0.491 0.472z"></path>
<path d="M35.73 27.414l-0.491-0.471-0.491 0.471 0.491 0.472z"></path>
<path d="M35.73 24.499l-0.491-0.472-0.491 0.472 0.491 0.471z"></path>
<path d="M37.188 23.078l-0.491-0.471-0.491 0.471 0.491 0.471z"></path>
<path d="M33.328 23.078l0.491 0.471 0.491-0.471-0.491-0.471z"></path>
<path d="M35.73 21.62l-0.491-0.471-0.491 0.471 0.491 0.471z"></path>
<path d="M47.317 27.829c-0.042-0.097-0.138-0.16-0.244-0.16h-6.52c-0.667-5.524-4.907-8.223-8.871-8.441-0.164-0.009-0.329-0.009-0.493-0.007-0.117-0.276-0.556-0.42-1.039-0.324-0.413 0.082-0.728 0.315-0.814 0.568-0.5 0.128-0.977 0.319-1.438 0.541v-5.414l-0.087-0.079c-0.131-0.118-0.262-0.206-0.391-0.277l-0.524-1.62c-0.035-0.11-0.138-0.185-0.254-0.185h-3.936c-0.080 0-0.156 0.036-0.207 0.099-0.081 0.1-0.155 0.153-0.213 0.153-0.067-0.004-0.147-0.090-0.171-0.127-0.049-0.077-0.134-0.124-0.225-0.124h-3.936c-0.116 0-0.218 0.075-0.254 0.185l-0.5 1.547c-0.174 0.078-0.355 0.187-0.534 0.35l-0.087 0.079v7.227l-1.309-1.534c0.613-0.613 0.987-1.413 0.987-2.291 0-0.982-0.468-1.869-1.217-2.503 0.419-0.7 0.847-2.676 0.878-2.875 0.322-2.055-0.366-2.729-0.998-2.932-0.524-0.167-1.003-0.084-1.388 0.242-1.049 0.892-1.139 3.334-1.014 4.594-0.079-0.004-0.157-0.011-0.237-0.011-0.019 0-0.037 0.002-0.055 0.003 0.124-1.261 0.032-3.695-1.014-4.586-0.385-0.326-0.865-0.41-1.388-0.242-0.633 0.203-1.32 0.876-0.998 2.932 0.030 0.19 0.423 2.003 0.824 2.774-0.821 0.639-1.343 1.568-1.343 2.604 0 0.867 0.365 1.658 0.964 2.268l-2.815 3.302c-0.018 0.017-0.448 0.413-0.46 0.952-0.007 0.306 0.116 0.588 0.366 0.837 0.208 0.208 0.468 0.315 0.754 0.315 0.109 0 0.222-0.015 0.337-0.047 0.499-0.137 1.011-0.559 1.486-1.182-0.025 0.416-0.007 0.898 0.093 1.428-0.042-0.015-0.079-0.039-0.123-0.049-0.308-0.069-0.634 0.001-0.941 0.2-0.566 0.367-1.015 1.13-1.201 2.041-0.287 1.409 0.153 2.66 0.999 2.915v0c0.046 0.026 0.871 0.493 1.855 0.493 0.286 0 0.587-0.039 0.884-0.141 0.919-0.314 1.497-0.677 1.754-0.859 0.256 0.182 0.834 0.546 1.754 0.859 0.298 0.101 0.597 0.141 0.884 0.141 0.984 0 1.81-0.467 1.854-0.492v0c0.147-0.044 0.276-0.128 0.397-0.228 1.087 0.553 3.506 0.72 5.094 0.72 0.354 0 0.751-0.009 1.164-0.028 0.029 0.011 0.055 0.028 0.087 0.028h10.794c0.044 0 0.088-0.011 0.127-0.033l0.066-0.035c9.65-0.010 12.67-3.148 12.795-3.282 0.071-0.077 0.091-0.19 0.048-0.287zM18.54 14.456c0.916-0.657 1.74-0.195 2.006-0.006v4.58h-2.006v-4.574zM21.079 14.439c0.14-0.109 0.505-0.327 1.174-0.327s1.013 0.218 1.14 0.322v4.598h-2.315v-4.592zM23.927 14.45c0.267-0.189 1.090-0.651 2.006 0.006v4.575h-2.006v-4.581zM26.467 14.541c0.2-0.016 0.541 0.011 0.897 0.293v4.197h-0.897v-4.49zM18.147 12.965h3.615c0.098 0.104 0.265 0.236 0.491 0.25 0.145 0.006 0.354-0.031 0.571-0.25h3.623l0.342 1.059c-0.221-0.029-0.407-0.014-0.527 0.007-1.022-0.746-2.048-0.422-2.591-0.055-0.233-0.169-0.685-0.398-1.417-0.398-0.741 0-1.208 0.234-1.447 0.401-0.542-0.368-1.57-0.696-2.595 0.052-0.097-0.018-0.238-0.031-0.403-0.021l0.338-1.045zM18.007 14.541v4.489h-0.897v-4.197c0.356-0.281 0.697-0.308 0.897-0.292zM17.705 23.959c0.003 0.002 0.279 0.267 0.286 0.57 0.004 0.156-0.065 0.303-0.21 0.447-0.151 0.152-0.339 0.195-0.572 0.131-0.845-0.231-2.026-1.755-2.701-4.229 0.125-0.075 0.243-0.157 0.357-0.243l2.839 3.324zM15.583 24.439c0.32 0.419 0.657 0.737 0.994 0.949v0.655c-0.011-0.007-0.021-0.018-0.033-0.025-0.307-0.199-0.631-0.269-0.941-0.2-0.040 0.009-0.075 0.031-0.113 0.044 0.1-0.529 0.117-1.009 0.093-1.424zM13.878 10.333c0.243-0.206 0.531-0.252 0.879-0.14 0.274 0.088 0.463 0.279 0.579 0.584 0.464 1.225-0.426 3.76-0.716 4.407-0.457-0.293-0.985-0.505-1.56-0.605-0.147-1.235-0.009-3.543 0.818-4.245zM9.407 10.777c0.116-0.305 0.305-0.496 0.579-0.584 0.348-0.112 0.636-0.066 0.879 0.14 0.82 0.698 0.962 2.98 0.82 4.221-0.585 0.078-1.13 0.264-1.603 0.54-0.323-0.772-1.12-3.146-0.676-4.317zM8.839 17.995c0-1.627 1.544-2.951 3.442-2.951s3.442 1.324 3.442 2.951-1.544 2.951-3.442 2.951-3.442-1.324-3.442-2.951zM7.309 25.108c-0.23 0.065-0.42 0.022-0.572-0.131-0.144-0.144-0.212-0.29-0.21-0.445 0.006-0.309 0.284-0.571 0.309-0.597l2.833-3.319c0.11 0.085 0.226 0.165 0.347 0.239-0.674 2.489-1.86 4.021-2.708 4.253zM8.49 30.356c-0.187 0.122-0.369 0.164-0.535 0.127-0.591-0.131-0.897-1.192-0.667-2.317 0.155-0.762 0.526-1.413 0.968-1.7 0.188-0.122 0.367-0.165 0.535-0.126 0.365 0.081 0.619 0.517 0.708 1.101l-0.005 0.001c0.004 0.014 0.008 0.025 0.011 0.038 0.049 0.354 0.037 0.761-0.047 1.176-0.155 0.762-0.525 1.412-0.967 1.699zM10.329 30.821c-0.547 0.187-1.12 0.11-1.558-0.013 0.003-0.002 0.006-0.002 0.009-0.004 0.56-0.364 1.004-1.115 1.193-2.012 0.469 0.955 1.043 1.366 1.503 1.53-0.281 0.154-0.663 0.334-1.147 0.5zM12.327 29.886c-0.033-0.007-0.066-0.006-0.098-0.001-0.015 0-0.030-0.002-0.046 0.001-0.057 0.012-1.465 0.233-2.165-2.543-0.050-0.309-0.141-0.586-0.268-0.819l0.001-0.001c-0.645-1.892-0.014-3.383-0.009-3.398l-0.006-0.003c0.297-0.602 0.557-1.284 0.763-2.017 0.537 0.237 1.14 0.373 1.78 0.373 0.626 0 1.215-0.131 1.742-0.357 0.205 0.727 0.465 1.403 0.759 2.001l-0.006 0.003c0.006 0.015 0.623 1.478 0.008 3.345-0.142 0.243-0.239 0.541-0.293 0.874-0.701 2.775-2.108 2.554-2.163 2.543zM14.18 30.821c-0.484-0.165-0.867-0.346-1.148-0.5 0.461-0.164 1.035-0.575 1.504-1.529 0.189 0.898 0.634 1.649 1.194 2.012 0.003 0.002 0.007 0.003 0.010 0.005-0.437 0.124-1.011 0.201-1.561 0.013zM16.555 30.483c-0.167 0.038-0.348-0.005-0.535-0.127-0.442-0.287-0.813-0.938-0.968-1.699-0.085-0.415-0.095-0.82-0.047-1.174 0.004-0.014 0.008-0.026 0.012-0.040l-0.005-0.001c0.089-0.585 0.343-1.021 0.708-1.101 0.039-0.009 0.079-0.013 0.12-0.013 0.133 0 0.273 0.047 0.415 0.14 0.442 0.287 0.812 0.938 0.967 1.7v0c0.23 1.124-0.076 2.185-0.667 2.316zM17.493 30.335c0.322-0.553 0.434-1.381 0.252-2.276-0.118-0.578-0.342-1.094-0.635-1.49v-0.941c0.1 0.025 0.2 0.042 0.295 0.042 0.22 0 0.424-0.065 0.602-0.189v2.442l0.207 0.047c1.057 0.241 2.492 0.373 4.039 0.373 1.53 0 2.952-0.13 4.004-0.365l0.209-0.047v-7.581h-8.46v3.146l-0.897-1.051v-2.88h10.253l0.001 10.512c-0.092 0.3-1.934 0.858-5.127 0.858-2.407 0-4.044-0.317-4.743-0.598zM18.54 27.494v-6.611h7.393v6.618c-0.984 0.197-2.308 0.308-3.679 0.308-1.388 0.001-2.725-0.114-3.714-0.315zM26.867 30.933c0.619-0.206 1.030-0.482 1.030-0.851v-9.497c0.519-0.269 1.067-0.483 1.641-0.623 0.202 0.125 0.514 0.172 0.845 0.106 0.014-0.003 0.026-0.007 0.039-0.011 3.46 4.037 3.722 9.757 3.739 10.876h-7.294zM34.967 30.526l-0.279 0.151c-0.026-0.782-0.145-2.495-0.664-4.515l0.215-0.206-0.372-0.357c-0.333-1.157-0.8-2.383-1.454-3.574l0.069 0.067 0.491-0.471-0.491-0.471-0.371 0.356c-0.347-0.574-0.741-1.132-1.187-1.667 0.037-0.027 0.073-0.055 0.104-0.084 0.207-0.006 0.416-0.005 0.625 0.006 0.667 0.037 1.342 0.151 2.006 0.339l-0.33 0.317 0.491 0.471 0.491-0.471-0.17-0.163c2.309 0.791 4.398 2.532 5.38 5.307l-0.412 0.396 0.491 0.471 0.146-0.14c0.126 0.475 0.231 0.97 0.292 1.499l-4.442 2.401-0.356-0.342-0.491 0.471 0.218 0.211zM35.494 30.848l4.895-2.645h5.935c-1.165 0.817-4.329 2.478-10.83 2.645z"></path>
</svg>
