<!-- Generated by IcoMoon.io -->
<svg version="1.1" xmlns="http://www.w3.org/2000/svg" width="53" height="32" viewBox="0 0 53 32">
<title>Belts_G1</title>
<path d="M35.618 24.691c-0.050 0-0.095 0.019-0.135 0.043v-2.409c0-0.147-0.119-0.267-0.267-0.267v-3.575c0-0.1-0.056-0.192-0.145-0.237-0.057-0.029-0.121-0.028-0.181-0.014v-1.445l-0.001-0.004v-0.144c-0.112-1.454-4.446-2.431-8.422-2.431-0.977 0-1.93 0.017-2.832 0.050-0.143 0.005-0.257 0.123-0.257 0.267v1.284c-5.331 0.203-5.335 0.725-5.335 0.979v2.485c-0.056-0.013-0.114-0.013-0.169 0.011-0.096 0.043-0.157 0.138-0.157 0.243v2.531c-0.147 0-0.267 0.119-0.267 0.267v4.825c0 0.249 0.004 0.827 5.848 1.036l-0.132 2.211-0.426 0.628c-0.055 0.082-0.061 0.187-0.014 0.275s0.137 0.142 0.235 0.142h2.109c0.095 0 0.184-0.051 0.231-0.134s0.047-0.185-0.001-0.267l-0.36-0.618 0.060-1.185 1.091 2.087c0.047 0.087 0.138 0.143 0.237 0.143s0.19-0.055 0.236-0.143l1.155-2.206 0.143 1.331-0.351 0.59c-0.049 0.082-0.050 0.185-0.003 0.268s0.136 0.135 0.232 0.135h2.232c0.097 0 0.186-0.053 0.233-0.137s0.045-0.188-0.006-0.27l-0.134-0.217c5.813-0.209 5.821-0.806 5.821-1.035v-4.826c-0.001-0.147-0.119-0.266-0.267-0.266zM23.91 16.55v-1.769c0.819-0.027 1.677-0.041 2.555-0.041 4.491 0 7.831 1.158 7.89 1.918v0.035c-0.455 0.258-3.339 0.596-7.89 0.596-0.923 0-1.775-0.014-2.555-0.039v-0.7zM23.377 16.342v0.89c-2.319-0.090-3.902-0.273-4.547-0.444 0.589-0.156 2.031-0.347 4.547-0.445zM18.575 17.219c1.505 0.536 5.819 0.604 7.89 0.604s6.385-0.068 7.89-0.604v1.315c-3.473 1.878-13.445 1.781-15.78 0.997v-2.312zM18.249 19.964c2.508 0.94 12.745 1.075 16.433-0.996v3.371c-0.949 0.259-3.876 0.544-8.217 0.544s-7.268-0.285-8.217-0.544v-2.375zM23.221 25.451l0.213 0.444-0.105 1.757c-3.401-0.123-5.021-0.406-5.347-0.587v-4.298c1.578 0.576 6.25 0.649 8.483 0.649s6.906-0.073 8.483-0.649v2.234c-0.742 0.173-2.414 0.377-5.222 0.468 0.047-0.081 0.051-0.179 0.006-0.261-0.046-0.086-0.137-0.139-0.234-0.139h-1.685c-0.102 0-0.196 0.059-0.241 0.152l-1.122 2.354-1.107-2.353c-0.044-0.093-0.138-0.153-0.241-0.153h-1.641c-0.092 0-0.177 0.047-0.226 0.124-0.049 0.078-0.054 0.175-0.015 0.258zM28.208 30.909l0.157-0.264c0.030-0.050 0.042-0.107 0.036-0.165l-0.245-2.294c-0.012-0.117-0.1-0.212-0.215-0.234s-0.232 0.034-0.286 0.139l-1.326 2.534-1.308-2.502c-0.056-0.107-0.174-0.163-0.294-0.137-0.117 0.026-0.203 0.127-0.209 0.247l-0.113 2.241c-0.003 0.052 0.010 0.103 0.036 0.148l0.166 0.286h-1.142l0.185-0.273c0.027-0.039 0.043-0.086 0.045-0.133l0.277-4.644c0.003-0.045-0.006-0.090-0.026-0.131l-0.060-0.124h1.049l1.275 2.709c0.044 0.093 0.138 0.153 0.241 0.153h0.001c0.102 0 0.196-0.059 0.241-0.152l1.292-2.71h1.029l-0.121 0.188c-0.033 0.051-0.047 0.11-0.041 0.17l0.443 4.574c0.004 0.041 0.017 0.080 0.039 0.115l0.161 0.26h-1.285zM30.411 30.27c-0.196 0.008-0.398 0.015-0.606 0.022l-0.414-4.278c0.359-0.010 0.701-0.021 1.021-0.034v4.289zM33.316 30.071c-0.634 0.066-1.42 0.127-2.371 0.175v-4.288c0.967-0.045 1.746-0.103 2.371-0.167v4.281zM35.351 29.699c-0.161 0.088-0.648 0.202-1.501 0.31v-4.281c0.731-0.094 1.202-0.199 1.501-0.302v4.273z"></path>
</svg>
