<!-- Generated by IcoMoon.io -->
<svg version="1.1" xmlns="http://www.w3.org/2000/svg" width="53" height="32" viewBox="0 0 53 32">
<title>Belt_Bag_G2</title>
<path d="M37.001 23.177l0.013-0.023-8.321-4.804 7.857-4.537-1.013-1.755-8.87 5.122-8.87-5.121-1.013 1.755 7.857 4.537-8.321 4.804 0.013 0.023h-0.147v2.608l3.167 0.939 1.734 3.731c0.286 0.614 0.909 1.011 1.587 1.011h7.985c0.678 0 1.301-0.397 1.587-1.012l1.734-3.731 3.167-0.939v-2.608h-0.147zM35.988 23.177h-1.921l-6.867-3.965 0.961-0.555 7.828 4.519zM20.333 23.177l6.334-3.658 6.334 3.657h-12.668zM31.813 23.71c-0.748 1.489-2.061 1.389-2.146 1.381l-5.581 0.001c-0.015 0.002-1.361 0.119-2.118-1.383h9.844zM35.822 13.619l-1.361 0.786-0.478-0.833 1.358-0.785 0.481 0.832zM17.511 13.619l0.48-0.832 8.142 4.701-0.961 0.555-7.662-4.423zM33.522 13.838l0.478 0.833-14.733 8.506h-1.921l16.176-9.339zM36.614 25.387l-3.016 0.894-1.836 3.949c-0.198 0.427-0.631 0.703-1.102 0.703h-7.985c-0.471 0-0.905-0.276-1.103-0.703l-1.836-3.949-3.016-0.894v-1.676h4.665c0.761 1.788 2.242 1.918 2.633 1.918 0.063 0 0.098-0.003 0.097-0.003l5.526-0.001c0.003 0 0.042 0.004 0.111 0.004 0.415 0 1.888-0.135 2.647-1.917h4.217v1.676z"></path>
<path d="M25.6 29.456h2.133v-2.133h-2.133v2.133zM26.133 27.856h1.067v1.067h-1.067v-1.067z"></path>
</svg>
