<!-- Generated by IcoMoon.io -->
<svg version="1.1" xmlns="http://www.w3.org/2000/svg" width="53" height="32" viewBox="0 0 53 32">
<title>Belts_1</title>
<path d="M35.417 25.551h-0.257v-3.279c0-0.147-0.119-0.267-0.267-0.267h-0.093v-2.654c0.047-0.136-0.020-0.286-0.156-0.338l-13.366-5.060c-0.137-0.051-0.291 0.017-0.344 0.155l-1.575 4.159c-0.025 0.066-0.023 0.14 0.006 0.204s0.083 0.115 0.149 0.14l1.139 0.431h-2.025c-0.147 0-0.267 0.119-0.267 0.267v2.695h-0.018c-0.147 0-0.267 0.119-0.267 0.267v3.279h-0.16c-0.147 0-0.267 0.119-0.267 0.267v4.9c0 0.147 0.119 0.267 0.267 0.267h5.003l-0.027 0.040c-0.055 0.082-0.061 0.188-0.014 0.275s0.137 0.142 0.235 0.142h2.109c0.095 0 0.184-0.051 0.231-0.134s0.047-0.185-0.001-0.267l-0.032-0.055h0.646l0.177 0.339c0.047 0.087 0.138 0.142 0.237 0.142s0.19-0.055 0.236-0.143l0.178-0.339h0.801l-0.033 0.055c-0.049 0.083-0.050 0.185-0.003 0.268s0.136 0.135 0.232 0.135h2.232c0.097 0 0.186-0.053 0.233-0.137s0.045-0.188-0.006-0.27l-0.031-0.051h5.098c0.147 0 0.267-0.119 0.267-0.267v-4.9c-0.001-0.147-0.119-0.266-0.267-0.266zM19.951 18.207l1.387-3.66 11.876 4.497h-11.055l-2.208-0.836zM18.894 19.576h15.372v2.429h-15.372v-2.429zM18.61 22.538h16.016v3.013h-4.796l0.045-0.071c0.053-0.082 0.056-0.187 0.010-0.272s-0.137-0.139-0.234-0.139h-1.685c-0.102 0-0.196 0.059-0.241 0.152l-0.157 0.33h-1.918l-0.155-0.329c-0.044-0.094-0.138-0.153-0.241-0.153h-1.641c-0.092 0-0.177 0.047-0.226 0.124s-0.055 0.175-0.014 0.258l0.048 0.1h-4.811v-3.012zM27.314 26.084l-0.71 1.49-0.702-1.49h1.412zM18.183 30.451v-4.367h5.392l-0.258 4.311-0.037 0.055h-5.097zM25.11 30.451l-0.017-0.030 0.060-1.185 0.635 1.214h-0.678zM27.173 30.451l0.698-1.334 0.143 1.331-0.002 0.003h-0.839zM28.361 30.909l0.157-0.265c0.030-0.050 0.042-0.107 0.036-0.165l-0.245-2.293c-0.012-0.117-0.1-0.212-0.215-0.234-0.113-0.019-0.231 0.034-0.286 0.139l-1.326 2.534-1.308-2.502c-0.056-0.107-0.174-0.163-0.294-0.137-0.117 0.026-0.203 0.127-0.209 0.247l-0.113 2.241c-0.003 0.052 0.010 0.103 0.036 0.148l0.166 0.286h-1.143l0.185-0.273c0.027-0.039 0.043-0.086 0.045-0.134l0.277-4.643c0.003-0.045-0.006-0.090-0.026-0.131l-0.059-0.123h1.048l1.276 2.708c0.044 0.093 0.138 0.153 0.241 0.153h0.001c0.102 0 0.196-0.059 0.241-0.152l1.292-2.709h1.029l-0.121 0.188c-0.033 0.051-0.047 0.11-0.041 0.17l0.443 4.573c0.004 0.041 0.017 0.080 0.039 0.115l0.161 0.261h-1.285zM35.15 30.451h-5.161l-0.019-0.031-0.42-4.336h5.6v4.367z"></path>
</svg>
