<!-- Generated by IcoMoon.io -->
<svg version="1.1" xmlns="http://www.w3.org/2000/svg" width="53" height="32" viewBox="0 0 53 32">
<title>Belt_Bag_G1</title>
<path d="M37.001 23.177l0.013-0.022-8.321-4.804 7.858-4.537-1.013-1.755-8.87 5.122-8.87-5.122-1.013 1.755 7.858 4.537-8.321 4.804 0.013 0.022h-0.146v2.608l3.167 0.939 1.735 3.732c0.285 0.614 0.908 1.012 1.586 1.012h7.985c0.678 0 1.3-0.397 1.587-1.012l1.735-3.732 3.167-0.939v-2.608h-0.147zM35.342 12.787l0.48 0.832-1.361 0.786-0.478-0.833 1.358-0.785zM33.522 13.838l0.478 0.833-5.84 3.371-0.96-0.554 6.322-3.65zM17.511 13.619l0.48-0.832 17.995 10.389h-1.921l-16.555-9.557zM20.333 23.177l6.333-3.657 6.333 3.657h-12.667zM31.813 23.71c-0.748 1.49-2.062 1.39-2.146 1.382l-5.581 0.002c-0.014 0.001-1.361 0.117-2.118-1.383h9.845zM25.173 18.658l0.961 0.555-6.867 3.964h-1.921l7.827-4.519zM36.614 25.387l-3.015 0.894-1.836 3.949c-0.199 0.427-0.632 0.703-1.103 0.703h-7.985c-0.471 0-0.904-0.276-1.103-0.703l-1.836-3.949-3.016-0.894v-1.677h4.664c0.762 1.788 2.242 1.918 2.634 1.918 0.062 0 0.098-0.003 0.097-0.003l5.526-0.002c0.003 0.001 0.042 0.004 0.11 0.004 0.415 0 1.888-0.135 2.647-1.918h4.217v1.677z"></path>
<path d="M25.6 29.456h2.133v-2.133h-2.133v2.133zM26.133 27.856h1.067v1.067h-1.067v-1.067z"></path>
</svg>
