<?xml version="1.0" encoding="utf-8"?>
<!-- Generator: Adobe Illustrator 22.1.0, SVG Export Plug-In . SVG Version: 6.00 Build 0)  -->
<svg version="1.1" id="Layer_1" xmlns="http://www.w3.org/2000/svg" xmlns:xlink="http://www.w3.org/1999/xlink" x="0px" y="0px"
	 viewBox="0 0 100 60" style="enable-background:new 0 0 100 60;" xml:space="preserve">
<style type="text/css">
	.st0{fill:#FFFFFF;}
</style>
<g>
	<path d="M59.5,36c1,0,1.7-0.7,1.7-1.5S60.4,33,59.5,33s-1.7,0.7-1.7,1.5S58.5,36,59.5,36z M59.5,34c0.4,0,0.7,0.3,0.7,0.5
		S59.9,35,59.5,35s-0.7-0.3-0.7-0.5S59,34,59.5,34z"/>
	<path d="M62.7,32.2c0.2,0,0.3,0,0.4-0.2c0.3-0.3,0.2-0.9-0.3-1.3c-0.3-0.3-0.6-0.4-0.9-0.4c-0.2,0-0.3,0-0.4,0.2
		c-0.3,0.3-0.2,0.9,0.3,1.3C62.1,32.1,62.4,32.2,62.7,32.2z"/>
	<path d="M56,32.2c0.3,0,0.6-0.1,0.9-0.4c0.4-0.4,0.5-1,0.3-1.3c-0.1-0.1-0.2-0.2-0.4-0.2c-0.3,0-0.6,0.1-0.9,0.4
		c-0.4,0.4-0.5,1-0.3,1.3C55.7,32.2,55.8,32.2,56,32.2z"/>
	<path d="M67.7,40.6c-1.6-1.3-2.4-2.3-2.7-2.7c1.1-1.1,1.7-2.6,1.7-4.2c0-1.8-0.9-3.5-2.3-4.7c0.8-1.3,1.6-5,1.6-5.4
		c0.6-3.9-0.7-5.1-1.9-5.5c-1-0.3-1.9-0.2-2.6,0.5c-2,1.7-2.1,6.3-1.9,8.6c-0.1,0-0.3,0-0.4,0c0,0-0.1,0-0.1,0
		c0.2-2.4,0.1-6.9-1.9-8.6c-0.7-0.6-1.6-0.8-2.6-0.5c-1.2,0.4-2.5,1.6-1.9,5.5c0.1,0.4,0.8,3.8,1.5,5.2c-1.5,1.2-2.5,2.9-2.5,4.9
		c0,1.6,0.7,3.1,1.8,4.3c-0.4,0.5-1.2,1.4-2.7,2.6c-2.1,1.7-5.9,6.5-3.5,9.9c0.4,0.6,0.9,0.9,1.5,0.9c0.1,0,0.1,0,0.2,0
		c0.1,0,0.1,0,0.2-0.1c-0.2,0.4-0.3,0.8-0.4,1.3c-0.5,2.6,0.3,5,1.9,5.5l0,0c0.1,0,1.6,0.9,3.5,0.9c0.5,0,1.1-0.1,1.7-0.3
		c1.7-0.6,2.8-1.3,3.3-1.6c0.5,0.3,1.6,1,3.3,1.6c0.6,0.2,1.1,0.3,1.7,0.3c1.8,0,3.4-0.9,3.5-0.9l0,0c1.6-0.5,2.4-2.8,1.9-5.5
		c-0.1-0.5-0.2-0.9-0.4-1.4c0.2,0.1,0.3,0.1,0.5,0.2c0.1,0,0.1,0,0.2,0c0.5,0,1-0.3,1.5-0.9C73.6,47.1,69.8,42.3,67.7,40.6z
		 M62.3,19.4c0.5-0.4,1-0.5,1.6-0.3c0.5,0.2,0.9,0.5,1.1,1.1c0.9,2.3-0.8,7.1-1.3,8.3c-0.9-0.5-1.8-0.9-2.9-1.1
		C60.5,25,60.7,20.7,62.3,19.4z M53.9,20.2c0.2-0.6,0.6-0.9,1.1-1.1c0.7-0.2,1.2-0.1,1.6,0.3c1.5,1.3,1.8,5.6,1.5,7.9
		c-1.1,0.1-2.1,0.5-3,1C54.5,26.9,53,22.4,53.9,20.2z M52.8,33.7c0-3.1,2.9-5.5,6.5-5.5s6.5,2.5,6.5,5.5s-2.9,5.5-6.5,5.5
		S52.8,36.8,52.8,33.7z M63.4,51.3c-1.3,5.2-3.9,4.8-4.1,4.8c0,0-0.1,0-0.1,0c0,0,0,0,0,0c0,0,0,0-0.1,0c0,0-0.1,0-0.1,0
		c-0.1,0-2.7,0.4-4.1-4.8c-0.2-1.5-1-2.6-2.1-2.9c-0.4-0.1-0.8,0-1.3,0.1c0.2-0.5,0.5-1,0.7-1.6c0.2-0.5,0.4-1,0.5-1.2
		c0.5-0.7,0.7-1.5,0.8-2.3c0.2-1.2,0.5-2.5,1.9-4c1.1,0.5,2.3,0.8,3.7,0.8c1.4,0,2.7-0.3,3.8-0.9c1.4,1.6,1.7,2.9,1.9,4.1
		c0.2,0.8,0.3,1.6,0.8,2.3c0.1,0.2,0.3,0.7,0.5,1.2c0.3,0.6,0.5,1.2,0.8,1.8c-0.5-0.3-1.1-0.4-1.6-0.3
		C64.4,48.7,63.7,49.8,63.4,51.3z M49,50.4c-0.3,0-0.5-0.3-0.7-0.5c-1.9-2.6,1.2-6.8,3.3-8.5c1.5-1.2,2.4-2.2,2.8-2.7
		c0.1,0.1,0.2,0.2,0.4,0.3c-1.4,1.7-1.7,3.2-2,4.3c-0.1,0.7-0.3,1.4-0.7,1.9c-0.2,0.2-0.4,0.7-0.7,1.4C50.9,47.8,49.9,50.3,49,50.4z
		 M49.9,52.8c0.3-1.4,1-2.6,1.8-3.2c0.3-0.2,0.5-0.3,0.8-0.3c0.1,0,0.2,0,0.2,0c0.7,0.2,1.2,1,1.3,2.1l0,0c0,0,0,0,0,0.1
		c0.1,0.7,0.1,1.4-0.1,2.2c-0.3,1.4-1,2.6-1.8,3.2c-0.4,0.2-0.7,0.3-1,0.2C50,56.9,49.5,54.9,49.9,52.8z M55.6,57.8
		c-1,0.3-2.1,0.2-2.9,0c0,0,0,0,0,0c1-0.7,1.9-2.1,2.2-3.8c0.9,1.8,2,2.6,2.8,2.9C57.2,57.1,56.5,57.5,55.6,57.8z M62.8,57.8
		c-0.9-0.3-1.6-0.6-2.2-0.9c0.9-0.3,1.9-1.1,2.8-2.9c0.4,1.7,1.2,3.1,2.2,3.8c0,0,0,0,0,0C64.9,58,63.9,58.1,62.8,57.8z M67.3,57.2
		c-0.3,0.1-0.7,0-1-0.2c-0.8-0.5-1.5-1.8-1.8-3.2c-0.2-0.8-0.2-1.5-0.1-2.2c0,0,0,0,0-0.1l0,0c0.2-1.1,0.6-1.9,1.3-2.1
		c0.1,0,0.1,0,0.2,0c0.2,0,0.5,0.1,0.8,0.3c0.8,0.5,1.5,1.8,1.8,3.2C69,54.9,68.4,56.9,67.3,57.2z M70.4,49.9
		c-0.2,0.2-0.4,0.5-0.7,0.5c-0.9-0.1-2-2.6-2.5-3.9c-0.3-0.7-0.5-1.1-0.7-1.4c-0.4-0.5-0.5-1.2-0.7-1.9c-0.2-1.2-0.5-2.7-2-4.4
		c0.1-0.1,0.2-0.2,0.4-0.3c0.4,0.5,1.3,1.5,2.8,2.8C69.2,43.1,72.3,47.3,70.4,49.9z"/>
	<polygon points="53,53.3 51.9,52.3 50.9,53.3 51.9,54.2 	"/>
	<polygon points="65.5,53.3 66.5,54.2 67.5,53.3 66.5,52.3 	"/>
</g>
<g>
	<path class="st0" d="M41.1,51c0.7,1.9,0.2,4-1.1,5.4c-0.6,0.6-1.3,1.1-2.2,1.4c-2.8,1-5.9-0.5-6.8-3.3c-1-2.8,0.5-5.9,3.3-6.8
		c1.4-0.5,2.9-0.4,4.1,0.2C39.6,48.5,40.6,49.6,41.1,51z"/>
	<path d="M36,58.6c-2.4,0-4.7-1.5-5.5-3.9c-1.1-3.1,0.6-6.4,3.6-7.5c1.5-0.5,3.1-0.4,4.5,0.3c1.4,0.7,2.5,1.9,3,3.4l0,0
		c0.7,2.1,0.2,4.3-1.2,5.9c-0.6,0.7-1.5,1.2-2.4,1.5C37.3,58.5,36.6,58.6,36,58.6z M36,47.9c-0.5,0-1.1,0.1-1.6,0.3
		c-2.5,0.9-3.9,3.7-3,6.2c0.9,2.5,3.7,3.9,6.2,3c0.8-0.3,1.4-0.7,2-1.3c1.2-1.3,1.6-3.2,1-4.9c-0.4-1.2-1.3-2.2-2.5-2.8
		C37.4,48,36.7,47.9,36,47.9z"/>
</g>
<path d="M43.6,57.9c-2.4,0-3.5-1.5-3.6-1.5l0.8-0.6c0,0.1,1.2,1.7,4.2,0.9c2.8-0.7,3.6-2.8,3.6-2.9l0.9,0.3c0,0.1-0.9,2.7-4.3,3.5
	C44.7,57.8,44.1,57.9,43.6,57.9z"/>
</svg>
