<!-- Generated by IcoMoon.io -->
<svg version="1.1" xmlns="http://www.w3.org/2000/svg" width="53" height="32" viewBox="0 0 53 32">
<title>Crossbody_Wallets</title>
<path d="M26.921 27.289h-1.067v0.533h1.6v-0.533z"></path>
<path d="M39.142 18.7c-0.252-0.695-1.203-0.883-2.305-1.101-1.145-0.227-2.442-0.484-2.833-1.359-0.321-0.718-0.029-1.847 0.867-3.355 1.546-2.603 0.838-4.379-0.028-5.411-1.929-2.297-6.48-3.032-8.429-2.294-1.169 0.442-1.81 1.055-1.906 1.819-0.121 0.959 0.673 1.793 1.159 2.134 1.564 1.097 2.266 2.054 2.084 2.844-0.189 0.827-1.471 1.985-6.507 2.807-4.067 0.663-6.435 1.861-7.039 3.56-0.559 1.573 0.626 2.933 0.676 2.99l0.316-0.281v9.614c0 0.441 0.359 0.8 0.8 0.8h21.333c0.441 0 0.8-0.359 0.8-0.8v-9.65c0.338-0.174 0.729-0.451 0.955-0.872 0.229-0.427 0.247-0.913 0.054-1.445zM37.334 30.933h-21.333c-0.147 0-0.267-0.12-0.267-0.267v-5.674l9.067 2.299v3.109h3.733v-3.109l9.067-2.299v5.675c0 0.147-0.119 0.267-0.267 0.267zM28.001 27.822h-0.547v0.533h0.547v1.511h-2.667v-1.511h0.52v-0.533h-0.52v-1.155h2.667v1.155zM37.601 24.443l-9.067 2.299v-0.608h-3.733v0.607l-9.067-2.299v-3.909c0-0.147 0.119-0.267 0.267-0.267h21.333c0.147 0 0.267 0.12 0.267 0.267v0.135c-0.132 0.050-0.226 0.075-0.229 0.076l0.126 0.518c0.007-0.002 0.049-0.013 0.102-0.030v3.209zM38.62 19.891c-0.117 0.218-0.305 0.386-0.499 0.515-0.062-0.38-0.39-0.672-0.787-0.672h-21.333c-0.441 0-0.8 0.359-0.8 0.8v0.34c-0.234-0.314-0.867-1.3-0.489-2.357 0.369-1.031 1.817-2.424 6.621-3.209 4.338-0.708 6.608-1.759 6.941-3.214 0.237-1.036-0.515-2.148-2.298-3.399-0.422-0.296-1.019-0.974-0.937-1.631 0.068-0.546 0.61-1.026 1.565-1.387 1.809-0.685 6.038 0.001 7.832 2.138 1.098 1.308 1.091 2.922-0.022 4.796-1.003 1.689-1.295 2.947-0.895 3.845 0.503 1.127 1.945 1.412 3.216 1.665 0.864 0.171 1.757 0.348 1.907 0.761 0.14 0.389 0.133 0.718-0.022 1.010z"></path>
</svg>
