<?xml version="1.0" encoding="utf-8"?>
<!-- Generator: Adobe Illustrator 22.1.0, SVG Export Plug-In . SVG Version: 6.00 Build 0)  -->
<svg version="1.1" id="Layer_1" xmlns="http://www.w3.org/2000/svg" xmlns:xlink="http://www.w3.org/1999/xlink" x="0px" y="0px"
	 viewBox="0 0 100 60" style="enable-background:new 0 0 100 60;" xml:space="preserve">
<style type="text/css">
	.st0{fill:#FFFFFF;}
</style>
<g>
	<path d="M37.3,38v3.1c-0.9,0.8-4.8,5-5.1,11.9h-2l-2.4,6h5.4l2.4-6h-2.5c0.3-5.3,2.8-8.9,4.1-10.5v11c0,3.1,2.1,5.4,5,5.4h14
		c3.2,0,6-2.5,6-5.4V38H37.3z M32.5,58h-3.3l1.6-4h3.3L32.5,58z M61.3,39v4.6l-8,4.8V47h-7v1.5l-8-4.8V39H61.3z M47.3,50.9h1v-1h-1
		V48h5v1.9h-1v1h1V54h-5V50.9z M56.3,58h-14c-2.4,0-4-1.8-4-4.4v-8.8l8,4.8V55h7v-5.4l8-4.8v8.8C61.3,56.2,58.6,58,56.3,58z"/>
	<polygon points="50.3,49.9 51.3,49.9 51.3,48.9 50.3,48.9 49.3,48.9 48.3,48.9 48.3,49.9 49.3,49.9 	"/>
</g>
<g>
	<path class="st0" d="M41.6,35.9c0.3,0,1.8,0,1.8,0s6.6,5.5,13.6,12.5s6.5,7.4,9.4,7.4V58c0,0-2.3,0.9-5.6-2.5
		c-3.3-3.3-20.1-19.6-20.1-19.6H41.6z"/>
	<path d="M65.6,58.6c-1,0-2.9-0.4-5.2-2.7c-3.3-3.3-19.9-19.5-20.1-19.6l-0.8-0.8h4l0.1,0.1c0.1,0.1,6.7,5.6,13.6,12.6
		c1.7,1.7,3,3,3.9,4c3,3.1,3.1,3.3,5.1,3.3h0.5v2.9l-0.3,0.1C66.4,58.4,66.1,58.6,65.6,58.6z M41.7,36.4c3.4,3.3,16.4,16,19.3,18.8
		c2.4,2.4,4.1,2.5,4.8,2.4v-1.3c-2-0.1-2.4-0.5-5.3-3.5c-1-1-2.2-2.3-3.9-4c-6.4-6.4-12.5-11.6-13.4-12.4H41.7z"/>
</g>
<g>
	<line class="st0" x1="66.4" y1="55.7" x2="61.8" y2="49.2"/>
	<polygon points="66,56 61.4,49.4 62.2,48.9 66.8,55.5 	"/>
</g>
<rect x="39.2" y="35.5" width="1.1" height="3"/>
</svg>
