<!-- Generated by IcoMoon.io -->
<svg version="1.1" xmlns="http://www.w3.org/2000/svg" width="53" height="32" viewBox="0 0 53 32">
<title>Hats_Women_G1</title>
<path d="M34.267 26.133v-2.358c0-4.443-1.823-8.422-4.645-10.138-1.882-1.142-4.036-1.14-5.903 0-2.826 1.714-4.651 5.693-4.651 10.138v2.358h-0.667v5.333h16.533v-5.333h-0.667zM19.6 23.775c0-4.262 1.725-8.062 4.395-9.682 1.699-1.037 3.637-1.039 5.349 0.001 2.666 1.62 4.389 5.42 4.389 9.681v2.358h-4.563c0.576-0.702 1.937-2.458 2.315-3.81 0.467-1.662 0.55-3.663 0.554-3.758v-0.14c0-0.103-0.060-0.197-0.154-0.242-0.093-0.043-0.204-0.030-0.284 0.037-0.015 0.013-1.58 1.319-2.73 2.592-1.358 1.506-2.030 4.745-2.141 5.32h-0.131c-0.111-0.575-0.782-3.814-2.141-5.32-1.149-1.273-2.714-2.579-2.73-2.592-0.079-0.067-0.19-0.080-0.284-0.037-0.093 0.044-0.154 0.138-0.154 0.242v0.15c0.003 0.084 0.087 2.085 0.554 3.748 0.379 1.351 1.739 3.107 2.315 3.81h-4.562v-2.357zM28.486 26.133h-1.209c0.153-0.75 0.807-3.649 1.993-4.963 0.741-0.821 1.662-1.659 2.208-2.138-0.053 0.694-0.188 2.020-0.505 3.147-0.442 1.574-2.443 3.889-2.463 3.913-0.011 0.013-0.015 0.028-0.023 0.041zM24.848 26.133c-0.008-0.013-0.012-0.028-0.023-0.041-0.020-0.023-2.022-2.337-2.463-3.913-0.317-1.129-0.452-2.458-0.505-3.147 0.545 0.478 1.467 1.317 2.208 2.138 1.185 1.313 1.838 4.212 1.992 4.963h-1.209zM34.4 30.933h-15.467v-4.267h15.467v4.267z"></path>
<path d="M23.677 29.23l-0.141 0.778c-0.018 0.1 0.022 0.202 0.103 0.262s0.191 0.069 0.281 0.023l0.703-0.362 0.697 0.375c0.039 0.021 0.083 0.032 0.126 0.032 0.054 0 0.109-0.017 0.155-0.050 0.083-0.059 0.125-0.159 0.109-0.259l-0.126-0.781 0.572-0.546c0.073-0.070 0.1-0.175 0.070-0.273s-0.113-0.168-0.213-0.184l-0.781-0.122-0.343-0.712c-0.044-0.092-0.136-0.15-0.238-0.151-0.107 0.009-0.195 0.055-0.241 0.146l-0.357 0.706-0.783 0.106c-0.1 0.013-0.185 0.083-0.217 0.179s-0.007 0.203 0.065 0.274l0.56 0.558zM24.262 28.623c0.087-0.011 0.163-0.065 0.202-0.144l0.177-0.349 0.17 0.352c0.038 0.079 0.113 0.134 0.199 0.148l0.386 0.060-0.283 0.27c-0.063 0.060-0.093 0.148-0.079 0.235l0.062 0.386-0.344-0.186c-0.039-0.021-0.083-0.032-0.126-0.032-0.042 0-0.084 0.010-0.122 0.029l-0.348 0.179 0.070-0.384c0.016-0.086-0.012-0.175-0.074-0.237l-0.277-0.276 0.387-0.052z"></path>
<path d="M27.735 29.23l-0.141 0.778c-0.018 0.1 0.022 0.202 0.103 0.262s0.19 0.069 0.281 0.023l0.703-0.362 0.697 0.375c0.039 0.021 0.083 0.032 0.126 0.032 0.054 0 0.109-0.017 0.155-0.050 0.083-0.059 0.125-0.159 0.109-0.259l-0.126-0.781 0.572-0.546c0.073-0.070 0.1-0.175 0.070-0.273s-0.113-0.168-0.213-0.184l-0.781-0.122-0.343-0.712c-0.044-0.092-0.136-0.15-0.238-0.151-0.113 0.009-0.195 0.055-0.241 0.146l-0.357 0.706-0.783 0.106c-0.1 0.013-0.185 0.083-0.217 0.179s-0.007 0.203 0.065 0.274l0.561 0.558zM28.321 28.623c0.087-0.011 0.163-0.065 0.202-0.144l0.177-0.349 0.17 0.352c0.038 0.079 0.113 0.134 0.199 0.148l0.386 0.060-0.283 0.27c-0.063 0.060-0.093 0.148-0.079 0.235l0.062 0.386-0.344-0.186c-0.039-0.021-0.083-0.032-0.126-0.032-0.042 0-0.084 0.010-0.122 0.029l-0.347 0.179 0.069-0.384c0.016-0.086-0.012-0.175-0.074-0.237l-0.277-0.276 0.387-0.052z"></path>
</svg>
