<!-- Generated by IcoMoon.io -->
<svg version="1.1" xmlns="http://www.w3.org/2000/svg" width="53" height="32" viewBox="0 0 53 32">
<title>Hats_Men_G1</title>
<path d="M28.801 25.956l-0.491-0.471-0.491 0.471 0.491 0.472z"></path>
<path d="M28.801 28.859l-0.491-0.472-0.491 0.472 0.491 0.471z"></path>
<path d="M30.259 24.499l-0.491-0.472-0.491 0.472 0.491 0.471z"></path>
<path d="M30.259 27.414l-0.491-0.471-0.491 0.471 0.491 0.472z"></path>
<path d="M27.342 27.414l-0.491-0.471-0.491 0.471 0.491 0.472z"></path>
<path d="M27.342 24.499l-0.491-0.472-0.491 0.472 0.491 0.471z"></path>
<path d="M28.801 23.078l-0.491-0.471-0.491 0.471 0.491 0.471z"></path>
<path d="M24.941 23.078l0.491 0.471 0.491-0.471-0.491-0.471z"></path>
<path d="M27.342 21.62l-0.491-0.471-0.491 0.471 0.491 0.471z"></path>
<path d="M38.93 27.829c-0.042-0.097-0.138-0.16-0.244-0.16h-6.521c-0.667-5.524-4.907-8.223-8.871-8.441-0.164-0.009-0.329-0.009-0.493-0.007-0.117-0.276-0.556-0.42-1.039-0.324-0.413 0.082-0.728 0.315-0.814 0.568-3.756 0.959-6.566 4.661-6.566 8.908 0 0.999 0.157 1.979 0.466 2.911 0.037 0.109 0.139 0.182 0.254 0.182h10.794c0.044 0 0.088-0.011 0.127-0.033l0.066-0.035c9.65-0.010 12.67-3.148 12.795-3.282 0.071-0.077 0.091-0.19 0.048-0.287zM15.295 30.933c-0.253-0.823-0.381-1.683-0.381-2.561 0-4.031 2.673-7.54 6.235-8.411 0.202 0.125 0.514 0.172 0.845 0.106 0.014-0.003 0.026-0.007 0.039-0.011 3.461 4.036 3.722 9.756 3.739 10.876h-10.478zM26.579 30.526l-0.28 0.151c-0.026-0.782-0.145-2.495-0.664-4.515l0.215-0.206-0.372-0.357c-0.333-1.157-0.8-2.383-1.454-3.574l0.069 0.067 0.491-0.471-0.491-0.471-0.371 0.356c-0.347-0.574-0.741-1.132-1.187-1.667 0.037-0.027 0.073-0.055 0.104-0.084 0.207-0.006 0.416-0.005 0.625 0.006 0.667 0.037 1.342 0.151 2.006 0.339l-0.33 0.317 0.491 0.471 0.491-0.471-0.17-0.163c2.309 0.791 4.398 2.532 5.38 5.307l-0.412 0.396 0.491 0.471 0.146-0.14c0.126 0.475 0.231 0.97 0.292 1.499l-4.442 2.401-0.356-0.342-0.491 0.471 0.219 0.211zM27.107 30.848l4.895-2.645h5.935c-1.166 0.817-4.329 2.478-10.83 2.645z"></path>
</svg>
