<?xml version="1.0" encoding="utf-8"?>
<!-- Generator: Adobe Illustrator 22.1.0, SVG Export Plug-In . SVG Version: 6.00 Build 0)  -->
<svg version="1.1" id="Layer_1" xmlns="http://www.w3.org/2000/svg" xmlns:xlink="http://www.w3.org/1999/xlink" x="0px" y="0px"
	 viewBox="0 0 100 60" style="enable-background:new 0 0 100 60;" xml:space="preserve">
<style type="text/css">
	.st0{fill:none;stroke:#000000;stroke-miterlimit:10;}
	.st1{fill:none;stroke:#000000;stroke-width:1.0047;stroke-miterlimit:10;}
	.st2{fill:none;stroke:#000000;stroke-width:0.9556;stroke-miterlimit:10;}
	.st3{fill:none;stroke:#000000;stroke-linejoin:round;stroke-miterlimit:10;}
	.st4{fill:#FFFFFF;stroke:#000000;stroke-miterlimit:10;}
	.st5{fill:none;stroke:#000000;stroke-width:1.3698;stroke-miterlimit:10;}
	.st6{fill:#FFFFFF;}
</style>
<path d="M50.6,41.4c4.3,0,7.9,3.5,7.9,7.9s-3.5,7.9-7.9,7.9s-7.9-3.5-7.9-7.9S46.3,41.4,50.6,41.4 M50.6,40.4c-4.9,0-8.9,4-8.9,8.9
	s4,8.9,8.9,8.9c4.9,0,8.9-4,8.9-8.9S55.5,40.4,50.6,40.4L50.6,40.4z"/>
<path d="M50.6,53.3c-1.4,0-2.6-0.9-2.6-2c0-1.1,1.1-2,2.6-2s2.6,0.9,2.6,2C53.2,52.5,52,53.3,50.6,53.3z M50.6,50.3
	c-0.8,0-1.6,0.5-1.6,1s0.7,1,1.6,1s1.6-0.5,1.6-1S51.4,50.3,50.6,50.3z"/>
<circle cx="47.5" cy="47.6" r="0.8"/>
<circle cx="53.9" cy="47.6" r="0.8"/>
<g>
	<path class="st6" d="M57.6,44.4c0,0,2.8,0.7,4.1,6.9c1.1,5.3-1.2,5.1-1.2,5.1s-2.2,0.7-2.6-4.6C57.4,46.8,57.6,44.4,57.6,44.4z"/>
	<path d="M60.2,56.9c-0.3,0-0.7-0.1-1.1-0.3c-1-0.7-1.6-2.3-1.8-4.7c-0.5-5.1-0.2-7.5-0.2-7.6l0.1-0.6l0.6,0.2
		c0.1,0,3.1,0.9,4.4,7.3c0.5,2.5,0.4,4.3-0.4,5.2c-0.5,0.5-1,0.6-1.2,0.6C60.4,56.9,60.3,56.9,60.2,56.9z M58,45.2
		c0,1.1,0,3.3,0.3,6.6c0.2,2.7,1,3.6,1.4,3.9c0.3,0.2,0.6,0.2,0.6,0.2l0.1,0l0.1,0c0,0,0.2,0,0.5-0.3c0.3-0.4,0.7-1.4,0.2-4.3
		C60.3,47.4,58.9,45.8,58,45.2z"/>
</g>
<g>
	<path class="st6" d="M43.6,44.4c0,0-2.8,0.7-4.1,6.9c-1.1,5.3,1.2,5.1,1.2,5.1s2.2,0.7,2.6-4.6C43.8,46.8,43.6,44.4,43.6,44.4z"/>
	<path d="M40.9,56.9c-0.1,0-0.2,0-0.3,0c-0.2,0-0.7-0.1-1.2-0.6c-0.8-0.9-0.9-2.6-0.4-5.2c1.3-6.4,4.3-7.2,4.4-7.3l0.6-0.2l0.1,0.6
		c0,0.1,0.2,2.5-0.2,7.6c-0.2,2.4-0.8,4-1.8,4.7C41.6,56.9,41.2,56.9,40.9,56.9z M40.8,55.9c0,0,0.3,0.1,0.6-0.2
		c0.4-0.3,1.1-1.2,1.4-3.9c0.3-3.4,0.3-5.5,0.3-6.6c-0.8,0.6-2.3,2.2-3.1,6.2c-0.6,2.9-0.1,3.9,0.2,4.3c0.2,0.3,0.5,0.3,0.5,0.3
		L40.8,55.9L40.8,55.9L40.8,55.9z"/>
</g>
<rect x="49.9" y="40.9" width="1.4" height="8.9"/>
<path d="M46.1,56.6c0-1.1,0.1-3.8,2.1-5.1l0.5,0.8c-1.6,1.1-1.7,3.3-1.7,4.3L46.1,56.6z"/>
<rect x="50.2" y="52.8" width="1" height="4.8"/>
<path d="M55.2,56.6l-1,0c0.1-1.7-0.5-3.8-2.2-4.5l0.4-0.9C54.6,52,55.3,54.5,55.2,56.6z"/>
</svg>
