<!-- Generated by IcoMoon.io -->
<svg version="1.1" xmlns="http://www.w3.org/2000/svg" width="53" height="32" viewBox="0 0 53 32">
<title>ICONS_MENS_ALL_CLOTHES</title>
<path d="M26.827 14.4c-2.613 0-3.253-2.667-3.307-2.667l0.533-0.107c0 0.107 0.587 2.293 2.773 2.293s2.453-2.133 2.453-2.24l0.533 0.053c0 0-0.373 2.667-2.987 2.667z"></path>
<path d="M35.253 30.507l-1.973-6.293 0.533-0.16 1.76 5.813 2.133-0.64-3.52-15.36 0.533-0.107 3.627 15.84z"></path>
<path d="M33.067 31.147h-12.8v-0.213c-0.16-1.653-1.76-16.267-1.6-17.227 0.267-1.28 3.84-2.133 4.587-2.293h6.88c0.747 0.16 4.32 1.013 4.587 2.293 0.16 0.907-1.44 15.573-1.6 17.227l-0.053 0.213zM20.747 30.613h11.84c0.693-6.507 1.707-16.16 1.6-16.8-0.16-0.693-2.507-1.547-4.16-1.867h-6.72c-1.653 0.373-4 1.173-4.16 1.867-0.107 0.64 0.907 10.347 1.6 16.8z"></path>
<path d="M18.080 30.507l-3.093-0.907 3.627-15.84 0.533 0.107-3.52 15.36 2.080 0.64 1.813-5.813 0.533 0.16z"></path>
</svg>
