<?xml version="1.0" encoding="utf-8"?>
<!-- Generator: Adobe Illustrator 22.1.0, SVG Export Plug-In . SVG Version: 6.00 Build 0)  -->
<svg version="1.1" id="Layer_1" xmlns="http://www.w3.org/2000/svg" xmlns:xlink="http://www.w3.org/1999/xlink" x="0px" y="0px"
	 viewBox="0 0 100 60" style="enable-background:new 0 0 100 60;" xml:space="preserve">
<style type="text/css">
	.st0{fill:none;stroke:#000000;stroke-miterlimit:10;}
	.st1{fill:none;stroke:#000000;stroke-width:1.0047;stroke-miterlimit:10;}
</style>
<g>
	<path d="M73.3,57.8L67,26.2c0,0,0-0.1,0-0.1c-0.4-2.2-5.5-3.5-6.6-3.7l-3.6-3.7h-7.7l-3.6,3.8c-1.1,0.2-6.1,1.5-6.5,3.7
		c0,0,0,0,0,0l-0.1,0l-7.3,31.7l5.5,1.5l3.7-12.7c0.5,4.6,0.9,8.4,1,9.4l0,0.4h22.3l0-0.4c0.1-1,0.5-4.4,0.9-8.7l2.7,12L73.3,57.8z
		 M62.6,26l-5.3,1.8l0.1,0.1l-0.2-0.1l-0.5-7.9L62.6,26z M48.1,28.4l4,5.7l-6.8-3L48.1,28.4z M57.6,28.1l3.2,3.1l-9.7,7.1L57.6,28.1
		z M49.2,20l-1.3,7.5L43.5,26L49.2,20z M36.4,58.1l-3.6-1l6.3-27.4c0.3,3.6,0.8,9.2,1.4,14.4L36.4,58.1z M40,26.3
		c0.2-1,2.3-1.9,4.2-2.5l-2.5,2.7l5.2,1.8l-3.3,3.2l8.4,3.7l-3,4.8L48.8,40v15.5h-6.1C41.5,44.2,39.8,27.4,40,26.3z M63.3,55.5H49.8
		v-15l12.6-9.2l-3.2-3.1l5.2-1.8l-2.6-2.7c2,0.6,4.1,1.6,4.2,2.5c0,0,0,0,0,0.1l0,0l0,0C66.2,27.9,64.5,44.4,63.3,55.5z M66.8,30.2
		l5.3,26.8l-3.6,1l-3.1-13.9C66,39.3,66.5,33.9,66.8,30.2z"/>
	<rect x="57.3" y="35.4" transform="matrix(0.8136 -0.5814 0.5814 0.8136 -9.5792 41.8691)" width="6.5" height="1"/>
	<rect x="57.2" y="48.1" transform="matrix(0.1269 -0.9919 0.9919 0.1269 5.3838 103.2416)" width="8.3" height="1"/>
	<rect x="44.2" y="44.4" transform="matrix(0.9919 -0.1269 0.1269 0.9919 -5.8023 6.0615)" width="1" height="8.3"/>
</g>
</svg>
