<?xml version="1.0" encoding="utf-8"?>
<!-- Generator: Adobe Illustrator 22.1.0, SVG Export Plug-In . SVG Version: 6.00 Build 0)  -->
<svg version="1.1" id="Layer_1" xmlns="http://www.w3.org/2000/svg" xmlns:xlink="http://www.w3.org/1999/xlink" x="0px" y="0px"
	 viewBox="0 0 100 60" style="enable-background:new 0 0 100 60;" xml:space="preserve">
<style type="text/css">
	.st0{fill:none;stroke:#000000;stroke-miterlimit:10;}
	.st1{fill:none;stroke:#000000;stroke-width:1.0047;stroke-miterlimit:10;}
</style>
<g>
	<path d="M62,43.1V58H38V43.1H62 M63,42.1H37V59h26V42.1L63,42.1z"/>
</g>
<g>
	<path d="M32.9,51.4c1.3,0,2.4,1.1,2.4,2.4s-1.1,2.4-2.4,2.4c-1.3,0-2.4-1.1-2.4-2.4S31.6,51.4,32.9,51.4 M32.9,50.4
		c-1.9,0-3.5,1.5-3.5,3.5s1.5,3.5,3.5,3.5c1.9,0,3.5-1.5,3.5-3.5S34.8,50.4,32.9,50.4L32.9,50.4z"/>
</g>
<line class="st0" x1="37.5" y1="42.3" x2="34" y2="50.8"/>
<g>
	<line class="st1" x1="39.1" y1="44.8" x2="60.9" y2="44.8"/>
</g>
</svg>
