<?xml version="1.0" encoding="utf-8"?>
<!-- Generator: Adobe Illustrator 22.1.0, SVG Export Plug-In . SVG Version: 6.00 Build 0)  -->
<svg version="1.1" id="Layer_1" xmlns="http://www.w3.org/2000/svg" xmlns:xlink="http://www.w3.org/1999/xlink" x="0px" y="0px"
	 viewBox="0 0 100 60" style="enable-background:new 0 0 100 60;" xml:space="preserve">
<style type="text/css">
	.st0{fill:none;stroke:#000000;stroke-miterlimit:10;}
	.st1{fill:none;stroke:#000000;stroke-width:1.0047;stroke-miterlimit:10;}
	.st2{fill:none;stroke:#000000;stroke-width:0.9556;stroke-miterlimit:10;}
	.st3{fill:none;stroke:#000000;stroke-linejoin:round;stroke-miterlimit:10;}
</style>
<g>
	<path d="M60.3,29.5c-0.8-4.9-1.5-7.9-1.9-8.4C58.3,21,58.1,21,58,21l-5.7,0.2L46.7,21c-0.1,0-0.3,0-0.4,0.1
		c-0.5,0.5-1.2,3.5-1.9,8.4c-1.2,7.4-2.7,27-2.7,27.2c0,0.1,0,0.3,0.1,0.4c0.1,0.1,0.2,0.2,0.4,0.2h0.3v1.1c0,0.3,0.2,0.5,0.5,0.5
		h3.8c0.3,0,0.5-0.2,0.5-0.5l0.1-1.2h0.3c0.2,0,0.4-0.2,0.5-0.4l4.1-20l4.1,20c0,0.2,0.3,0.4,0.5,0.4h0.2l0.1,1.2
		c0,0.3,0.2,0.5,0.5,0.5h3.8c0.3,0,0.5-0.2,0.5-0.5v-1.1h0.4c0.1,0,0.3-0.1,0.4-0.2c0.1-0.1,0.1-0.2,0.1-0.4
		C62.9,56.5,61.4,36.9,60.3,29.5z M46.9,22l5.1,0.2v0l0.3,0l0.3,0l5.1-0.2c0.1,0.2,0.2,0.4,0.3,0.8l-5.6,0.4l-5.7-0.4
		C46.8,22.4,46.9,22.1,46.9,22z M46.4,57.9h-2.9v-0.6h3L46.4,57.9z M61,57.9h-2.9l-0.1-0.6h3V57.9z M61.5,56.3
		C61.5,56.3,61.5,56.2,61.5,56.3C61.5,56.2,61.5,56.3,61.5,56.3h-4.3l-4.4-21.8c0-0.2-0.3-0.4-0.6-0.4s-0.4,0.2-0.5,0.4l-4.4,21.8
		H43c0,0,0,0,0,0s0,0,0,0h-0.3c0.3-3.2,1.6-19.9,2.6-26.6c0.4-2.8,0.8-4.7,1.1-5.8l6,0.4l5.8-0.4c0.3,1.2,0.6,3,1.1,5.8
		c1,6.7,2.4,23.4,2.6,26.6H61.5z"/>
	<rect x="43.5" y="28.5" transform="matrix(0.1425 -0.9898 0.9898 0.1425 11.7052 71.4562)" width="7.2" height="1"/>
	<rect x="57.1" y="25.4" transform="matrix(0.9899 -0.142 0.142 0.9899 -3.5312 8.4707)" width="1" height="7.2"/>
</g>
</svg>
