<svg id="Layer_1" data-name="Layer 1" xmlns="http://www.w3.org/2000/svg" viewBox="0 0 100 60"><title>ICONS_UNDERWEAR</title><path d="M39.2,32.21H60.8l2.68-9.59h0s-3.37-.83-4.24-14.53h-2S53,12.67,50,12.68c-2.56,0-7.2-4.6-7.2-4.6h-2c-.16,12.38-4.26,14.54-4.26,14.54h0Zm20.88-.95H39.92l-.53-1.9H60.61ZM50,13.44c2.68,0,6-3.21,7.51-4.66,0,.36-.1.89-.19,1.49-6.53,4.9-5.54,9.37-5.34,10.07a4.88,4.88,0,0,1-3.94,0c.18-.59,1.3-5.15-5.37-10.14h0c-.09-.58-.15-1.1-.18-1.46C43.88,10.23,47.52,13.46,50,13.44Zm7.18-2.16c-.53,2.9-1.74,6.88-4.45,8.66C51.74,16.53,55.28,13,57.18,11.28ZM47.28,20c-2.75-1.77-4-5.82-4.48-8.75C44.63,13.07,48.24,16.13,47.28,20ZM41.46,9.12h.43s.6,12.44,8.09,12.44c6,0,7.42-7.62,8.07-11.4.06-.37.16-1,.16-1h.39s.26,11.21,3.81,13.82l-1.53,5.47H39.12l-1.53-5.48C41.73,19.41,41.46,9.12,41.46,9.12Z"/><path d="M62.36,41.11H37.83a.5.5,0,0,0-.44.54V44.2a.43.43,0,0,0,0,.16v2.5a.62.62,0,0,0,.13.38l10,11.59a.42.42,0,0,0,.31.15l4.47,0h0a.39.39,0,0,0,.31-.15l10-11.62a.55.55,0,0,0,.13-.38V41.64A.49.49,0,0,0,62.36,41.11ZM39.2,47.7a9.76,9.76,0,0,1,5.37,3.15,10.85,10.85,0,0,1,2.74,6.24Zm13.62,9.47a10.8,10.8,0,0,1,2.8-6.33A9.91,9.91,0,0,1,61,47.68Zm9.1-10.66A10.44,10.44,0,0,0,55,50.07a11.93,11.93,0,0,0-2.79,5.24,18.89,18.89,0,0,0-.33,2.63H48.24a15.12,15.12,0,0,0-.32-2.63,12.06,12.06,0,0,0-2.75-5.21,10.3,10.3,0,0,0-6.89-3.57V44.8H61.92Zm0-2.77H38.27V42.17H61.92Z"/></svg>