<?xml version="1.0" encoding="utf-8"?>
<!-- Generator: Adobe Illustrator 22.1.0, SVG Export Plug-In . SVG Version: 6.00 Build 0)  -->
<svg version="1.1" id="Layer_1" xmlns="http://www.w3.org/2000/svg" xmlns:xlink="http://www.w3.org/1999/xlink" x="0px" y="0px"
	 viewBox="0 0 100 60" style="enable-background:new 0 0 100 60;" xml:space="preserve">
<style type="text/css">
	.st0{fill:none;stroke:#000000;stroke-miterlimit:10;}
	.st1{fill:none;stroke:#000000;stroke-width:1.0047;stroke-miterlimit:10;}
	.st2{fill:none;stroke:#000000;stroke-width:0.9556;stroke-miterlimit:10;}
</style>
<path d="M49.4,27.1c-4.8,0-6-4.9-6-4.9l1-0.2c0,0.2,1,4.2,5.1,4.2c4,0,4.5-3.9,4.5-4.1l1,0.1C54.9,22.1,54.2,27.1,49.4,27.1z"/>
<path d="M60.2,57.8H38l0-0.5c-0.1-3.1-1.2-30.8-0.9-32.5c0.4-2.5,5.2-3.2,5.7-3.3l11.4,0c0.7,0.1,6.4,0.8,6.8,3.3
	c0.3,1.7-0.7,29.4-0.9,32.5L60.2,57.8z M39,56.8h20.3c0.5-12.3,1.1-30.6,0.9-31.8c-0.2-1.3-3.7-2.2-5.9-2.5l-11.3,0
	c-1.1,0.2-4.5,1-4.8,2.4C37.9,26.2,38.5,44.5,39,56.8z"/>
<polygon points="35,41.2 29.8,36.9 37.5,24.1 38.3,24.6 31.1,36.6 34.9,39.8 37.4,36.9 38.2,37.6 "/>
<polygon points="63.4,41.1 60.2,37.6 60.9,36.9 63.5,39.8 67.2,36.6 60.1,24.9 60.9,24.4 68.5,36.9 "/>
</svg>
