<?xml version="1.0" encoding="utf-8"?>
<!-- Generator: Adobe Illustrator 22.1.0, SVG Export Plug-In . SVG Version: 6.00 Build 0)  -->
<svg version="1.1" id="Layer_1" xmlns="http://www.w3.org/2000/svg" xmlns:xlink="http://www.w3.org/1999/xlink" x="0px" y="0px"
	 viewBox="0 0 100 60" style="enable-background:new 0 0 100 60;" xml:space="preserve">
<g>
	<path d="M29,38v21h42V38H29z M70,39v6.7l-16.5,2.9v-1.5h-7v1.5L30,45.7V39H70z M47.5,51.3h1v-1h-1v-2.2h5v2.2h-1v1h1v2.8h-5V51.3z
		 M30,58V46.8l16.5,2.9v5.5h7v-5.5L70,46.8V58C70,58,30,58,30,58z"/>
	<polygon points="50.5,50.3 51.5,50.3 51.5,49.3 50.5,49.3 49.5,49.3 48.5,49.3 48.5,50.3 49.5,50.3 	"/>
</g>
</svg>
