<svg id="Layer_1" data-name="Layer 1" xmlns="http://www.w3.org/2000/svg" viewBox="0 0 100 60"><title>ICONS_UNDERWEAR</title><path d="M50.68,59.13l17.18-2.94L64.44,36.63H34L30.58,56.19l17.18,2.94L49,55.87h.48Zm-2.3-4.28c-1.57-1-4-4.21-2.19-14.8h6.06c1.79,10.59-.61,13.83-2.18,14.8ZM51.66,58A19.66,19.66,0,0,1,66.1,55.44Zm14.8-3.44A20.08,20.08,0,0,0,51,57.4l-.72-1.6c5.76-3.31,3-15.75,3-15.75H64ZM34.86,37.65H63.59L63.82,39H34.62ZM32.35,55.44A19.67,19.67,0,0,1,46.79,58Zm15.08,2A20.05,20.05,0,0,0,32,54.53l2.46-14.48H45.18s-2.79,12.44,3,15.75Z"/></svg>