<?xml version="1.0" encoding="utf-8"?>
<!-- Generator: Adobe Illustrator 22.1.0, SVG Export Plug-In . SVG Version: 6.00 Build 0)  -->
<svg version="1.1" id="Layer_1" xmlns="http://www.w3.org/2000/svg" xmlns:xlink="http://www.w3.org/1999/xlink" x="0px" y="0px"
	 viewBox="0 0 100 60" style="enable-background:new 0 0 100 60;" xml:space="preserve">
<style type="text/css">
	.st0{fill:none;stroke:#000000;stroke-miterlimit:10;}
	.st1{fill:none;stroke:#000000;stroke-width:1.0047;stroke-miterlimit:10;}
	.st2{fill:none;stroke:#000000;stroke-width:0.9556;stroke-miterlimit:10;}
	.st3{fill:none;stroke:#000000;stroke-linejoin:round;stroke-miterlimit:10;}
</style>
<path d="M58.5,57.8H42.2c-0.3,0-0.5-0.2-0.5-0.4c0-0.2-0.5-4.8,0.7-12.3c0.8-4.9,1.5-7.9,1.9-8.4c0.1-0.1,0.2-0.2,0.4-0.1l5.7,0.2
	l5.7-0.2c0.1,0,0.3,0,0.4,0.1c0.5,0.5,1.2,3.5,1.9,8.4c1.2,7.5,0.7,12.1,0.7,12.3C58.9,57.6,58.7,57.8,58.5,57.8z M42.7,56.8H58
	c0.1-1.3,0.2-5.6-0.7-11.6c-0.8-5.4-1.4-7.1-1.6-7.7l-5.1,0.2l-0.3,0l-0.3,0v0L45,37.6c-0.2,0.5-0.7,2.2-1.6,7.7
	C42.4,51.3,42.6,55.5,42.7,56.8z"/>
<polygon points="50.4,39.8 44.1,39.4 44.1,38.4 50.4,38.8 56.2,38.4 56.3,39.4 "/>
<rect x="41.7" y="44.1" transform="matrix(0.1524 -0.9883 0.9883 0.1524 -5.6401 82.5349)" width="7.2" height="1"/>
<rect x="41.9" y="47.7" transform="matrix(0.3009 -0.9536 0.9536 0.3009 -10.0057 82.7778)" width="19.1" height="1"/>
</svg>
