<?xml version="1.0" encoding="utf-8"?>
<!-- Generator: Adobe Illustrator 25.2.1, SVG Export Plug-In . SVG Version: 6.00 Build 0)  -->
<svg version="1.1" id="Layer_1" xmlns="http://www.w3.org/2000/svg" xmlns:xlink="http://www.w3.org/1999/xlink" x="0px" y="0px"
	 viewBox="0 0 100 60" style="enable-background:new 0 0 100 60;" xml:space="preserve">
<style type="text/css">
	.st0{fill:none;stroke:#000000;stroke-miterlimit:10;}
	.st1{fill:none;stroke:#010101;stroke-linejoin:round;}
</style>
<g id="Layer_2_1_">
</g>
<g>
	<g id="Layer_1_2_">
		<circle class="st0" cx="49.9" cy="36.1" r="0.3"/>
		<path class="st0" d="M49.9,32.7c-4.2,0-6.5,4.3-7.9,8.7c-1.2,5-1.1,8.9-0.6,14.4c0.2,0.9,0.3,1.6,1.2,1.6l0,0h7.3"/>
		<path class="st0" d="M49.9,57.4h7.3l0,0c0.9,0,1.1-0.6,1.2-1.6c0.5-5.6,0.6-9.5-0.6-14.4c-1.4-4.3-3.7-8.7-7.9-8.7"/>
		<path class="st0" d="M55.6,36.6"/>
		<path class="st0" d="M55.6,36.4c-1.4-2-2.3-3.9-2.5-6.2c-0.2-3-1.6-3.7-3.3-3.7s-3.1,0.8-3.3,3.7c-0.2,2.3-1.1,4.2-2.5,6.2"/>
		<path class="st0" d="M44.1,36.6"/>
		<path class="st0" d="M42.1,40.6h15.4H42.1z"/>
		<rect x="47.1" y="47.8" class="st1" width="5.6" height="5.6"/>
	</g>
	<g id="Layer_2_2_">
	</g>
</g>
</svg>
