<?xml version="1.0" encoding="utf-8"?>
<!-- Generator: Adobe Illustrator 25.0.0, SVG Export Plug-In . SVG Version: 6.00 Build 0)  -->
<svg version="1.1" id="Layer_1" xmlns="http://www.w3.org/2000/svg" xmlns:xlink="http://www.w3.org/1999/xlink" x="0px" y="0px"
	 viewBox="0 0 100 60" style="enable-background:new 0 0 100 60;" xml:space="preserve">
<style type="text/css">
	.st0{fill:none;stroke:#000000;stroke-miterlimit:10;}
</style>
<g id="Layer_1_1_">
	<g>
		<path d="M56,49.3l-0.8-0.7l-0.8,0.7l0.8,0.7L56,49.3z"/>
		<path d="M58.3,47l-0.8-0.7L56.7,47l0.8,0.7L58.3,47z"/>
		<path d="M58.3,42.7L57.5,42l-0.8,0.7l0.8,0.7L58.3,42.7z"/>
		<path d="M53.6,47l-0.8-0.7L52.1,47l0.8,0.7L53.6,47z"/>
		<path d="M56,44.8L55.2,44l-0.8,0.7l0.8,0.7L56,44.8z"/>
		<path d="M49.8,44.8l0.8,0.7l0.8-0.7L50.6,44L49.8,44.8z"/>
		<path d="M53.6,42.5l-0.8-0.7L52,42.5l0.8,0.7L53.6,42.5z"/>
		<path d="M53.6,51.4l-0.8-0.7L52,51.4l0.8,0.7L53.6,51.4z"/>
		<path class="st0" d="M37.9,41.8c0,0,12.2-5.6,23.6,0l0.7-2.9c0,0-11.5-10.6-24.8,0L37.9,41.8z"/>
		<path class="st0" d="M37.9,41.8l1.3,6.4c0,0,11.1,13.3,21.1,0l1.2-6.4C61.6,41.8,52.1,36.1,37.9,41.8z"/>
		<path class="st0" d="M60.3,48.2c0,0,4.5,1.1,6.7-4.6c2.2-5.9-4.8-4.7-4.8-4.7s-11.3-10.4-24.8,0c0,0-7-1.2-4.8,4.7
			c2.1,5.6,6.7,4.6,6.7,4.6S49.9,70,60.3,48.2z"/>
	</g>
</g>
<g id="Layer_2_1_">
</g>
</svg>
