<?xml version="1.0" encoding="utf-8"?>
<!-- Generator: Adobe Illustrator 23.0.0, SVG Export Plug-In . SVG Version: 6.00 Build 0)  -->
<svg version="1.1" id="Layer_1" xmlns="http://www.w3.org/2000/svg" xmlns:xlink="http://www.w3.org/1999/xlink" x="0px" y="0px"
	 viewBox="0 0 1000 1000" style="enable-background:new 0 0 1000 1000;" xml:space="preserve">
<g>
	<path d="M366.4350586,370.8466797v5.3198242H254.7133789v-3.4199219
		c15.5805664-14.4404297,15.9604492-20.5205078,12.9204102-61.1811523l-1.9003906-23.9399414
		c-1.5195312-16.340332-2.659668-33.4404297-3.0400391-55.480957l-2.2797852-0.3798828
		c-6.840332,22.4204102-15.5800781,44.0805664-23.5600586,61.940918l-39.140625,87.4008789h-3.800293l-43.7006836-95.0009766
		c-7.5996094-17.1005859-14.4399414-33.4404297-21.6601562-53.9609375l-2.2797852,0.3798828
		c0,21.2802734-0.7602539,38.3808594-1.1401367,53.9609375l-0.7597656,20.9003906
		c-1.9003906,47.5004883-1.9003906,50.1606445,16.7197266,65.3608398v3.4199219H35.4506836v-5.3198242
		c16.7202148-12.5405273,19.3803711-26.9804688,22.4204102-61.940918l13.2998047-150.4819336
		c3.0400391-30.7802734,3.0400391-38.7607422-12.1601562-51.6806641v-6.0800781h83.6015625l28.5,57.7607422
		c12.9204102,25.4599609,22.0405273,47.5004883,29.2607422,66.1206055h1.8999023
		c7.2202148-20.8999023,15.5800781-42.1801758,26.6000977-66.1206055l25.840332-57.7607422h81.3212891v6.0800781
		c-16.7202148,12.5400391-16.340332,18.2402344-11.4003906,58.5205078l16.340332,140.2216797
		C346.2949219,351.8461914,348.574707,357.1660156,366.4350586,370.8466797z M289.6738281,360.9663086h39.140625
		c-2.6601562-13.6801758-4.5600586-28.5004883-6.8398438-47.5004883l-17.8603516-155.0419922
		c-1.9003906-17.1005859-3.0400391-30.7802734-3.0400391-42.5605469h-33.8203125l-64.980957,144.0214844h-1.8999023
		l-69.9208984-144.0214844H92.831543c-0.3803711,9.8798828-1.1401367,20.5200195-2.2802734,35.340332L76.8710938,310.8056641
		c-1.5200195,19.3803711-3.0400391,36.4804688-5.3198242,50.1606445h31.9204102
		c-0.3798828-13.6801758,0.3798828-26.9804688,1.8999023-49.0205078l9.5-135.6616211h3.0400391l51.6806641,106.78125
		c9.1201172,19,17.8603516,39.140625,25.4604492,58.5205078h2.6601562
		c7.2197266-18.2402344,16.3398438-39.5205078,24.3203125-57.7607422l46.3603516-106.0214844h3.0400391l15.2001953,138.3222656
		C288.5341797,332.4658203,289.6738281,347.2861328,289.6738281,360.9663086z M390.7553711,803.671875
		c-14.4404297-10.2597656-26.9804688-19.3798828-31.9204102-19.3798828c-10.2602539,0-3.0400391,38.7607422,18.2402344,112.1015625
		l-96.5214844,17.0996094c-22.800293-144.0214844-6.8398438-216.9824219,47.5009766-216.9824219
		c17.8598633,0,39.5205078,11.0205078,58.9003906,22.0400391c21.2802734,11.7802734,40.2807617,23.9404297,50.1606445,23.9404297
		c9.8803711,0,16.340332-21.6601562,24.3203125-71.4404297c-34.5805664,14.8193359-84.7407227,11.0195312-126.9213867-14.0605469
		c-34.9604492,3.4199219-65.7412109-6.4599609-83.6010742-27.3603516
		c-48.2607422,1.8994141-86.2612305-10.640625-101.8413086-45.9804688
		c-50.9208984-11.4003906-69.9208984-41.4208984-58.5209961-91.9614258
		c-18.6201172-20.9003906-21.2802734-51.3007812-6.8398438-79.4208984
		c35.340332,7.6000977,55.8608398,22.4204102,65.7407227,47.1206055
		c35.340332,3.7998047,53.9609375,17.1000977,72.5810547,43.7001953c28.5-1.5195312,51.3007812,7.6005859,68.7807617,23.5605469
		c28.8803711-4.1796875,59.2807617,1.9003906,79.4208984,18.6201172
		c24.3203125-3.4199219,50.5405273,2.2802734,66.8808594,14.0605469c-0.3798828-3.0400391-0.7597656-6.4599609-0.7597656-9.8798828
		c0-47.5009766,34.9604492-72.9614258,69.5405273-72.9614258c34.5810547,0,69.9208984,26.9799805,69.9208984,72.9614258
		c0,2.6591797,0,4.1796875-0.3798828,7.5996094c20.5205078-15.9599609,51.6806641-20.5205078,80.1816406-13.6796875
		c24.7001953-21.28125,52.0605469-30.78125,86.2607422-27.7412109c20.1396484-24.7001953,50.9208984-38,83.2207031-34.5800781
		c19.7607422-36.8603516,51.3007812-58.140625,95.7617188-64.2207031c9.8798828,28.5,4.1796875,62.3208008-19.7607422,83.980957
		c6.0800781,44.0805664-17.0996094,83.6010742-61.5605469,91.9614258
		c-13.2998047,26.5996094-42.1806641,41.0400391-82.0810547,39.9003906
		c-20.5205078,32.6806641-58.140625,41.0400391-104.1210938,26.9804688
		c-33.4404297,17.8603516-69.5410156,21.2802734-106.4013672,7.9794922
		c8.359375,43.3212891,16.7197266,69.1611328,32.6796875,69.1611328c19.7607422,0,63.4609375-36.8603516,97.6621094-36.8603516
		c18.6201172,0,31.9199219,9.1201172,39.9003906,26.2207031C732,759.2109375,728.5800781,821.1523438,710.7197266,910.0732422
		l-93.8613281-20.5205078c23.1796875-73.3408203,25.8398438-98.0410156,11.7802734-98.0410156
		c-15.2001953,0-50.1611328,31.9208984-77.9013672,31.9208984c-23.1806641,0-39.9003906-21.2802734-44.0810547-66.5009766
		h-3.7998047c-7.9799805,58.9003906-30.0200195,76.0009766-50.9204102,76.0009766
		C431.7958984,832.9326172,409.3754883,816.9726562,390.7553711,803.671875z M144.8920898,504.9882812
		c-6.840332-52.440918-28.1206055-68.0209961-51.3007812-74.1010742
		C85.2314453,458.6274414,94.3515625,486.3681641,144.8920898,504.9882812z M198.8525391,564.2685547
		c-32.300293-16.7197266-47.8803711-45.2197266-93.8608398-59.6601562
		C98.1513672,547.9287109,130.8320312,580.609375,198.8525391,564.2685547z M240.6533203,563.1289062
		c-23.5605469-19.3798828-36.1005859-80.5610352-85.8808594-87.0209961
		C162.7524414,525.1289062,194.2929688,554.0087891,240.6533203,563.1289062z M303.3540039,600.3691406
		c-66.5004883-20.9003906-86.2612305-33.8203125-132.2416992-16.7197266
		C183.2724609,615.5693359,250.9135742,625.8300781,303.3540039,600.3691406z M328.8144531,591.6289062
		c-28.5004883-33.4404297-52.4404297-74.1005859-97.6611328-73.3408203
		C254.7133789,560.46875,268.3935547,581.7490234,328.8144531,591.6289062z M275.2338867,628.109375
		c25.0800781,21.2802734,69.9208984,19.3808594,109.4414062-11.7792969
		C339.8344727,606.0693359,321.9746094,600.7490234,275.2338867,628.109375z M495.2568359,680.9306641l-17.4804688-4.5605469
		c-11.0200195,63.8408203-19.3803711,86.2617188-38.0004883,86.2617188c-25.0805664,0-80.1811523-48.2607422-111.3413086-48.2607422
		c-35.7207031,0-47.8808594,57.3808594-29.640625,178.6015625l52.8208008-9.1191406
		c-23.9404297-90.4414062-19.3803711-121.2216797,2.2797852-121.2216797c22.0405273,0,68.78125,50.5400391,96.1416016,50.5400391
		C472.0761719,813.171875,491.0766602,782.0117188,495.2568359,680.9306641z M396.8354492,607.2089844
		c-28.5004883-54.7207031-51.6806641-66.8808594-91.2011719-66.5
		C331.4746094,565.0292969,341.3544922,599.9892578,396.8354492,607.2089844z M458.7763672,653.5703125
		c-0.7602539-3.0400391-1.1401367-6.4599609-1.1401367-9.8808594c0-6.0800781,1.1401367-12.1601562,4.1801758-17.4794922
		c-53.9609375-10.2607422-64.6010742-3.0400391-102.9814453,23.5595703
		C395.6953125,667.6298828,439.015625,665.3505859,458.7763672,653.5703125z M519.9570312,383.3867188
		c-90.8212891,0-147.4418945-65.7412109-147.4418945-139.8417969c0-79.8012695,65.3608398-149.3417969,149.722168-149.3417969
		c30.4003906,0,58.9003906,6.4599609,88.1611328,18.6201172v85.5009766h-6.0800781
		c-27.7402344-33.4404297-52.8212891-42.5605469-77.5214844-42.5605469c-46.3603516,0-70.3007812,39.140625-70.3007812,84.7412109
		c0,43.3203125,23.5605469,80.940918,69.5410156,80.940918c28.1201172,0,58.140625-19.0004883,80.1806641-51.3007812h5.7001953
		V356.40625C583.0380859,374.6464844,549.5976562,383.3867188,519.9570312,383.3867188z M457.6362305,611.3896484
		c-18.2402344-19.7607422-22.800293-52.8212891-74.8608398-52.0605469
		C413.1757812,599.609375,412.0356445,610.6298828,457.6362305,611.3896484z M519.1972656,365.5263672
		c25.0800781,0,51.6806641-5.7001953,76.3808594-22.0400391v-35.3408203
		c-16.3408203,17.1005859-42.1806641,31.5405273-70.6816406,31.5405273c-54.340332,0-88.9208984-41.800293-88.9208984-99.1811523
		c0-61.1806641,39.5205078-102.9814453,90.4414062-102.9814453c25.0800781,0,49.0205078,11.7802734,67.640625,26.9804688V126.503418
		c-24.3203125-11.0200195-48.640625-14.8203125-71.4404297-14.8203125c-76.7612305,0-129.2021484,61.940918-129.2021484,131.8618164
		C393.4150391,309.2856445,443.1958008,365.5263672,519.1972656,365.5263672z M518.8164062,605.3095703L531.3574219,610.25
		c20.5195312-20.140625,27.3603516-38.3808594,27.3603516-57.3808594c0-34.2011719-22.0410156-58.5209961-52.4414062-58.5209961
		c-31.1601562,0-52.8203125,23.9399414-52.8203125,58.5209961c0,19.3798828,6.0800781,36.8603516,26.9804688,57.3808594
		l12.9199219-5.3203125v-0.7597656c-11.3999023-11.4003906-15.9599609-26.2207031-15.9599609-38.0009766
		c0-20.140625,12.1601562-34.5800781,28.5-34.5800781c16.3408203,0,28.8808594,14.4394531,28.8808594,34.5800781
		c0,11.7802734-4.5605469,27.3603516-15.9609375,38.0009766V605.3095703z M536.6767578,641.4101562
		c0-12.9199219-10.6396484-23.1806641-31.1601562-23.1806641c-18.6201172,0-30.7802734,11.0205078-30.7802734,24.7001953
		c0,14.0605469,12.1601562,24.3203125,31.5400391,24.3203125C526.0371094,667.25,536.6767578,656.2304688,536.6767578,641.4101562z
		 M506.2763672,595.0488281c4.1806641,0,11.7802734-9.5,11.7802734-26.5996094
		c0-12.5400391-4.5595703-18.2402344-11.4003906-18.2402344c-6.8398438,0-12.5395508,5.7001953-12.5395508,18.6201172
		C494.1166992,585.5488281,502.0966797,595.0488281,506.2763672,595.0488281z M592.9179688,788.8515625
		c18.2402344-10.2597656,30.7802734-17.4804688,42.1806641-17.4804688c26.2197266,0,25.4599609,36.8613281,6.4599609,106.7822266
		l53.2001953,11.7802734c22.4208984-115.1416016,18.6201172-171.7626953-20.1396484-171.7626953
		c-30.0205078,0-74.8613281,38.0009766-99.9414062,38.0009766c-23.1806641,0-33.0605469-28.8808594-42.5605469-79.8017578
		l-17.4804688,4.9404297c4.5605469,93.4814453,15.9599609,122.7412109,38.7607422,122.7412109
		C564.4179688,804.0517578,578.8574219,796.4521484,592.9179688,788.8515625z M548.8369141,623.9296875
		c3.4208984,5.3203125,4.9404297,11.4003906,4.9404297,17.8603516c0,3.4199219-0.3798828,6.8398438-1.1396484,9.8798828
		c31.1601562,12.9199219,67.2607422,9.1201172,80.9404297-0.7597656
		C611.5380859,640.6503906,594.4375,615.1894531,548.8369141,623.9296875z M643.078125,557.0488281
		c-47.8798828-5.7001953-66.8808594,15.5800781-88.5410156,51.6806641
		C606.5976562,615.1894531,629.0185547,572.6289062,643.078125,557.0488281z M608.1181641,617.0898438
		c63.4609375,49.4003906,116.28125,35.3398438,131.1015625,11.7802734
		C693.9990234,618.2294922,668.9189453,600.3691406,608.1181641,617.0898438z M732.7597656,530.0683594
		c-40.2802734-0.7597656-66.8808594,18.6201172-103.7412109,68.0214844
		C710.7197266,593.1494141,713.7597656,549.0683594,732.7597656,530.0683594z M964.5625,370.8466797v5.3198242H852.8408203
		v-3.4199219c15.5810547-14.4404297,15.9609375-20.5205078,12.9208984-61.1811523l-1.9003906-23.9399414
		c-1.5195312-16.340332-2.6601562-33.4404297-3.0400391-55.480957l-2.2802734-0.3798828
		c-6.8398438,22.4204102-15.5800781,44.0805664-23.5605469,61.940918l-39.1396484,87.4008789h-3.8007812l-43.7001953-95.0009766
		c-7.5996094-17.1005859-14.4404297-33.4404297-21.6601562-53.9609375l-2.2802734,0.3798828
		c0,21.2802734-0.7597656,38.3808594-1.1396484,53.9609375L722.5,307.3857422
		c-1.9003906,47.5004883-1.9003906,50.1606445,16.7197266,65.3608398v3.4199219H633.578125v-5.3198242
		c16.7207031-12.5405273,19.3808594-26.9804688,22.4208984-61.940918l13.2998047-150.4819336
		c3.0400391-30.7802734,3.0400391-38.7607422-12.1601562-51.6806641v-6.0800781h83.6015625l28.5,57.7607422
		c12.9199219,25.4599609,22.0400391,47.5004883,29.2597656,66.1206055h1.9003906
		c7.2207031-20.8999023,15.5800781-42.1801758,26.6005859-66.1206055l25.8398438-57.7607422h81.3212891v6.0800781
		c-16.7197266,12.5400391-16.3398438,18.2402344-11.4003906,58.5205078l16.3408203,140.2216797
		C944.421875,351.8461914,946.7021484,357.1660156,964.5625,370.8466797z M887.8017578,360.9663086h39.140625
		c-2.6601562-13.6801758-4.5605469-28.5004883-6.8408203-47.5004883l-17.859375-155.0419922
		c-1.9003906-17.1005859-3.0400391-30.7802734-3.0400391-42.5605469h-33.8212891l-64.9804688,144.0214844H798.5
		l-69.9199219-144.0214844h-37.6210938c-0.3798828,9.8798828-1.1396484,20.5200195-2.2802734,35.340332l-13.6796875,159.6020508
		c-1.5205078,19.3803711-3.0400391,36.4804688-5.3203125,50.1606445h31.9208984
		c-0.3808594-13.6801758,0.3798828-26.9804688,1.8994141-49.0205078l9.5-135.6616211h3.0400391l51.6806641,106.78125
		c9.1201172,19,17.8603516,39.140625,25.4609375,58.5205078h2.6601562
		c7.2197266-18.2402344,16.3398438-39.5205078,24.3203125-57.7607422l46.3603516-106.0214844h3.0400391l15.2001953,138.3222656
		C886.6621094,332.4658203,887.8017578,347.2861328,887.8017578,360.9663086z M688.2988281,598.4697266
		c66.8808594,25.0800781,108.3017578,25.0800781,130.3417969-3.8007812
		C775.3203125,585.9296875,749.4794922,570.7285156,688.2988281,598.4697266z M817.5009766,494.7280273
		c-41.8007812-3.4199219-69.1611328,38.3803711-92.7216797,76.3813477
		C782.9199219,561.609375,804.9609375,541.8486328,817.5009766,494.7280273z M780.640625,571.109375
		c68.0205078,22.0400391,104.5009766-10.2607422,104.8808594-58.5214844
		C850.1816406,536.1484375,808.7607422,550.2089844,780.640625,571.109375z M908.3222656,435.0673828
		c-31.1611328,5.7001953-60.4208984,26.2202148-85.5019531,90.8212891
		C878.3017578,508.0283203,916.6816406,475.7275391,908.3222656,435.0673828z"/>
</g>
</svg>
