<?xml version="1.0" encoding="utf-8"?>
<!-- Generator: Adobe Illustrator 23.1.1, SVG Export Plug-In . SVG Version: 6.00 Build 0)  -->
<svg version="1.1" id="Layer_1" xmlns="http://www.w3.org/2000/svg" xmlns:xlink="http://www.w3.org/1999/xlink" x="0px" y="0px"
	 viewBox="0 0 1000 484" style="enable-background:new 0 0 1000 484;" xml:space="preserve">
<g>
	<path d="M366.4,370.8v5.3H254.7v-3.4c15.6-14.4,16-20.5,12.9-61.2l-1.9-23.9c-1.5-16.3-2.7-33.4-3-55.5l-2.3-0.4
		c-6.8,22.4-15.6,44.1-23.6,61.9l-39.1,87.4h-3.8l-43.7-95c-7.6-17.1-14.4-33.4-21.7-54l-2.3,0.4c0,21.3-0.8,38.4-1.1,54l-0.8,20.9
		c-1.9,47.5-1.9,50.2,16.7,65.4v3.4H35.5v-5.3c16.7-12.5,19.4-27,22.4-61.9l13.3-150.5c3-30.8,3-38.8-12.2-51.7v-6.1h83.6l28.5,57.8
		c12.9,25.5,22,47.5,29.3,66.1h1.9c7.2-20.9,15.6-42.2,26.6-66.1l25.8-57.8H336v6.1c-16.7,12.5-16.3,18.2-11.4,58.5L341,305.5
		C346.3,351.8,348.6,357.2,366.4,370.8z M289.7,361h39.1c-2.7-13.7-4.6-28.5-6.8-47.5l-17.9-155c-1.9-17.1-3-30.8-3-42.6h-33.8
		l-65,144h-1.9l-69.9-144H92.8c-0.4,9.9-1.1,20.5-2.3,35.3L76.9,310.8c-1.5,19.4-3,36.5-5.3,50.2h31.9c-0.4-13.7,0.4-27,1.9-49
		l9.5-135.7h3l51.7,106.8c9.1,19,17.9,39.1,25.5,58.5h2.7c7.2-18.2,16.3-39.5,24.3-57.8l46.4-106h3l15.2,138.3
		C288.5,332.5,289.7,347.3,289.7,361z M520,383.4c-90.8,0-147.4-65.7-147.4-139.8c0-79.8,65.4-149.3,149.7-149.3
		c30.4,0,58.9,6.5,88.2,18.6v85.5h-6.1c-27.7-33.4-52.8-42.6-77.5-42.6c-46.4,0-70.3,39.1-70.3,84.7c0,43.3,23.6,80.9,69.5,80.9
		c28.1,0,58.1-19,80.2-51.3h5.7v86.3C583,374.6,549.6,383.4,520,383.4z M519.2,365.5c25.1,0,51.7-5.7,76.4-22v-35.3
		c-16.3,17.1-42.2,31.5-70.7,31.5c-54.3,0-88.9-41.8-88.9-99.2c0-61.2,39.5-103,90.4-103c25.1,0,49,11.8,67.6,27v-38
		c-24.3-11-48.6-14.8-71.4-14.8c-76.8,0-129.2,61.9-129.2,131.9C393.4,309.3,443.2,365.5,519.2,365.5z M964.6,370.8v5.3H852.8v-3.4
		c15.6-14.4,16-20.5,12.9-61.2l-1.9-23.9c-1.5-16.3-2.7-33.4-3-55.5l-2.3-0.4c-6.8,22.4-15.6,44.1-23.6,61.9l-39.1,87.4H792
		l-43.7-95c-7.6-17.1-14.4-33.4-21.7-54l-2.3,0.4c0,21.3-0.8,38.4-1.1,54l-0.8,20.9c-1.9,47.5-1.9,50.2,16.7,65.4v3.4H633.6v-5.3
		c16.7-12.5,19.4-27,22.4-61.9l13.3-150.5c3-30.8,3-38.8-12.2-51.7v-6.1h83.6l28.5,57.8c12.9,25.5,22,47.5,29.3,66.1h1.9
		c7.2-20.9,15.6-42.2,26.6-66.1l25.8-57.8h81.3v6.1c-16.7,12.5-16.3,18.2-11.4,58.5l16.3,140.2C944.4,351.8,946.7,357.2,964.6,370.8
		z M887.8,361h39.1c-2.7-13.7-4.6-28.5-6.8-47.5l-17.9-155c-1.9-17.1-3-30.8-3-42.6h-33.8l-65,144h-1.9l-69.9-144H691
		c-0.4,9.9-1.1,20.5-2.3,35.3L675,310.8c-1.5,19.4-3,36.5-5.3,50.2h31.9c-0.4-13.7,0.4-27,1.9-49l9.5-135.7h3l51.7,106.8
		c9.1,19,17.9,39.1,25.5,58.5h2.7c7.2-18.2,16.3-39.5,24.3-57.8l46.4-106h3l15.2,138.3C886.7,332.5,887.8,347.3,887.8,361z"/>
</g>
</svg>
