<!-- Generated by IcoMoon.io -->
<svg version="1.1" xmlns="http://www.w3.org/2000/svg" width="53" height="32" viewBox="0 0 53 32">
<title>Messengers_1</title>
<path d="M32.743 18.926c0.011-0.278 0.022-0.556 0.022-0.84 0-6.323-2.735-11.467-6.098-11.467s-6.098 5.144-6.098 11.467c0 0.284 0.011 0.562 0.022 0.84h-0.024v12.541h12.201v-12.541h-0.024zM21.102 18.086c0-6.029 2.497-10.933 5.565-10.933s5.565 4.905 5.565 10.933c0 0.284-0.011 0.562-0.022 0.84h-11.086c-0.011-0.278-0.022-0.556-0.022-0.84zM32.234 30.933h-11.134v-11.474h11.134v11.474z"></path>
<path d="M23.116 25.698l0.267-0.267v-2.246l-0.234-0.639h7.631v-0.533h-8.246v0.222l-0.341 0.851-0.019 2.346 0.267 0.267h0.676zM22.849 25.164h-0.143v-1.928l0.073-0.182 0.069 0.18v1.93z"></path>
</svg>
