<!-- Generated by IcoMoon.io -->
<svg version="1.1" xmlns="http://www.w3.org/2000/svg" width="53" height="32" viewBox="0 0 53 32">
<title>Mini_Bag_Heritage</title>
<path d="M35.303 25.144c-0.841-0.941-1.17-2.724-1.173-2.742-0.013-0.071-0.054-0.134-0.114-0.174s-0.134-0.055-0.204-0.039l-0.43 0.092c-0.051-0.582-0.229-1.63-0.861-2.326-1.273-1.399-3.111-1.031-4.082-0.696v-0.058h-0.285c-0.074-1.407-0.39-2.917-1.284-3.847-0.579-0.603-1.342-0.909-2.267-0.909-0.931 0-1.694 0.308-2.267 0.915-0.88 0.932-1.173 2.438-1.224 3.842h-0.276v1.067h-2.599c-0.147 0-0.267 0.119-0.267 0.267v2.125c0 0.184 0.102 0.338 0.246 0.43l-0.254 8.378h13.35l-0.255-8.378c0.145-0.092 0.246-0.246 0.246-0.43v-2.125c0-0.147-0.119-0.267-0.267-0.267h-2.599v-0.439c0.793-0.297 2.558-0.757 3.687 0.485 0.467 0.513 0.678 1.372 0.73 2.079l-0.478 0.102c-0.070 0.015-0.132 0.058-0.171 0.119s-0.050 0.135-0.033 0.205c0.004 0.018 0.43 1.78 0.045 2.982-0.029 0.091-0.007 0.19 0.056 0.26 0.051 0.057 0.123 0.088 0.198 0.088 0.019 0 0.037-0.002 0.055-0.006l2.629-0.559c0.093-0.020 0.169-0.088 0.198-0.178 0.030-0.091 0.010-0.19-0.054-0.261zM22.724 15.724c0.475-0.503 1.090-0.748 1.879-0.748 0.785 0 1.4 0.244 1.882 0.745 0.783 0.816 1.066 2.182 1.134 3.478h-0.247v1.067h-5.469v-1.067h-0.257c0.047-1.293 0.307-2.658 1.078-3.475zM24.638 30.933h-6.125l0.236-7.759 0.975-0.012v1.249c0 0.286 0.233 0.519 0.519 0.519h8.79c0.286 0 0.519-0.233 0.519-0.519l-0.014-1.234h0.99l0.236 7.756h-6.125zM30.771 20.8v1.425l0.014 0.42h-1.249c-0.286 0-0.519 0.233-0.519 0.519l0.014 1.234h-8.356l-0.42 0.014v-1.249c0-0.286-0.233-0.519-0.519-0.519l-1.234 0.014v-1.858h12.267zM33.734 25.34l-0.899 0.191c0.18-0.975 0.013-2.074-0.084-2.572l0.911-0.194c0.114 0.495 0.409 1.567 0.97 2.384l-0.898 0.191z"></path>
<path d="M23.305 29.484h2.667v-2.667h-2.667v2.667zM23.838 27.35h1.6v1.6h-1.6v-1.6z"></path>
</svg>
