<!-- Generated by IcoMoon.io -->
<svg version="1.1" xmlns="http://www.w3.org/2000/svg" width="53" height="32" viewBox="0 0 53 32">
<title>Scarves</title>
<path d="M37.090 31.174c-0.022-0.903-0.062-1.78-0.117-2.605-0.275-4.273-0.923-7.567-2.040-10.369-1.036-2.604-2.684-4.737-4.897-6.339-0.596-0.874-1.607-1.459-3.347-1.459-1.726 0-2.734 0.553-3.332 1.396-2.254 1.537-3.83 3.572-4.956 6.402-1.116 2.803-1.765 6.098-2.040 10.369-0.055 0.818-0.095 1.694-0.117 2.606 0 0.008-0.001 0.016-0.001 0.026 0 0.146 0.117 0.265 0.263 0.267 0.001 0 0.002 0 0.003 0 0.105 0 0.196-0.060 0.239-0.149 0.012-0.020 0.038-0.061 0.077-0.123 1.192-1.886 3.676-6.164 4.403-10.034 0.498 2.34 1.674 4.85 5.238 9.013 0.051 0.059 0.125 0.093 0.203 0.093s0.152-0.034 0.203-0.093c3.561-4.164 4.735-6.674 5.233-9.017 0.727 3.876 3.21 8.153 4.402 10.038 0.039 0.061 0.065 0.103 0.077 0.123 0.044 0.089 0.135 0.149 0.239 0.149 0.001 0 0.002 0 0.003 0 0.146-0.002 0.263-0.121 0.263-0.267 0-0.010-0.001-0.018-0.001-0.026zM26.689 10.935c3.129 0 3.598 1.955 3.653 4.803-0.498-1.122-1.51-2.010-3.652-2.010-2.137 0-3.151 0.834-3.654 1.946 0.058-2.89 0.532-4.739 3.653-4.739zM30.262 17.685c-0.362 2.491-1.825 4.361-3.573 4.361-1.756 0-3.227-1.887-3.58-4.396 0.204-2.036 0.898-3.389 3.581-3.389 2.831-0.001 3.394 1.643 3.572 3.423zM16.808 30.211c0.022-0.555 0.050-1.092 0.085-1.606 0.271-4.214 0.908-7.458 2.003-10.207 0.943-2.37 2.211-4.156 3.946-5.551-0.020 0.063-0.035 0.131-0.053 0.196-0.535 0.74-2.087 3.138-1.89 5.79 0 0.003 0.001 0.007 0.001 0.010v0c0.141 3.799-2.54 8.806-4.092 11.369zM31.901 18.833c0 0.036-0.004 0.073-0.010 0.122-0.309 3.055-0.845 5.462-5.222 10.634-4.383-5.172-4.919-7.578-5.23-10.654-0.004-0.036-0.007-0.069-0.008-0.127-0.128-1.72 0.535-3.333 1.124-4.397-0.059 0.682-0.060 1.392-0.060 2.081 0 3.357 1.882 6.089 4.195 6.089s4.194-2.732 4.194-6.089c0-0.643-0.002-1.322-0.058-1.986 0.557 1.035 1.201 2.628 1.076 4.318 0 0.003 0 0.005 0 0.008 0.001 0.001 0 0.002 0 0.003zM32.434 18.847c0.001-0.006 0-0.011 0.001-0.017 0-0.001 0-0.002 0-0.003 0 0 0 0 0 0 0.187-2.643-1.322-4.99-1.841-5.711-0.001-0.001-0.001-0.002-0.002-0.002-0.015-0.058-0.029-0.117-0.046-0.173 1.719 1.454 3.027 3.284 3.892 5.457 1.095 2.749 1.732 5.992 2.003 10.207 0.035 0.517 0.063 1.054 0.085 1.606-1.551-2.563-4.233-7.57-4.092-11.364z"></path>
</svg>
