<!-- Generated by IcoMoon.io -->
<svg version="1.1" xmlns="http://www.w3.org/2000/svg" width="53" height="32" viewBox="0 0 53 32">
<title>Shoppers_Liz</title>
<path d="M31.235 17.518c-0.134-1.645-1.023-10.585-4.568-10.585-3.536 0-4.43 8.892-4.567 10.585h-5.041l0.431 13.948h18.355l0.431-13.948h-5.041zM30.15 18.052h0.571v3.351c0 0.147 0.119 0.267 0.267 0.267s0.267-0.119 0.267-0.267l-0.001-3.351h0.486v4.16h-1.59v-4.16zM26.667 7.467c2.678 0 3.796 7.025 4.034 10.052h-8.068c0.242-3.052 1.359-10.052 4.034-10.052zM28.065 18.052v12.882h-2.796v-12.882h2.796zM21.509 18.052h0.571v3.351c0 0.147 0.119 0.267 0.267 0.267s0.267-0.119 0.267-0.267l-0.001-3.351h0.486v4.16h-1.59v-4.16zM17.609 18.052h3.367v4.204c0 0.27 0.218 0.49 0.486 0.49h1.684c0.268 0 0.486-0.22 0.486-0.49v-4.204h1.103v12.882h-6.73l-0.398-12.882zM35.326 30.933h-6.729v-12.882h1.019v4.204c0 0.27 0.218 0.49 0.486 0.49h1.684c0.268 0 0.486-0.22 0.486-0.49v-4.204h3.452l-0.399 12.882z"></path>
<path d="M27.556 22.745v-1.791h-1.778v1.791h1.778zM26.311 21.487h0.711v0.724h-0.711v-0.724z"></path>
</svg>
