<!-- Generated by IcoMoon.io -->
<svg version="1.1" xmlns="http://www.w3.org/2000/svg" width="53" height="32" viewBox="0 0 53 32">
<title>Shoulder_Bags</title>
<path d="M36.052 21.002l-0.241-0.414c-0.148-0.255-0.438-0.371-0.714-0.318-0.549-0.739-4.147-5.336-8.723-5.336-4.54 0-7.703 4.516-8.233 5.325-0.245-0.011-0.488 0.104-0.619 0.33l-0.241 0.414c-0.091 0.156-0.115 0.338-0.068 0.513 0.036 0.135 0.12 0.243 0.224 0.331l0.668 1.577v5.315c0 1.504 1.232 2.728 2.745 2.728h11.566c1.514 0 2.745-1.224 2.745-2.728v-5.315l0.633-1.493c0.002-0.001 0.005-0.002 0.007-0.003 0.158-0.091 0.27-0.237 0.317-0.413s0.023-0.357-0.068-0.513zM35.35 20.855l0.241 0.415c0.026 0.044 0.020 0.085 0.014 0.107-0.010 0.037-0.034 0.069-0.068 0.088-0.068 0.039-0.161 0.015-0.201-0.053l-0.241-0.414c-0.026-0.044-0.020-0.086-0.014-0.107s0.022-0.062 0.067-0.088c0.023-0.013 0.048-0.019 0.073-0.019 0.051 0 0.101 0.026 0.128 0.072zM26.374 15.467c4.25 0 7.753 4.405 8.282 5.105-0.036 0.057-0.071 0.115-0.089 0.182-0.047 0.174-0.023 0.357 0.068 0.513l0.241 0.414c0.078 0.133 0.196 0.225 0.329 0.28l-0.102 0.242c-0.028-0.053-0.063-0.102-0.11-0.142-0.109-0.090-0.251-0.126-0.389-0.1-0.913 0.176-4.187 0.749-7.967 0.749-3.549 0-6.999-0.577-7.972-0.753-0.139-0.026-0.279 0.012-0.388 0.102-0.047 0.039-0.081 0.089-0.109 0.141l-0.093-0.218c0.156-0.049 0.295-0.15 0.384-0.302l0.241-0.414c0.091-0.156 0.115-0.338 0.068-0.513-0.026-0.098-0.077-0.183-0.14-0.259 0.578-0.854 3.609-5.026 7.747-5.026zM17.742 21.27l0.241-0.414c0.027-0.046 0.077-0.072 0.128-0.072 0.025 0 0.050 0.006 0.073 0.019 0.045 0.026 0.061 0.066 0.067 0.088s0.011 0.063-0.014 0.107l-0.241 0.414c-0.039 0.068-0.132 0.092-0.201 0.053-0.045-0.026-0.062-0.066-0.068-0.088s-0.012-0.063 0.014-0.107zM18.639 22.495c0.168 0.030 0.399 0.070 0.674 0.114l-0.503 6.972c-0.109-0.26-0.171-0.545-0.171-0.844v-6.243zM20.851 30.933c-0.607 0-1.157-0.244-1.557-0.638l0.548-7.602c1.576 0.237 4.156 0.551 6.793 0.551 2.773 0 5.276-0.305 6.797-0.54l0.548 7.588c-0.401 0.396-0.953 0.642-1.562 0.642h-11.566zM34.629 28.739c0 0.294-0.061 0.575-0.167 0.831l-0.502-6.952c0.275-0.046 0.504-0.087 0.669-0.119v6.239z"></path>
<path d="M25.517 30.177h2.289v-2.277h-2.289v2.277zM26.051 28.433h1.222v1.211h-1.222v-1.211z"></path>
</svg>
