<!-- Generated by IcoMoon.io -->
<svg version="1.1" xmlns="http://www.w3.org/2000/svg" width="53" height="32" viewBox="0 0 53 32">
<title>Shoulder_Straps_1</title>
<path d="M35.618 25.319c-0.050 0-0.095 0.019-0.135 0.043l-0.002-2.414v-0.001c0-0.147-0.119-0.266-0.267-0.266-0.078 0-0.14 0.041-0.189 0.094v-1.884c0.003-0.018 0.011-0.034 0.011-0.052l-0.001-1.186c-0.115-1.563-4.529-2.613-8.579-2.613-0.008 0-0.015 0.004-0.023 0.005-0.007-0.001-0.014-0.005-0.022-0.005-0.001 0-0.002 0-0.002 0-0.152 0-0.276 0.123-0.277 0.275l-0.005 0.655c-0.371 0.092-0.85 0.333-1.009 0.804l-3.506-0.714-0.32 0.261v0.638c-1.559 0.13-2.938 0.35-3.306 0.723-0.059 0.049-0.099 0.12-0.099 0.203v2.878c-0.047-0.042-0.104-0.073-0.172-0.073-0.147 0-0.267 0.119-0.267 0.267l0.003 4.825c0 0.308 0.214 0.605 2.805 0.848 0.98 0.092 2.155 0.158 3.433 0.198v0.838l0.311 0.263 3.574-0.602c0.204 0.394 0.639 0.607 0.975 0.693v1.17c0 0.076 0.032 0.145 0.083 0.194 0.048 0.052 0.117 0.084 0.194 0.084 0.003 0 0.005 0 0.008 0 7.053-0.21 7.053-0.825 7.053-1.055v-4.826c-0.001-0.148-0.119-0.267-0.267-0.267zM26.456 20.922c2.585 0 6.583-0.088 8.026-0.597v0.514c0 0.018 0.007 0.034 0.011 0.052v2.116c-1.107 0.246-3.938 0.502-8.028 0.504h-0.054c-4.083 0-6.901-0.254-7.991-0.499v-2.698c1.523 0.539 5.925 0.607 8.036 0.607zM34.482 19.674v0.124c-0.489 0.253-3.338 0.58-7.819 0.589l0.021-2.789c4.607 0.040 7.739 1.273 7.798 2.075zM26.123 18.527l-0.009 1.167c-0.232-0.089-0.521-0.263-0.521-0.589 0-0.333 0.297-0.5 0.529-0.578zM21.826 18.649l2.556 0.521-2.556 0.431v-0.951zM21.292 19.496v0.419l0.311 0.263 3.574-0.602c0.196 0.378 0.604 0.589 0.933 0.68l-0.001 0.131c-3.904-0.014-6.551-0.27-7.435-0.503 0.421-0.123 1.276-0.271 2.618-0.388zM17.985 27.699l-0.002-4.257c0.397 0.13 1.085 0.252 2.271 0.363 1.649 0.155 3.834 0.239 6.161 0.239h0.052c2.345-0.001 4.551-0.089 6.212-0.246 1.186-0.113 1.874-0.236 2.271-0.366l0.002 2.199c-0.821 0.193-2.771 0.421-6.141 0.493-0.145 0.003-0.261 0.122-0.261 0.267v1.325c-0.374 0.087-0.87 0.329-1.033 0.81l-3.506-0.714-0.32 0.261v0.222c-3.277-0.102-5.319-0.375-5.705-0.596zM24.221 29.35v-0.951l2.556 0.521-2.556 0.43zM27.989 28.856c0-0.349 0.323-0.513 0.558-0.587v1.191c-0.236-0.083-0.558-0.26-0.558-0.604zM35.351 30.311c-0.412 0.195-2.514 0.492-6.271 0.614v-4.274c3.893-0.093 5.558-0.355 6.271-0.604v4.264z"></path>
</svg>
