<!-- Generated by IcoMoon.io -->
<svg version="1.1" xmlns="http://www.w3.org/2000/svg" width="53" height="32" viewBox="0 0 53 32">
<title>Slides</title>
<path d="M41.201 28.124c-0.451-0.483-1.228-0.5-2.128-0.521-0.382-0.009-0.778-0.017-1.182-0.060-1.001-0.107-1.819-0.356-2.343-0.551 0.343-1.303 0.522-2.353 0.535-2.441l0.034-0.207-7.794-3.317-0.127 0.122c-0.898 0.861-1.718 3.142-2.337 5.321-8.385-0.083-13.297 0.386-13.986 1.365-0.093 0.131-0.1 0.248-0.089 0.322v1.616c0 0.872 0.582 1.679 4.807 1.679h14.022c0.079 0.003 0.554 0.015 1.262 0.015 2.524 0 8.029-0.15 9.339-1.426 0.22-0.214 0.332-0.457 0.334-0.721 0.023-0.528-0.091-0.919-0.349-1.195zM37.833 28.074c0.428 0.046 0.834 0.055 1.228 0.063 0.627 0.014 1.182 0.029 1.531 0.199-0.465 0.255-1.351 0.646-2.565 0.732-0.985 0.073-1.625-0.107-2.512-0.351-0.141-0.039-0.292-0.080-0.449-0.122 0.125-0.366 0.238-0.731 0.339-1.086 0.557 0.205 1.396 0.454 2.428 0.564zM25.711 27.002c-0.081 0.297-0.157 0.589-0.229 0.874-2.887-0.007-4.075 0.028-4.084 0.029 0 0-0.001 0-0.001 0-0.085 0-4.455 0.001-5.964 0.077-0.588 0.029-2.239 0.112-2.851-0.039 0.741-0.362 3.435-1.034 13.13-0.941zM16.591 30.919c-4.274 0-4.274-0.833-4.274-1.146v-1.358c0.538 0.182 1.62 0.175 3.142 0.099 1.502-0.076 5.894-0.076 5.947-0.076 0.015 0 1.162-0.035 3.942-0.029-0.271 1.111-0.466 2.037-0.561 2.511h-8.196zM30.621 30.919h-5.288c0.34-1.651 1.644-7.606 3.112-9.26l7.076 3.011c-0.164 0.886-0.871 4.408-2.097 6.212l0.047 0.032c-1.139 0.030-2.162 0.025-2.85 0.005zM41.016 29.314c0 0.119-0.057 0.231-0.173 0.345-0.842 0.82-4.045 1.138-6.799 1.238 0.318-0.528 0.598-1.148 0.841-1.795 0.166 0.044 0.334 0.089 0.487 0.131 0.769 0.212 1.401 0.387 2.234 0.387 0.146 0 0.299-0.005 0.459-0.017 1.411-0.101 2.406-0.574 2.889-0.855 0.050 0.148 0.074 0.329 0.063 0.554l-0.001 0.012z"></path>
</svg>
