<!-- Generated by IcoMoon.io -->
<svg version="1.1" xmlns="http://www.w3.org/2000/svg" width="53" height="32" viewBox="0 0 53 32">
<title>Sneakers_1</title>
<path d="M40.745 27.178c-0.052-0.455-0.397-1.204-1.461-1.436-0.996-0.217-3.505-0.671-3.895-0.741-0.343-0.297-0.668-0.493-0.892-0.607-0.022-0.073-0.073-0.137-0.149-0.169-0.072-0.029-0.149-0.023-0.215 0.007-0.142-0.057-0.527-0.211-1.068-0.429-0.021-0.076-0.071-0.143-0.15-0.177-0.081-0.032-0.165-0.020-0.235 0.021-0.317-0.127-0.669-0.269-1.043-0.421-0.016-0.085-0.069-0.162-0.155-0.198-0.087-0.035-0.181-0.018-0.253 0.033-0.331-0.134-0.674-0.273-1.022-0.414-0.011-0.092-0.066-0.177-0.158-0.215-0.093-0.037-0.194-0.017-0.268 0.042-0.338-0.138-0.674-0.275-1.004-0.411-0.006-0.098-0.065-0.189-0.161-0.229-0.097-0.038-0.203-0.016-0.277 0.049-0.347-0.143-0.681-0.282-0.994-0.412-0.005-0.1-0.063-0.194-0.162-0.234-0.097-0.039-0.205-0.016-0.279 0.050-0.389-0.164-0.728-0.309-0.995-0.426-0.010-0.094-0.066-0.182-0.159-0.221-0.089-0.035-0.185-0.017-0.258 0.036-0.162-0.071-0.321-0.122-0.478-0.156l-2.102-1.356c-0.105-0.067-0.243-0.054-0.332 0.034-1.101 1.083-0.906 2.551-0.796 3.061-0.010 0.007-0.019 0.015-0.029 0.022-0.27 0.093-2.047 0.686-3.604 0.686-1.275 0-2.027-0.684-2.69-1.288-0.629-0.573-1.281-1.166-2.15-0.616l-0.064 0.041-0.033 0.068c-0.529 1.083-0.713 2.455-0.741 2.687-1.033 2.517-0.399 4.595-0.227 5.071-0.101 0.279-0.308 1.073 0.028 2.34l0.054 0.197h18.285c0.337-0.005 8.271-0.143 10.697-1.902l0.089-0.064 0.018-0.109c0.010-0.058 0.21-1.385-0.668-2.214zM40.196 27.141c-0.979 0.441-2.125 0.756-3.281 0.978-0.089-1.075-0.46-1.881-0.908-2.465 0.925 0.169 2.445 0.451 3.163 0.608 0.753 0.165 0.965 0.63 1.026 0.879zM36.389 28.214c-0.513 0.087-1.023 0.158-1.515 0.215-0.247-1.471-0.954-2.484-2.116-3.001l-0.059-0.027c-0.246-0.12-7.496-2.938-9.451-3.698 0.064-0.061 0.124-0.118 0.178-0.171l0.091-0.083c0.219-0.193 0.793-0.689 1.73-0.295l-0.222 0.534c-0.057 0.136 0.007 0.292 0.143 0.349 0.034 0.013 0.068 0.020 0.102 0.020 0.105 0 0.203-0.061 0.246-0.164l0.219-0.526c0.258 0.114 0.575 0.249 0.937 0.402l-0.215 0.516c-0.057 0.136 0.007 0.292 0.143 0.349 0.034 0.013 0.068 0.020 0.102 0.020 0.105 0 0.203-0.061 0.246-0.164l0.215-0.516c0.298 0.124 0.613 0.255 0.942 0.39l-0.215 0.517c-0.057 0.136 0.007 0.292 0.143 0.349 0.034 0.013 0.068 0.020 0.102 0.020 0.105 0 0.203-0.061 0.246-0.164l0.217-0.52c0.31 0.127 0.627 0.257 0.943 0.386l-0.219 0.526c-0.057 0.136 0.007 0.292 0.143 0.349 0.034 0.013 0.068 0.020 0.102 0.020 0.105 0 0.203-0.061 0.246-0.164l0.221-0.531c0.321 0.13 0.637 0.259 0.945 0.383l-0.225 0.54c-0.057 0.136 0.007 0.292 0.143 0.349 0.034 0.013 0.068 0.020 0.102 0.020 0.105 0 0.203-0.061 0.246-0.164l0.227-0.545c0.337 0.136 0.655 0.265 0.946 0.381l-0.232 0.556c-0.057 0.136 0.007 0.292 0.143 0.349 0.034 0.013 0.068 0.020 0.102 0.020 0.105 0 0.203-0.061 0.246-0.164l0.234-0.562c0.432 0.173 0.764 0.307 0.947 0.379l-0.239 0.575c-0.057 0.136 0.007 0.292 0.143 0.349 0.034 0.013 0.068 0.020 0.102 0.020 0.105 0 0.203-0.061 0.246-0.164l0.236-0.565c0.627 0.334 1.895 1.258 2.042 3.306zM18.695 28.662c-0.262-0.542-0.347-0.975-0.241-1.31 0.181-0.573 0.91-0.947 1.833-1.42l0.398-0.205c1.089-0.569 3.415-2.453 3.967-2.905 3.131 1.218 7.611 2.964 7.814 3.059l0.075 0.034c0.374 0.166 1.475 0.661 1.806 2.571-2.069 0.205-3.707 0.177-3.741 0.177h-11.911zM22.809 19.733l1.259 0.812c-0.322 0.092-0.636 0.267-0.942 0.537-0.009 0.007-0.034 0.031-0.074 0.070-0.195 0.191-0.467 0.446-0.791 0.721-0.064-0.517-0.061-1.42 0.548-2.14zM18.15 23.5c0.714 0 1.457-0.114 2.098-0.252-0.641 0.327-1.318 0.558-1.975 0.569-2.134 0.036-3.043-1.135-3.581-1.834l-0.072-0.093c-0.162-0.208-0.331-0.368-0.488-0.493 0.277 0.061 0.562 0.306 0.969 0.676 0.699 0.636 1.569 1.427 3.050 1.428zM13.581 21.657c0.167 0.104 0.402 0.281 0.619 0.56l0.071 0.092c0.157 0.204 0.354 0.457 0.607 0.715-0.12 0.209-0.394 0.6-0.838 0.767-0.305 0.115-0.645 0.102-1.014-0.037 0.058-0.391 0.222-1.303 0.556-2.098zM12.885 24.271c0.246 0.088 0.486 0.133 0.719 0.133 0.214 0 0.422-0.038 0.622-0.114 0.529-0.199 0.869-0.617 1.051-0.901 0.652 0.529 1.594 0.986 3.004 0.961 1.691-0.027 3.462-1.314 4.525-2.245 0.363 0.141 0.794 0.309 1.271 0.494-0.792 0.641-2.724 2.175-3.642 2.654l-0.394 0.204c-1.034 0.53-1.85 0.948-2.099 1.734-0.133 0.421-0.074 0.9 0.166 1.471h-5.393c-0.171-0.525-0.621-2.284 0.167-4.392zM40.898 29.199c-2.409 1.598-10.216 1.733-10.292 1.734h-17.867c-0.201-0.891-0.095-1.48-0.022-1.738h17.883c0.252 0.006 6.122 0.109 9.838-1.576 0.49 0.52 0.482 1.297 0.46 1.579z"></path>
</svg>
