<!-- Generated by IcoMoon.io -->
<svg version="1.1" xmlns="http://www.w3.org/2000/svg" width="53" height="32" viewBox="0 0 53 32">
<title>Sneakers_2</title>
<path d="M37.597 28.076c-0.047-0.371-0.33-0.966-1.174-1.15-0.767-0.167-2.639-0.506-2.994-0.57-0.482-0.413-0.922-0.572-0.926-0.573-0.055-0.022-5.521-2.208-6.67-2.745-0.141-0.066-0.281-0.11-0.418-0.141l-1.615-1.043c-0.104-0.068-0.243-0.054-0.332 0.034-0.844 0.83-0.726 1.946-0.639 2.382-0.749 0.574-1.727 1.153-2.644 1.167-1.629 0.046-2.282-0.828-2.717-1.393l-0.055-0.071c-0.384-0.494-0.836-0.67-0.855-0.677-0.129-0.047-0.274 0.009-0.334 0.133-0.415 0.85-0.557 1.917-0.577 2.086-0.784 1.918-0.327 3.516-0.18 3.931-0.083 0.243-0.227 0.864 0.027 1.822l0.052 0.199h14.167c0.261-0.004 6.406-0.111 8.294-1.48l0.089-0.065 0.018-0.109c0.007-0.046 0.156-1.074-0.517-1.738zM37.042 28.028c-0.723 0.319-1.557 0.551-2.405 0.718-0.073-0.738-0.318-1.308-0.62-1.742 0.719 0.132 1.777 0.329 2.293 0.442 0.506 0.11 0.674 0.396 0.732 0.581zM32.319 26.283c0.017 0.005 1.619 0.579 1.79 2.561-0.357 0.060-0.711 0.11-1.055 0.151-0.203-1.126-0.759-1.906-1.703-2.326-0.189-0.092-5.587-2.19-7.215-2.822 0.033-0.031 0.066-0.063 0.097-0.093 0.002-0.002 0.038-0.033 0.041-0.035 0.166-0.146 0.606-0.535 1.333-0.195 1.164 0.542 6.473 2.666 6.711 2.761zM20.55 29.18c-0.182-0.387-0.242-0.697-0.167-0.933 0.132-0.418 0.685-0.701 1.385-1.060l0.309-0.159c0.826-0.431 2.567-1.837 3.046-2.227 2.732 1.062 5.838 2.274 5.996 2.347l0.060 0.028c0.276 0.123 1.075 0.495 1.34 1.876-1.558 0.15-2.783 0.129-2.81 0.129h-9.158zM23.701 22.426l0.82 0.529c-0.213 0.081-0.422 0.205-0.627 0.385-0.007 0.006-0.028 0.026-0.062 0.058-0.132 0.129-0.31 0.296-0.52 0.477-0.032-0.385 0.002-0.965 0.388-1.45zM17.886 25.259c0.508 0.395 1.222 0.717 2.308 0.712 1.286-0.021 2.603-0.935 3.505-1.724 0.273 0.106 0.557 0.217 0.85 0.33-0.654 0.527-2.046 1.625-2.72 1.977l-0.305 0.158c-0.778 0.399-1.45 0.744-1.65 1.374-0.101 0.319-0.070 0.674 0.092 1.093h-4.027c-0.137-0.439-0.434-1.724 0.123-3.258 0.359 0.116 0.701 0.119 1.019 0 0.388-0.147 0.65-0.439 0.804-0.663zM16.589 23.921c0.117 0.080 0.266 0.204 0.403 0.38l0.054 0.070c0.116 0.151 0.259 0.336 0.441 0.526-0.1 0.162-0.298 0.417-0.595 0.527-0.209 0.077-0.439 0.072-0.691-0.013 0.049-0.31 0.165-0.931 0.389-1.49zM37.597 29.62c-1.871 1.209-7.832 1.312-7.889 1.313h-13.747c-0.129-0.604-0.070-1.017-0.019-1.22h13.761c0.193 0.006 4.699 0.084 7.582-1.204 0.318 0.366 0.326 0.889 0.312 1.111z"></path>
</svg>
