<!-- Generated by IcoMoon.io -->
<svg version="1.1" xmlns="http://www.w3.org/2000/svg" width="53" height="32" viewBox="0 0 53 32">
<title>Sunnies_Women</title>
<path d="M21.232 23.247c-1.94 0-3.519 1.578-3.519 3.519s1.578 3.519 3.519 3.519c1.94 0 3.518-1.578 3.518-3.519s-1.578-3.519-3.518-3.519zM21.232 29.751c-1.646 0-2.986-1.339-2.986-2.986s1.339-2.986 2.986-2.986 2.985 1.339 2.985 2.986-1.339 2.986-2.985 2.986z"></path>
<path d="M37.388 22.061l-0.183-0.042c-0.122-0.028-3.018-0.679-5.165-0.264-0.332 0.064-0.63 0.117-0.899 0.164-1.437 0.254-2.159 0.382-2.942 1.404-0.709 0.925-0.767 0.923-1.242 0.919l-0.145-0.001-0.441 0.001c-0.473 0.003-0.533 0.005-1.243-0.92-0.81-1.056-1.529-1.188-3.106-1.478-0.225-0.041-0.468-0.086-0.734-0.137-2.15-0.415-5.044 0.257-5.166 0.285l-0.181 0.043-0.234 1.96 0.235 0.053c0.059 0.013 0.578 0.153 0.606 0.944 0.004 0.117 0.002 0.269 0.001 0.449-0.014 1.399-0.049 4.676 2.635 5.559 2.869 0.943 4.2 0.228 5.417-1.233 0.849-1.019 1.155-2.186 1.338-2.883 0.048-0.183 0.102-0.39 0.132-0.439 0.076-0.122 0.094-0.128 0.391-0.122l0.163 0.002 0.236-0.002c0.298-0.005 0.316 0 0.393 0.122 0.030 0.051 0.085 0.264 0.133 0.452 0.183 0.717 0.49 1.916 1.338 2.934 0.828 0.993 1.713 1.636 3.117 1.636 0.643 0 1.395-0.135 2.301-0.433 2.685-0.883 2.65-4.169 2.635-5.572-0.002-0.18-0.004-0.332 0.001-0.448 0.028-0.792 0.548-0.933 0.604-0.946l0.242-0.049-0.237-1.959zM36.247 24.995c-0.004 0.123-0.003 0.283-0.001 0.473 0.015 1.395 0.045 4.299-2.269 5.060-2.623 0.863-3.725 0.301-4.841-1.038-0.772-0.925-1.059-2.052-1.231-2.725-0.077-0.302-0.124-0.485-0.197-0.602-0.211-0.338-0.467-0.374-0.74-0.374-0.038 0-0.076 0.001-0.115 0.001l-0.151 0.002-0.228-0.002c-0.314-0.006-0.613-0.012-0.854 0.372-0.072 0.115-0.122 0.303-0.196 0.587-0.172 0.654-0.459 1.75-1.233 2.677-1.129 1.354-2.234 1.925-4.841 1.068-2.314-0.761-2.283-3.655-2.269-5.046 0.002-0.189 0.003-0.35-0.001-0.474-0.028-0.789-0.451-1.197-0.794-1.364l0.138-1.136c0.665-0.139 3.019-0.578 4.762-0.242 0.268 0.052 0.513 0.097 0.74 0.138 1.524 0.28 2.094 0.385 2.779 1.278 0.808 1.053 0.997 1.138 1.673 1.129l0.138-0.001 0.436 0.001c0.67 0.004 0.869-0.082 1.671-1.128 0.657-0.857 1.189-0.951 2.612-1.203 0.271-0.048 0.571-0.101 0.907-0.166 1.741-0.335 4.096 0.088 4.763 0.222l0.137 1.128c-0.344 0.167-0.766 0.575-0.795 1.365z"></path>
<path d="M32.097 23.247c-1.94 0-3.519 1.578-3.519 3.519s1.578 3.519 3.519 3.519c1.94 0 3.518-1.578 3.518-3.519s-1.578-3.519-3.518-3.519zM32.097 29.751c-1.646 0-2.986-1.339-2.986-2.986s1.339-2.986 2.986-2.986 2.985 1.339 2.985 2.986-1.339 2.986-2.985 2.986z"></path>
<path d="M35.63 23.491l0.42-0.421 0.42 0.421-0.42 0.421-0.42-0.421z"></path>
<path d="M34.444 23.489l0.42-0.421 0.421 0.421-0.42 0.421-0.421-0.421z"></path>
<path d="M35.036 24.086l0.42-0.421 0.42 0.421-0.42 0.421-0.42-0.421z"></path>
<path d="M35.038 22.894l0.42-0.421 0.421 0.421-0.42 0.421-0.421-0.421z"></path>
<path d="M17.791 23.488l0.421-0.421 0.421 0.421-0.421 0.421-0.421-0.421z"></path>
<path d="M16.602 23.488l0.421-0.421 0.421 0.421-0.421 0.421-0.421-0.421z"></path>
<path d="M17.196 24.083l0.42-0.421 0.421 0.42-0.42 0.421-0.421-0.42z"></path>
<path d="M17.196 22.896l0.421-0.421 0.421 0.421-0.421 0.421-0.421-0.421z"></path>
</svg>
