<!-- Generated by IcoMoon.io -->
<svg version="1.1" xmlns="http://www.w3.org/2000/svg" width="53" height="32" viewBox="0 0 53 32">
<title>Sunnies_Men</title>
<path d="M26.667 22.375h-10.933l0.001 2.495 0.363-0.141c0.002-0.001 0.025-0.009 0.061-0.022-0.036 1.916-0.046 4.245 1.294 5.612 0.747 0.761 1.848 1.147 3.273 1.147 1.371 0 2.492-0.441 3.33-1.309 0.215-0.223 0.402-0.464 0.564-0.715 0.218-0.1 0.743-0.406 1.046-1.144l0.081-0.2c0.27-0.669 0.525-1.302 0.921-1.302s0.651 0.631 0.921 1.299l0.082 0.203c0.303 0.739 0.829 1.045 1.046 1.145 0.162 0.251 0.349 0.492 0.564 0.715 0.838 0.868 1.958 1.308 3.331 1.308 1.425 0 2.525-0.386 3.272-1.147 1.341-1.367 1.331-3.697 1.294-5.612 0.036 0.012 0.059 0.021 0.061 0.022l0.364 0.141v-2.495h-10.934zM23.67 29.788c-0.733 0.76-1.725 1.146-2.946 1.146-1.294 0-2.24-0.323-2.892-0.987-1.219-1.243-1.174-3.535-1.139-5.378l0.001-0.019c0.728-0.19 2.102-0.463 4.014-0.463 2.774 0 4.067 0.381 4.442 1.311 0.004 0.367-0.027 2.886-1.479 4.391zM26.667 26.263c-0.61 0-0.946 0.544-1.223 1.177 0.188-0.783 0.231-1.469 0.239-1.834h1.969c0.008 0.364 0.051 1.049 0.239 1.833-0.278-0.632-0.613-1.175-1.223-1.175zM35.5 29.946c-0.651 0.665-1.597 0.987-2.891 0.987-1.22 0-2.211-0.385-2.945-1.144-1.45-1.501-1.485-4.024-1.482-4.393 0.375-0.93 1.668-1.311 4.442-1.311 1.913 0 3.286 0.273 4.014 0.463l0.001 0.020c0.035 1.842 0.079 4.135-1.14 5.377zM37.067 24.111c-0.656-0.196-2.178-0.559-4.441-0.559-2.922 0-4.364 0.444-4.884 1.521h-2.149c-0.52-1.077-1.963-1.521-4.884-1.521-2.263 0-3.786 0.364-4.442 0.559v-1.203h20.8v1.203z"></path>
<path d="M16.414 23.416l0.424-0.424 0.424 0.424-0.424 0.424-0.424-0.424z"></path>
<path d="M36.071 23.416l0.424-0.424 0.424 0.424-0.424 0.424-0.424-0.424z"></path>
</svg>
