<!-- Generated by IcoMoon.io -->
<svg version="1.1" xmlns="http://www.w3.org/2000/svg" width="53" height="32" viewBox="0 0 53 32">
<title>Tech</title>
<path d="M25.867 11.698h1.6c0.127 0 0.231-0.103 0.231-0.231s-0.103-0.231-0.231-0.231h-1.6c-0.127 0-0.231 0.103-0.231 0.231s0.103 0.231 0.231 0.231z"></path>
<path d="M26.667 28.6c-0.35 0-0.634 0.284-0.634 0.634s0.284 0.634 0.634 0.634 0.634-0.284 0.634-0.634-0.284-0.634-0.634-0.634zM26.566 29.234c0-0.055 0.045-0.101 0.101-0.101s0.101 0.045 0.101 0.101c0 0.111-0.202 0.111-0.202 0z"></path>
<path d="M31.2 12.8h-9.067c-0.147 0-0.267 0.119-0.267 0.267v14.4c0 0.147 0.119 0.267 0.267 0.267h9.067c0.147 0 0.267-0.119 0.267-0.267v-14.4c0-0.147-0.119-0.267-0.267-0.267zM30.933 27.2h-8.533v-13.867h8.533v13.867z"></path>
<path d="M31.367 9.6h-9.402c-0.643 0-1.166 0.523-1.166 1.166v19.535c0 0.643 0.523 1.165 1.166 1.165h9.402c0.643 0 1.165-0.523 1.165-1.166v-19.535c0-0.643-0.523-1.166-1.166-1.166zM32 30.301c0 0.349-0.284 0.633-0.633 0.633h-9.402c-0.349 0-0.633-0.284-0.633-0.633v-19.535c0-0.349 0.284-0.633 0.633-0.633h9.402c0.348 0 0.632 0.284 0.632 0.633v19.535z"></path>
</svg>
