<!-- Generated by IcoMoon.io -->
<svg version="1.1" xmlns="http://www.w3.org/2000/svg" width="53" height="32" viewBox="0 0 53 32">
<title>Tote_Bags</title>
<path d="M35.594 14.524h-1.052l0.005-0.178h-4.178c0-0.008-0.001-0.013-0.001-0.021-0.022-0.881-0.082-3.22-1.367-4.58-0.621-0.657-1.411-0.99-2.346-0.99h-0.001c-0.001 0-0.001 0-0.002 0h-0.001c-0.936 0.001-1.725 0.334-2.346 0.99-1.286 1.361-1.345 3.701-1.367 4.582 0 0.007 0 0.012-0.001 0.019h-4.178l0.005 0.178h-1.026l0.015 0.281c0.028 0.539 0.678 12.733 1.499 15.685 0.023 0.17 0.099 0.403 0.321 0.626 0.321 0.322 0.766 0.351 0.91 0.351 0.029 0 0.046-0.002 0.046-0.002l12.225-0.001c0.025 0.001 0.589 0.038 0.975-0.348 0.222-0.222 0.299-0.455 0.322-0.625 0.822-2.95 1.496-15.147 1.525-15.686l0.015-0.282zM23.224 15.436c0-0.122 0.055-0.256 0.115-0.398 0.036-0.086 0.071-0.172 0.099-0.259 0.023-0.075 0.027-0.171 0.033-0.439 0.021-0.826 0.077-3.017 1.222-4.229 0.517-0.546 1.176-0.824 1.961-0.824s1.444 0.278 1.961 0.824c1.145 1.211 1.201 3.403 1.221 4.227 0.007 0.27 0.011 0.367 0.034 0.442 0.027 0.086 0.062 0.172 0.099 0.259 0.059 0.142 0.115 0.276 0.115 0.398v3.358h-0.951v-3.358c0-0.131 0.039-0.253 0.093-0.42 0.030-0.093 0.062-0.193 0.092-0.308 0.109-0.414-0.058-3.139-1.091-4.231-0.417-0.441-0.931-0.656-1.57-0.657-0.001 0-0.001 0-0.001 0h-0.002c-0.001 0-0.001 0-0.001 0-0.639 0.001-1.154 0.215-1.57 0.657-1.033 1.093-1.2 3.817-1.091 4.231 0.030 0.115 0.062 0.215 0.092 0.307 0.054 0.169 0.093 0.29 0.093 0.422v3.358h-0.951v-3.358zM24.491 14.346c-0.004-0.699 0.197-2.676 0.977-3.502 0.316-0.334 0.692-0.49 1.185-0.49s0.869 0.156 1.185 0.49c0.781 0.826 0.981 2.803 0.977 3.502h-4.324zM18.781 15.057l0.334 10.912c-0.427-4.156-0.742-9.621-0.813-10.912h0.479zM32.775 30.932l-12.263 0.001c-0.004-0.002-0.348 0.019-0.561-0.193-0.047-0.047-0.079-0.094-0.105-0.138-0.022-0.058-0.043-0.122-0.065-0.194-0.004-0.037-0.004-0.066-0.004-0.067l0.004-0.027-0.473-15.434h3.519c-0.068 0.164-0.138 0.347-0.138 0.557v3.625c0 0.147 0.119 0.267 0.267 0.267h1.484c0.147 0 0.267-0.119 0.267-0.267v-3.625c0-0.205-0.053-0.377-0.111-0.557h4.111c-0.058 0.18-0.111 0.353-0.111 0.557v3.625c0 0.147 0.119 0.267 0.267 0.267h1.485c0.147 0 0.267-0.119 0.267-0.267v-3.625c0-0.21-0.069-0.393-0.138-0.557h3.519l-0.469 15.455c0.001 0.003 0 0.034-0.004 0.075-0.021 0.071-0.043 0.134-0.064 0.19-0.026 0.045-0.059 0.092-0.106 0.139-0.211 0.21-0.555 0.192-0.578 0.192zM34.189 26.047l0.337-10.99h0.505c-0.074 1.3-0.404 6.825-0.841 10.99z"></path>
<path d="M25.587 17.973h2.133v-2.133h-2.133v2.133zM26.12 16.373h1.067v1.067h-1.067v-1.067z"></path>
</svg>
