<!-- Generated by IcoMoon.io -->
<svg version="1.1" xmlns="http://www.w3.org/2000/svg" width="53" height="32" viewBox="0 0 53 32">
<title>Trolleys</title>
<path d="M29.494 11.845v-1.492c0-0.394-0.321-0.715-0.715-0.715h-4.226c-0.394 0-0.715 0.321-0.715 0.715v1.492h-3.31v2.007h0.014c-0.006 0.046-0.014 0.091-0.014 0.139v13.718c0 0.401 0.222 0.747 0.548 0.933v1.141h0.454c-0.005 0.030-0.018 0.057-0.018 0.087v1.013c0 0.322 0.262 0.583 0.583 0.583h0.067c0.322 0 0.583-0.262 0.583-0.583v-1.013c0-0.031-0.013-0.058-0.018-0.087h0.454v-0.996h6.98v0.996h0.454c-0.005 0.030-0.018 0.057-0.018 0.087v1.013c0 0.322 0.262 0.583 0.583 0.583h0.067c0.322 0 0.583-0.262 0.583-0.583v-1.013c0-0.031-0.013-0.058-0.018-0.087h0.454v-1.147c0.32-0.187 0.538-0.531 0.538-0.927v-15.863h-3.31zM22.242 30.883c0 0.044-0.035 0.079-0.079 0.079h-0.067c-0.044 0-0.079-0.035-0.079-0.079v-1.013c0-0.043 0.035-0.078 0.079-0.078h0.067c0.044 0 0.079 0.035 0.079 0.078v1.013zM31.327 30.883c0 0.044-0.035 0.079-0.079 0.079h-0.067c-0.044 0-0.079-0.035-0.079-0.079v-1.013c0-0.043 0.035-0.078 0.079-0.078h0.067c0.044 0 0.079 0.035 0.079 0.078v1.013zM24.325 10.353c0-0.126 0.102-0.229 0.229-0.229h4.226c0.126 0 0.229 0.102 0.229 0.229v1.492h-4.684v-1.492zM32.319 12.331v0.761c-0.17-0.112-0.373-0.179-0.591-0.179h-10.122c-0.219 0-0.421 0.066-0.591 0.179v-0.761h11.305zM22.696 29.297h-0.49c-0.015-0.001-0.028-0.009-0.044-0.009h-0.067c-0.015 0-0.029 0.007-0.044 0.009h-0.49v-0.514c0.014 0.001 0.028 0.004 0.043 0.004h1.090v0.51zM31.781 29.297h-0.49c-0.015-0.001-0.028-0.009-0.044-0.009h-0.067c-0.015 0-0.029 0.007-0.044 0.009h-0.49v-0.51h1.080c0.018 0 0.036-0.004 0.054-0.005v0.515zM31.728 28.3h-10.122c-0.326 0-0.591-0.265-0.591-0.591v-11.628h11.305v11.628c0 0.326-0.265 0.591-0.591 0.591zM32.319 15.594h-11.305v-1.604c0-0.326 0.266-0.591 0.591-0.591h10.122c0.326 0 0.591 0.265 0.591 0.591v1.604z"></path>
<path d="M25.938 15.197h1.458v-1.459h-1.458v1.459zM26.423 14.225h0.486v0.486h-0.486v-0.486z"></path>
<path d="M26.175 22.097l0.491 0.471 0.491-0.471-0.491-0.471z"></path>
<path d="M27.634 20.638l0.491 0.471 0.491-0.471-0.491-0.471z"></path>
<path d="M27.634 23.555l0.491 0.471 0.491-0.471-0.491-0.471z"></path>
<path d="M24.718 23.555l0.491 0.471 0.491-0.471-0.491-0.471z"></path>
<path d="M24.718 20.638l0.491 0.471 0.491-0.471-0.491-0.471z"></path>
</svg>
