<!-- Generated by IcoMoon.io -->
<svg version="1.1" xmlns="http://www.w3.org/2000/svg" width="53" height="32" viewBox="0 0 53 32">
<title>Wallet_Mens_BiFold_Ottomar_G1</title>
<path d="M32.533 20.265v-0.612c0-0.27-0.117-0.526-0.32-0.705s-0.471-0.26-0.74-0.223l-11.446 1.53h-0.299v11.211h12.706c0.646 0 1.172-0.525 1.172-1.171v-8.868c0.001-0.612-0.473-1.11-1.072-1.162zM31.545 19.254c0.115-0.013 0.23 0.019 0.318 0.097s0.137 0.185 0.137 0.303v0.602h-7.95l7.495-1.002zM33.061 30.295c0 0.346-0.281 0.627-0.627 0.627h-12.161v-10.122h12.162c0.346 0 0.627 0.281 0.627 0.627v8.868z"></path>
<path d="M30.695 29.284l0.539 0.517 0.539-0.517-0.539-0.518z"></path>
</svg>
