<!-- Generated by IcoMoon.io -->
<svg version="1.1" xmlns="http://www.w3.org/2000/svg" width="53" height="32" viewBox="0 0 53 32">
<title>Weekenders</title>
<path d="M25.483 17.484v2.367h2.367v-2.367h-2.367zM27.317 19.318h-1.3v-1.3h1.3v1.3z"></path>
<path d="M39.707 17.466l-0.018-0.055c-0.354-1.135-1.34-1.338-1.785-1.286l-7.597 0.001c0.172-1.41 0.215-3.677-0.964-5.039-0.538-0.621-1.271-0.981-2.181-1.081v-0.405h-0.992v0.395c-0.95 0.088-1.706 0.455-2.249 1.097-1.156 1.365-1.067 3.626-0.865 5.034l-7.598 0.001c-0.472-0.052-1.46 0.149-1.814 1.284l-0.018 0.055c-0.392 1.252-1.586 5.060 0.010 13.672 0.023 0.125 0.132 0.217 0.26 0.218l12.757 0.111c0.001 0 0.002 0 0.002 0 0.007 0 0.013 0 0.021 0 0.001 0 0.002 0 0.002 0l12.758-0.11c0.127-0.001 0.237-0.093 0.26-0.218 1.596-8.612 0.403-12.42 0.011-13.672zM30.579 16.657v14.243l-0.898 0.008v-14.251h0.898zM24.329 11.436c0.438-0.517 1.062-0.807 1.842-0.892v0.506h0.991v-0.5c0.743 0.095 1.345 0.385 1.778 0.885 1.092 1.262 0.972 3.556 0.829 4.691l-6.174 0.001c-0.167-1.132-0.339-3.423 0.733-4.69zM23.663 16.657v14.25l-0.898-0.008v-14.242h0.898zM14.135 17.626l0.018-0.056c0.311-0.993 1.21-0.919 1.277-0.912l6.802-0.001v14.238l-8.111-0.070c-1.512-8.329-0.365-11.99 0.014-13.199zM26.675 30.933c-0.005 0-0.011 0-0.016 0l-2.462-0.021v-14.255l4.953-0.001v14.255l-2.474 0.021zM39.212 30.825l-8.1 0.070v-14.238l6.821-0.001c0.037-0.003 0.933-0.090 1.247 0.914l0.018 0.056c0.379 1.21 1.526 4.871 0.014 13.199z"></path>
</svg>
